<svg width="65" height="56" viewBox="0 0 65 56" fill="none" xmlns="http://www.w3.org/2000/svg">
<path d="M63.5221 46.8369L62.3934 33.9362C62.1895 32.7312 61.9092 31.5403 61.5545 30.3708C61.3363 29.6124 60.9582 28.9096 60.4456 28.3096C60.1376 28.0371 59.7504 27.8705 59.3408 27.834C58.9311 27.7976 58.5206 27.8933 58.1693 28.1072C57.4401 28.633 56.8089 29.2828 56.3046 30.027C54.98 31.4171 53.5063 32.657 51.9101 33.7241C47.2516 29.8152 34.8187 18.5058 24.241 10.0455C20.1408 6.56482 15.7453 3.44788 11.1042 0.730006C10.9161 0.623523 10.6946 0.592643 10.4847 0.643645C10.2747 0.694646 10.092 0.823701 9.97379 1.00457L0.553408 12.3689L1.67413 12.2708C1.50667 12.3507 1.35749 12.4643 1.2359 12.6045C1.11431 12.7447 1.02292 12.9084 0.967443 13.0855C0.807913 13.2313 0.701361 13.426 0.664532 13.639C0.639822 13.7557 0.650442 13.8771 0.695036 13.9877L0.932253 14.1175L1.1262 14.3264L4.87341 17.2861C13.9614 24.4964 35.3311 41.5739 40.8161 46.0379C39.4048 47.649 38.1371 49.3806 37.0277 51.2127C36.6326 51.7973 36.4505 52.4999 36.512 53.2027C36.5735 53.9056 36.8748 54.5659 37.3654 55.073C37.7101 55.3479 38.1252 55.5203 38.5633 55.5705C39.7424 55.6864 40.9278 55.7252 42.1119 55.6866C46.5982 55.6204 53.9106 55.1563 56.7747 54.9057C58.3851 54.9059 59.9939 54.807 61.5922 54.6097C62.3673 54.4971 63.0845 54.1348 63.635 53.5777C64.0637 52.9055 64.267 52.1142 64.2153 51.3186C64.0597 49.8265 63.57 47.3848 63.5221 46.8369ZM58.6462 30.9765C58.5327 30.9486 58.4259 30.8982 58.3321 30.8284C58.3321 30.8284 58.0451 30.7029 58.1425 30.6693C58.24 30.6356 58.5161 30.6366 58.6462 30.9765ZM58.9815 34.2347L60.1101 47.1354C60.1559 47.6584 59.5806 51.1218 60.5089 51.693C59.2885 51.7998 57.0175 51.3711 56.4945 51.4168C53.2818 51.6979 44.3733 52.2766 40.4284 52.2202L40.8017 51.6103C41.8004 50.1176 43.2386 48.486 43.9323 47.5219C44.2909 47.1042 44.5482 46.6093 44.6841 46.0759C44.7571 45.774 44.742 45.4576 44.6407 45.164C44.5394 44.8704 44.3561 44.612 44.1125 44.4194C41.6025 42.4055 16.5509 23.1155 6.36243 15.374L3.10926 12.8981L11.0316 2.76909C15.1847 5.484 19.138 8.49276 22.8613 11.7723C33.6948 20.8627 46.62 33.2082 50.5287 36.5803C50.867 36.8227 51.2677 36.9629 51.6832 36.9844C52.0988 37.0059 52.5118 36.9077 52.8732 36.7015C55.0212 35.4417 57.0039 33.9195 58.7757 32.1698L58.7648 32.0453C58.9862 32.8541 58.9553 33.9359 58.9815 34.2347ZM60.8554 51.6376L60.8314 51.3637C60.827 51.3139 61.0521 51.0181 61.0879 51.1405C61.1237 51.2628 61.1477 51.5368 60.8532 51.6127L60.8554 51.6376Z" fill="#4175DD"/>
</svg>
