<svg width="70" height="70" viewBox="0 0 70 70" fill="none" xmlns="http://www.w3.org/2000/svg">
<rect x="1" y="1" width="68" height="68" rx="34" fill="#F6F9FD"/>
<rect x="1" y="1" width="68" height="68" rx="34" stroke="#4175DD" stroke-width="2"/>
<path d="M29.9999 38.2136L27.7211 36.0436C27.5308 35.8625 27.3059 35.7218 27.0598 35.6299C26.8138 35.538 26.5517 35.4968 26.2893 35.5089C26.0269 35.5209 25.7696 35.5859 25.533 35.6999C25.2964 35.8139 25.0853 35.9746 24.9124 36.1724C24.5938 36.536 24.4219 37.005 24.43 37.4883C24.438 37.9716 24.6256 38.4347 24.9561 38.7874L32.3836 46.7099C32.8573 47.2136 33.5161 47.4999 34.2074 47.4999H39.9998C42.9998 47.4999 44.9998 44.9999 44.9998 42.4999V31.7861" stroke="#4175DD" stroke-width="1.77083" stroke-linecap="round" stroke-linejoin="round"/>
<path d="M45 31.7862C45 28.9287 41.25 28.9287 41.25 31.7862V32.5V30.3575C41.25 27.5 37.5 27.5 37.5 30.3575V32.5V29.375C37.5 26.5175 33.75 26.5175 33.75 29.375V32.5V24.3738C33.75 23.3375 32.91 22.5 31.875 22.5C31.3777 22.5 30.9008 22.6975 30.5492 23.0492C30.1975 23.4008 30 23.8777 30 24.375V38.2138" stroke="#4175DD" stroke-width="1.77083" stroke-linecap="round" stroke-linejoin="round"/>
</svg>
