<svg width="71" height="70" viewBox="0 0 71 70" fill="none" xmlns="http://www.w3.org/2000/svg">
<rect x="1.5" y="1" width="68" height="68" rx="34" fill="#F6F9FD"/>
<rect x="1.5" y="1" width="68" height="68" rx="34" stroke="#4175DD" stroke-width="2"/>
<g clip-path="url(#clip0_1727_11018)">
<path d="M47.0996 30.0781C47.5391 30.3223 47.9395 30.6201 48.3008 30.9717C48.6621 31.3232 48.9648 31.7139 49.209 32.1436C49.4531 32.5732 49.6484 33.0273 49.7949 33.5059C49.9414 33.9844 50.0098 34.4824 50 35H48.125C48.125 34.4922 48.0273 34.0088 47.832 33.5498C47.6367 33.0908 47.3682 32.6953 47.0264 32.3633C46.6846 32.0312 46.2842 31.7627 45.8252 31.5576C45.3662 31.3525 44.8828 31.25 44.375 31.25C43.8574 31.25 43.374 31.3477 42.9248 31.543C42.4756 31.7383 42.0801 32.0068 41.7383 32.3486C41.3965 32.6904 41.1279 33.0908 40.9326 33.5498C40.7373 34.0088 40.6348 34.4922 40.625 35C40.625 35.8887 40.4248 36.7334 40.0244 37.5342C39.624 38.335 39.0625 38.999 38.3398 39.5264C38.9746 39.8486 39.5459 40.2441 40.0537 40.7129C40.5615 41.1816 41.001 41.709 41.3721 42.2949C41.7432 42.8809 42.0215 43.5059 42.207 44.1699C42.3926 44.834 42.4902 45.5273 42.5 46.25H40.625C40.625 45.4785 40.4785 44.751 40.1855 44.0674C39.8926 43.3838 39.4873 42.7881 38.9697 42.2803C38.4521 41.7725 37.8564 41.3721 37.1826 41.0791C36.5088 40.7861 35.7812 40.6348 35 40.625C34.2285 40.625 33.501 40.7715 32.8174 41.0645C32.1338 41.3574 31.5381 41.7627 31.0303 42.2803C30.5225 42.7979 30.1221 43.3936 29.8291 44.0674C29.5361 44.7412 29.3848 45.4688 29.375 46.25H27.5C27.5 45.5371 27.5977 44.8486 27.793 44.1846C27.9883 43.5205 28.2666 42.8955 28.6279 42.3096C28.9893 41.7236 29.4238 41.1963 29.9316 40.7275C30.4395 40.2588 31.0156 39.8584 31.6602 39.5264C30.9473 38.999 30.3906 38.335 29.9902 37.5342C29.5898 36.7334 29.3848 35.8887 29.375 35C29.375 34.4922 29.2773 34.0088 29.082 33.5498C28.8867 33.0908 28.6182 32.6953 28.2764 32.3633C27.9346 32.0312 27.5342 31.7627 27.0752 31.5576C26.6162 31.3525 26.1328 31.25 25.625 31.25C25.1074 31.25 24.624 31.3477 24.1748 31.543C23.7256 31.7383 23.3301 32.0068 22.9883 32.3486C22.6465 32.6904 22.3779 33.0908 22.1826 33.5498C21.9873 34.0088 21.8848 34.4922 21.875 35H20C20 34.4922 20.0684 33.999 20.2051 33.5205C20.3418 33.042 20.5322 32.5879 20.7764 32.1582C21.0205 31.7285 21.3281 31.3379 21.6992 30.9863C22.0703 30.6348 22.4707 30.332 22.9004 30.0781C22.5781 29.7363 22.3291 29.3408 22.1533 28.8916C21.9775 28.4424 21.8848 27.9785 21.875 27.5C21.875 26.9922 21.9727 26.5088 22.168 26.0498C22.3633 25.5908 22.6318 25.1953 22.9736 24.8633C23.3154 24.5312 23.7109 24.2627 24.1602 24.0576C24.6094 23.8525 25.0977 23.75 25.625 23.75C26.1328 23.75 26.6162 23.8477 27.0752 24.043C27.5342 24.2383 27.9297 24.5068 28.2617 24.8486C28.5938 25.1904 28.8623 25.5908 29.0674 26.0498C29.2725 26.5088 29.375 26.9922 29.375 27.5C29.375 27.9785 29.2871 28.4424 29.1113 28.8916C28.9355 29.3408 28.6816 29.7363 28.3496 30.0781C29.1504 30.5176 29.8047 31.123 30.3125 31.8945C30.8398 31.1133 31.5137 30.498 32.334 30.0488C33.1543 29.5996 34.043 29.375 35 29.375C35.9473 29.375 36.8311 29.5996 37.6514 30.0488C38.4717 30.498 39.1504 31.1133 39.6875 31.8945C40.1953 31.123 40.8496 30.5176 41.6504 30.0781C41.3281 29.7363 41.0791 29.3408 40.9033 28.8916C40.7275 28.4424 40.6348 27.9785 40.625 27.5C40.625 26.9922 40.7227 26.5088 40.918 26.0498C41.1133 25.5908 41.3818 25.1953 41.7236 24.8633C42.0654 24.5312 42.4609 24.2627 42.9102 24.0576C43.3594 23.8525 43.8477 23.75 44.375 23.75C44.8828 23.75 45.3662 23.8477 45.8252 24.043C46.2842 24.2383 46.6797 24.5068 47.0117 24.8486C47.3438 25.1904 47.6123 25.5908 47.8174 26.0498C48.0225 26.5088 48.125 26.9922 48.125 27.5C48.125 27.9785 48.0371 28.4424 47.8613 28.8916C47.6855 29.3408 47.4316 29.7363 47.0996 30.0781ZM23.75 27.5C23.75 27.7637 23.7988 28.0078 23.8965 28.2324C23.9941 28.457 24.126 28.6523 24.292 28.8184C24.458 28.9844 24.6582 29.1211 24.8926 29.2285C25.127 29.3359 25.3711 29.3848 25.625 29.375C25.8887 29.375 26.1328 29.3262 26.3574 29.2285C26.582 29.1309 26.7773 28.999 26.9434 28.833C27.1094 28.667 27.2461 28.4668 27.3535 28.2324C27.4609 27.998 27.5098 27.7539 27.5 27.5C27.5 27.2363 27.4512 26.9922 27.3535 26.7676C27.2559 26.543 27.124 26.3477 26.958 26.1816C26.792 26.0156 26.5918 25.8789 26.3574 25.7715C26.123 25.6641 25.8789 25.6152 25.625 25.625C25.3613 25.625 25.1172 25.6738 24.8926 25.7715C24.668 25.8691 24.4727 26.001 24.3066 26.167C24.1406 26.333 24.0039 26.5332 23.8965 26.7676C23.7891 27.002 23.7402 27.2461 23.75 27.5ZM35 38.75C35.5078 38.75 35.9912 38.6523 36.4502 38.457C36.9092 38.2617 37.3047 37.9932 37.6367 37.6514C37.9688 37.3096 38.2373 36.9141 38.4424 36.4648C38.6475 36.0156 38.75 35.5273 38.75 35C38.75 34.4922 38.6523 34.0088 38.457 33.5498C38.2617 33.0908 37.9932 32.6953 37.6514 32.3633C37.3096 32.0312 36.9092 31.7627 36.4502 31.5576C35.9912 31.3525 35.5078 31.25 35 31.25C34.4824 31.25 33.999 31.3477 33.5498 31.543C33.1006 31.7383 32.7051 32.0068 32.3633 32.3486C32.0215 32.6904 31.7529 33.0908 31.5576 33.5498C31.3623 34.0088 31.2598 34.4922 31.25 35C31.25 35.5176 31.3477 36.001 31.543 36.4502C31.7383 36.8994 32.0068 37.2949 32.3486 37.6367C32.6904 37.9785 33.0859 38.2471 33.5352 38.4424C33.9844 38.6377 34.4727 38.7402 35 38.75ZM42.5 27.5C42.5 27.7637 42.5488 28.0078 42.6465 28.2324C42.7441 28.457 42.876 28.6523 43.042 28.8184C43.208 28.9844 43.4082 29.1211 43.6426 29.2285C43.877 29.3359 44.1211 29.3848 44.375 29.375C44.6387 29.375 44.8828 29.3262 45.1074 29.2285C45.332 29.1309 45.5273 28.999 45.6934 28.833C45.8594 28.667 45.9961 28.4668 46.1035 28.2324C46.2109 27.998 46.2598 27.7539 46.25 27.5C46.25 27.2363 46.2012 26.9922 46.1035 26.7676C46.0059 26.543 45.874 26.3477 45.708 26.1816C45.542 26.0156 45.3418 25.8789 45.1074 25.7715C44.873 25.6641 44.6289 25.6152 44.375 25.625C44.1113 25.625 43.8672 25.6738 43.6426 25.7715C43.418 25.8691 43.2227 26.001 43.0566 26.167C42.8906 26.333 42.7539 26.5332 42.6465 26.7676C42.5391 27.002 42.4902 27.2461 42.5 27.5Z" fill="#4175DD"/>
</g>
<defs>
<clipPath id="clip0_1727_11018">
<rect width="30" height="30" fill="white" transform="translate(20 20)"/>
</clipPath>
</defs>
</svg>
