<svg width="70" height="70" viewBox="0 0 70 70" fill="none" xmlns="http://www.w3.org/2000/svg">
<rect x="1" y="1" width="68" height="68" rx="34" fill="#F6F9FD"/>
<rect x="1" y="1" width="68" height="68" rx="34" stroke="#4175DD" stroke-width="2"/>
<g clip-path="url(#clip0_1727_11004)">
<path d="M49.4141 46.1914H48.8281V43.5547C48.8281 43.3143 48.6813 43.0984 48.4579 43.0099C45.5093 41.8423 43.1899 41.2746 41.1588 41.2232C38.6934 41.1602 36.6736 41.8528 35.0001 43.3359C33.3266 41.8529 31.3071 41.1605 28.8413 41.2232C26.8102 41.2746 24.4909 41.8423 21.5422 43.0099C21.3187 43.0984 21.1719 43.3143 21.1719 43.5547V46.1914H20.5859C20.2624 46.1914 20 46.4537 20 46.7773V49.4141C20 49.7377 20.2624 50 20.5859 50H49.4141C49.7376 50 50 49.7377 50 49.4141V46.7773C50 46.4537 49.7376 46.1914 49.4141 46.1914ZM47.6562 43.9545V46.1914H38.1696C38.1272 45.9598 38.0599 45.735 37.9689 45.5203C39.2404 45.0395 40.6915 44.9122 42.3839 45.1308C42.7048 45.1717 42.9985 44.9456 43.04 44.6247C43.0814 44.3037 42.8548 44.01 42.5339 43.9685C40.535 43.7105 38.819 43.8921 37.3035 44.5237C37.2887 44.5086 37.2738 44.4936 37.2587 44.4788C36.9689 44.1939 36.6342 43.9703 36.2709 43.8144C39.5288 41.401 43.7923 42.46 47.6562 43.9545ZM33.0355 46.1914C33.2902 45.3471 34.079 44.7269 34.9992 44.7266H35.0008C35.921 44.7269 36.7098 45.3471 36.9645 46.1914H33.0355ZM22.3438 43.9545C26.2077 42.46 30.4711 41.401 33.729 43.8143C33.3658 43.9702 33.0311 44.1939 32.7412 44.4787C32.7261 44.4935 32.7112 44.5085 32.6964 44.5236C31.181 43.8919 29.4648 43.7104 27.4661 43.9684C27.1451 44.0099 26.9185 44.3036 26.9599 44.6245C27.0014 44.9455 27.2959 45.1715 27.6161 45.1307C29.3084 44.9122 30.7595 45.0395 32.031 45.5202C31.9401 45.735 31.8727 45.9598 31.8304 46.1913H22.3438V43.9545ZM21.1719 47.3633H34.4141V48.8281H21.1719V47.3633ZM48.8281 48.8281H35.5859V47.3633H48.8281V48.8281Z" fill="#4175DD"/>
<path d="M31.2891 31.7156V32.6953C30.9655 32.6953 30.7031 32.9577 30.7031 33.2813C30.7031 33.6049 30.9655 33.8672 31.2891 33.8672H31.7773V35.3321H31.2891C30.9655 35.3321 30.7031 35.5944 30.7031 35.918C30.7031 36.2416 30.9655 36.5039 31.2891 36.5039H31.7773V37.3828C31.7773 37.5382 31.8391 37.6873 31.949 37.7971L33.1208 38.969C33.2308 39.0789 33.3798 39.1406 33.5352 39.1406H36.4648C36.6202 39.1406 36.7692 39.0789 36.8792 38.969L38.051 37.7971C38.1609 37.6873 38.2227 37.5383 38.2227 37.3828V36.5039H38.711C39.0345 36.5039 39.2969 36.2416 39.2969 35.918C39.2969 35.5944 39.0345 35.3321 38.711 35.3321H38.2227V33.8672H38.7109C39.0345 33.8672 39.2969 33.6049 39.2969 33.2813C39.2969 32.9577 39.0345 32.6953 38.7109 32.6953V31.7156C40.4292 30.5066 41.4453 28.5601 41.4453 26.4453C41.4453 22.8914 38.5539 20 35 20C31.4461 20 28.5547 22.8914 28.5547 26.4453C28.5547 28.5601 29.5708 30.5066 31.2891 31.7156ZM37.0508 37.1401L36.2221 37.9688H33.7779L32.9492 37.1401V36.5039H37.0508V37.1401ZM37.0508 35.3321H32.9492V33.8672H37.0508V35.3321ZM35 21.1719C37.9078 21.1719 40.2734 23.5375 40.2734 26.4453C40.2734 28.2654 39.3533 29.9332 37.812 30.9069C37.6421 31.0143 37.539 31.2013 37.539 31.4023V32.6953H35.5859V27.4718L36.9817 26.076C37.2105 25.8472 37.2105 25.4762 36.9817 25.2473C36.7528 25.0185 36.3819 25.0185 36.153 25.2473L35 26.4004L33.8469 25.2473C33.6181 25.0185 33.2472 25.0185 33.0182 25.2473C32.7894 25.4761 32.7894 25.8471 33.0182 26.076L34.4141 27.4718V32.6953H32.461V31.4023C32.461 31.2013 32.3579 31.0143 32.188 30.9069C30.6467 29.9333 29.7266 28.2654 29.7266 26.4453C29.7266 23.5375 32.0922 21.1719 35 21.1719Z" fill="#4175DD"/>
<path d="M25.332 27.0312H26.504C26.8275 27.0312 27.0899 26.7689 27.0899 26.4453C27.0899 26.1217 26.8275 25.8594 26.504 25.8594H25.332C25.0085 25.8594 24.7461 26.1217 24.7461 26.4453C24.7461 26.7689 25.0085 27.0312 25.332 27.0312Z" fill="#4175DD"/>
<path d="M42.9102 26.4453C42.9102 26.7689 43.1725 27.0312 43.4961 27.0312H44.668C44.9915 27.0312 45.2539 26.7689 45.2539 26.4453C45.2539 26.1217 44.9915 25.8594 44.668 25.8594H43.4961C43.1725 25.8594 42.9102 26.1218 42.9102 26.4453Z" fill="#4175DD"/>
<path d="M26.3341 22.1188L27.3489 22.7047C27.4412 22.758 27.5419 22.7834 27.6413 22.7834C27.8438 22.7834 28.0408 22.6782 28.1493 22.4903C28.3111 22.21 28.2151 21.8517 27.9348 21.6899L26.92 21.1039C26.6396 20.9421 26.2814 21.0381 26.1196 21.3184C25.9578 21.5987 26.0538 21.957 26.3341 22.1188Z" fill="#4175DD"/>
<path d="M42.0646 31.2008L43.0794 31.7868C43.1717 31.8401 43.2724 31.8654 43.3718 31.8654C43.5743 31.8654 43.7713 31.7603 43.8798 31.5723C44.0416 31.2921 43.9456 30.9337 43.6653 30.7719L42.6505 30.186C42.3701 30.0241 42.0119 30.1203 41.8501 30.4004C41.6883 30.6807 41.7843 31.0391 42.0646 31.2008Z" fill="#4175DD"/>
<path d="M27.3489 30.186L26.3341 30.772C26.0538 30.9337 25.9578 31.2921 26.1196 31.5724C26.2281 31.7603 26.4251 31.8654 26.6276 31.8654C26.727 31.8654 26.8277 31.8401 26.92 31.7868L27.9349 31.2009C28.2151 31.0391 28.3112 30.6807 28.1493 30.4005C27.9876 30.1203 27.6294 30.0242 27.3489 30.186Z" fill="#4175DD"/>
<path d="M42.3581 22.7833C42.4575 22.7833 42.5582 22.758 42.6505 22.7047L43.6653 22.1188C43.9456 21.957 44.0416 21.5986 43.8798 21.3184C43.7181 21.0382 43.3599 20.9421 43.0794 21.1039L42.0646 21.6898C41.7843 21.8516 41.6883 22.21 41.8501 22.4902C41.9586 22.6782 42.1556 22.7833 42.3581 22.7833Z" fill="#4175DD"/>
</g>
<defs>
<clipPath id="clip0_1727_11004">
<rect width="30" height="30" fill="white" transform="translate(20 20)"/>
</clipPath>
</defs>
</svg>
