<svg width="70" height="70" viewBox="0 0 70 70" fill="none" xmlns="http://www.w3.org/2000/svg">
<rect x="1" y="1" width="68" height="68" rx="34" fill="#F6F9FD"/>
<rect x="1" y="1" width="68" height="68" rx="34" stroke="#4175DD" stroke-width="2"/>
<path d="M47.3047 23.5156H44.3998C44.4951 22.6512 44.5805 21.7969 44.6636 20.9664C44.6883 20.7193 44.6073 20.4733 44.4407 20.2892C44.2741 20.105 44.0374 20 43.7891 20H26.2109C25.9626 20 25.7259 20.1051 25.5593 20.2893C25.3927 20.4734 25.3117 20.7195 25.3364 20.9666C25.4152 21.7541 25.5012 22.6132 25.6047 23.5156H22.6953C22.2099 23.5156 21.8164 23.9091 21.8164 24.3945V28.2617C21.8164 32.3139 25.0217 35.6311 29.03 35.8121C29.9663 37.2469 31.0793 38.2463 32.3633 38.8052V41.2109C32.3633 42.5023 31.6458 43.6632 30.4908 44.2407L29.934 44.5191C28.1797 45.3963 27.0898 47.1597 27.0898 49.1211C27.0898 49.6065 27.4834 50 27.9688 50H42.0312C42.5166 50 42.9102 49.6065 42.9102 49.1211C42.9102 47.1597 41.8203 45.3963 40.066 44.5191L39.5092 44.2407C38.3542 43.6632 37.6367 42.5023 37.6367 41.2109V38.8507C39.1426 38.2508 40.2811 37.1485 41.1488 35.8019C45.0732 35.5319 48.1836 32.2534 48.1836 28.2617V24.3945C48.1836 23.9091 47.7901 23.5156 47.3047 23.5156ZM23.5742 28.2617V25.2734H25.8249C26.2128 28.0988 26.835 31.2929 27.9985 33.897C25.4622 33.2774 23.5742 30.9861 23.5742 28.2617ZM38.7231 45.8129L39.2799 46.0913C40.1647 46.5338 40.7928 47.3186 41.0382 48.2422H28.9618C29.2072 47.3186 29.8353 46.5338 30.7201 46.0913L31.2769 45.8129C33.0312 44.9357 34.1211 43.1724 34.1211 41.2109V39.2822C34.4074 39.3177 34.7003 39.3359 35 39.3359C35.2996 39.3359 35.5926 39.3195 35.8789 39.287V41.2109C35.8789 43.1724 36.9687 44.9357 38.7231 45.8129ZM35 37.5781C29.0927 37.5781 27.8015 27.7779 27.1831 21.7578H42.8174C42.4787 25.0917 42.028 29.0954 40.9183 32.2207C39.8471 35.2375 38.1701 37.5781 35 37.5781ZM46.4258 28.2617C46.4258 30.9262 44.6199 33.1765 42.1678 33.8538C43.275 31.2577 43.8293 28.0944 44.1913 25.2734H46.4258V28.2617Z" fill="#4175DD"/>
<path d="M39.1793 27.2236C39.0759 26.9055 38.8009 26.6736 38.4698 26.6255L36.6167 26.3562L35.788 24.677C35.6399 24.377 35.3344 24.1871 34.9998 24.1871C34.6653 24.1871 34.3598 24.377 34.2117 24.677L33.3829 26.3562L31.5299 26.6254C31.1988 26.6735 30.9237 26.9054 30.8204 27.2236C30.717 27.5417 30.8032 27.891 31.0428 28.1245L32.3837 29.4316L32.0672 31.2772C32.0106 31.6069 32.1461 31.9401 32.4168 32.1368C32.6874 32.3334 33.0463 32.3594 33.3425 32.2037L34.9998 31.3324L36.6573 32.2038C36.9564 32.361 37.3149 32.3315 37.5829 32.1368C37.8536 31.9402 37.9891 31.6069 37.9326 31.2772L37.616 29.4316L38.9569 28.1246C39.1964 27.8911 39.2827 27.5418 39.1793 27.2236ZM36.0582 28.4954C35.851 28.6973 35.7565 28.9882 35.8054 29.2734L35.899 29.8191L35.4089 29.5615C35.1529 29.4269 34.847 29.4268 34.5909 29.5615L34.1008 29.8191L34.1945 29.2734C34.2434 28.9882 34.1489 28.6973 33.9417 28.4954L33.5451 28.1089L34.0932 28.0292C34.3794 27.9876 34.6268 27.8078 34.7549 27.5484L35 27.0518L35.2451 27.5484C35.3732 27.8078 35.6206 27.9876 35.9069 28.0292L36.4549 28.1089L36.0582 28.4954Z" fill="#4175DD"/>
</svg>
