<svg width="86" height="86" viewBox="0 0 86 86" fill="none" xmlns="http://www.w3.org/2000/svg">
<g clip-path="url(#clip0_1727_11027)">
<path d="M45.4492 62.807L30.6584 58.8438C30.3782 58.7687 30.1393 58.5854 29.9943 58.3342C29.8493 58.083 29.81 57.7844 29.885 57.5042L31.2175 52.5314L28.1629 42.9339C28.1575 42.9171 28.1528 42.9014 28.1492 42.8861C27.4046 40.1045 27.4052 37.1758 28.151 34.3945C28.8968 31.6132 30.3614 29.0772 32.3979 27.0412C34.4343 25.0053 36.9706 23.5412 39.7521 22.7961C42.5336 22.051 45.4623 22.0511 48.2437 22.7964C51.0252 23.5416 53.5615 25.0059 55.5977 27.0419C57.634 29.078 59.0986 31.6141 59.8442 34.3955C60.5898 37.1768 60.5902 40.1054 59.8454 42.887C59.1006 45.6686 57.6368 48.2052 55.6012 50.2418L48.1212 57.0607L46.7887 62.0336C46.7516 62.1723 46.6875 62.3025 46.6001 62.4165C46.5127 62.5305 46.4037 62.6261 46.2793 62.6979C46.1549 62.7698 46.0175 62.8164 45.8751 62.8351C45.7326 62.8538 45.5879 62.8442 45.4492 62.807Z" fill="#FFE145" stroke="#3C3C3C" stroke-width="1.5"/>
<path d="M31.3655 35.2552C31.3355 35.2472 31.3059 35.2381 31.2758 35.2268C31.1407 35.178 31.0165 35.1031 30.9104 35.0064C30.8042 34.9096 30.7182 34.7929 30.6573 34.6628C30.5963 34.5328 30.5615 34.392 30.555 34.2486C30.5485 34.1051 30.5703 33.9617 30.6193 33.8267C31.7972 30.6155 34.0937 27.9369 37.0872 26.2822C37.3403 26.1429 37.6382 26.1093 37.9159 26.1888C38.1936 26.2683 38.4286 26.4544 38.5696 26.7066C38.7105 26.9587 38.746 27.2564 38.6683 27.5346C38.5906 27.8128 38.4059 28.049 38.1547 28.1916C35.6203 29.5894 33.675 31.8542 32.6758 34.5706C32.5826 34.8279 32.3964 35.041 32.1538 35.1678C31.9113 35.2945 31.63 35.3257 31.3655 35.2552Z" fill="#FCF4BB"/>
<path d="M41.547 26.6598C42.1304 26.8162 42.7302 26.4699 42.8865 25.8864C43.0429 25.303 42.6966 24.7032 42.1131 24.5469C41.5296 24.3905 40.9299 24.7368 40.7736 25.3203C40.6172 25.9038 40.9635 26.5035 41.547 26.6598Z" fill="#FCF4BB"/>
<path d="M49.3775 18.5669C49.6577 18.642 49.9563 18.6027 50.2075 18.4577C50.4587 18.3126 50.642 18.0737 50.7171 17.7935L51.8494 13.5676C51.9245 13.2874 51.8852 12.9889 51.7401 12.7376C51.5951 12.4864 51.3562 12.3031 51.076 12.228C50.7958 12.153 50.4973 12.1923 50.2461 12.3373C49.9948 12.4823 49.8115 12.7212 49.7364 13.0014L48.6041 17.2274C48.529 17.5075 48.5683 17.8061 48.7134 18.0573C48.8584 18.3085 49.0973 18.4918 49.3775 18.5669Z" fill="#3C3C3C"/>
<path d="M31.8218 15.36C31.7514 15.233 31.6563 15.1213 31.5423 15.0314C31.4282 14.9415 31.2974 14.8752 31.1574 14.8364C31.0175 14.7976 30.8712 14.787 30.7271 14.8053C30.5831 14.8237 30.4441 14.8705 30.3183 14.9431C30.1925 15.0157 30.0825 15.1127 29.9946 15.2283C29.9067 15.3439 29.8427 15.4758 29.8063 15.6165C29.7699 15.7571 29.7619 15.9035 29.7828 16.0472C29.8036 16.191 29.8528 16.3291 29.9276 16.4536L32.1144 20.242C32.1863 20.3664 32.2819 20.4755 32.3959 20.5629C32.5098 20.6504 32.6399 20.7145 32.7787 20.7517C32.9175 20.7889 33.0622 20.7984 33.2046 20.7796C33.3471 20.7609 33.4844 20.7143 33.6088 20.6424C33.7332 20.5706 33.8423 20.475 33.9297 20.361C34.0172 20.247 34.0813 20.1169 34.1185 19.9782C34.1557 19.8394 34.1652 19.6947 34.1464 19.5522C34.1277 19.4098 34.0811 19.2725 34.0092 19.148L31.8218 15.36Z" fill="#3C3C3C"/>
<path d="M23.1515 31.922L18.9256 30.7897C18.6454 30.7146 18.3469 30.7539 18.0957 30.8989C17.8444 31.044 17.6611 31.2829 17.5861 31.5631C17.511 31.8433 17.5503 32.1418 17.6953 32.393C17.8404 32.6442 18.0793 32.8276 18.3595 32.9026L22.5854 34.035C22.8656 34.11 23.1641 34.0707 23.4153 33.9257C23.6666 33.7807 23.8499 33.5418 23.9249 33.2616C24 32.9814 23.9607 32.6828 23.8157 32.4316C23.6706 32.1804 23.4317 31.9971 23.1515 31.922Z" fill="#3C3C3C"/>
<path d="M69.6379 44.3777L65.412 43.2454C65.1318 43.1703 64.8332 43.2096 64.582 43.3546C64.3308 43.4997 64.1475 43.7386 64.0724 44.0188C63.9973 44.299 64.0366 44.5975 64.1817 44.8487C64.3267 45.0999 64.5656 45.2832 64.8458 45.3583L69.0717 46.4907C69.3519 46.5657 69.6505 46.5264 69.9017 46.3814C70.1529 46.2364 70.3362 45.9975 70.4113 45.7173C70.4864 45.4371 70.447 45.1385 70.302 44.8873C70.157 44.6361 69.9181 44.4528 69.6379 44.3777Z" fill="#3C3C3C"/>
<path d="M66.1856 24.5679L62.3972 26.7547C62.2728 26.8265 62.1637 26.9222 62.0763 27.0361C61.9888 27.1501 61.9247 27.2802 61.8875 27.419C61.8503 27.5577 61.8408 27.7025 61.8596 27.8449C61.8783 27.9873 61.925 28.1247 61.9968 28.2491C62.0686 28.3735 62.1643 28.4825 62.2782 28.57C62.3922 28.6575 62.5223 28.7216 62.6611 28.7588C62.7998 28.796 62.9446 28.8055 63.087 28.7867C63.2294 28.768 63.3668 28.7213 63.4912 28.6495L67.2796 26.4622C67.4067 26.3917 67.5184 26.2967 67.6083 26.1827C67.6982 26.0686 67.7645 25.9378 67.8033 25.7978C67.8421 25.6579 67.8526 25.5116 67.8343 25.3675C67.816 25.2235 67.7691 25.0845 67.6965 24.9587C67.6239 24.8329 67.527 24.7229 67.4114 24.635C67.2958 24.547 67.1638 24.483 67.0232 24.4467C66.8826 24.4103 66.7361 24.4023 66.5924 24.4231C66.4487 24.444 66.3101 24.4931 66.1856 24.5679Z" fill="#3C3C3C"/>
<path d="M24.5067 48.6307L20.7183 50.8181C20.5913 50.8885 20.4795 50.9835 20.3896 51.0976C20.2997 51.2116 20.2334 51.3424 20.1946 51.4824C20.1558 51.6223 20.1453 51.7686 20.1636 51.9127C20.1819 52.0568 20.2288 52.1957 20.3014 52.3215C20.374 52.4473 20.471 52.5573 20.5866 52.6453C20.7022 52.7332 20.8341 52.7972 20.9747 52.8335C21.1153 52.8699 21.2618 52.8779 21.4055 52.8571C21.5492 52.8363 21.6874 52.787 21.8119 52.7122L25.6007 50.5255C25.852 50.3805 26.0353 50.1415 26.1104 49.8613C26.1855 49.581 26.1462 49.2824 26.0011 49.0311C25.9293 48.9067 25.8337 48.7977 25.7197 48.7102C25.6057 48.6228 25.4756 48.5586 25.3369 48.5214C25.0566 48.4463 24.758 48.4856 24.5067 48.6307Z" fill="#3C3C3C"/>
<path d="M55.885 57.0382C55.74 56.7869 55.501 56.6036 55.2208 56.5285C54.9405 56.4534 54.6419 56.4927 54.3906 56.6378C54.1394 56.7829 53.956 57.0218 53.8809 57.3021C53.8058 57.5823 53.8451 57.8809 53.9902 58.1322L56.1776 61.9206C56.3252 62.1665 56.5636 62.3445 56.8412 62.4163C57.1189 62.4881 57.4136 62.448 57.662 62.3046C57.9104 62.1612 58.0925 61.926 58.1691 61.6496C58.2457 61.3733 58.2108 61.0779 58.0717 60.827L55.885 57.0382Z" fill="#3C3C3C"/>
<path d="M48.1004 46.7053C48.0026 46.6 47.885 46.5151 47.7543 46.4553C47.6237 46.3956 47.4825 46.3622 47.3389 46.3571C47.1953 46.352 47.0521 46.3753 46.9176 46.4257C46.783 46.476 46.6597 46.5525 46.5547 46.6505L44.1273 48.914C43.7202 49.2932 43.2233 49.5627 42.6834 49.6971C42.1435 49.8316 41.5783 49.8266 41.0408 49.6826C40.5034 49.5386 40.0114 49.2603 39.611 48.8739C39.2107 48.4875 38.9151 48.0057 38.7522 47.4737L37.7813 44.3001C37.7418 44.1598 37.6747 44.0289 37.5839 43.9149C37.4931 43.801 37.3804 43.7063 37.2525 43.6365C37.1246 43.5667 36.9841 43.5231 36.8391 43.5084C36.6942 43.4936 36.5478 43.508 36.4084 43.5506C36.2691 43.5933 36.1397 43.6633 36.0278 43.7567C35.9159 43.85 35.8238 43.9647 35.7569 44.0942C35.69 44.2236 35.6496 44.3651 35.6381 44.5103C35.6266 44.6556 35.6443 44.8017 35.6901 44.94L36.6609 48.1138C36.8766 48.8226 37.2354 49.4795 37.7149 50.0442C38.1945 50.6089 38.7847 51.0694 39.4491 51.3971L37.2815 59.4866C37.2064 59.7668 37.2457 60.0654 37.3908 60.3166C37.5358 60.5678 37.7747 60.7511 38.0549 60.8262C38.3351 60.9013 38.6336 60.8619 38.8849 60.7169C39.1361 60.5719 39.3194 60.333 39.3945 60.0528L41.562 51.9633C42.3013 52.0116 43.0427 51.908 43.7403 51.6587C44.438 51.4093 45.0772 51.0197 45.6184 50.5138L48.046 48.2508C48.2581 48.053 48.383 47.7791 48.3932 47.4893C48.4034 47.1995 48.298 46.9175 48.1004 46.7053Z" fill="#BFA934"/>
<path d="M37.826 74.3533L31.4871 72.6548C30.0861 72.2794 28.8916 71.3629 28.1664 70.1068C27.4412 68.8507 27.2447 67.358 27.6201 65.957L29.8848 57.5051L46.7885 62.0345L44.5238 70.4863C44.1484 71.8873 43.2319 73.0818 41.9758 73.807C40.7197 74.5322 39.227 74.7287 37.826 74.3533Z" fill="#C3E7F4" stroke="#3C3C3C" stroke-width="1.5"/>
<path d="M30.8945 56.6434L46.344 60.7831L45.7778 62.8961L30.3284 58.7564L30.8945 56.6434Z" fill="#90CFEE"/>
<path d="M29.1934 62.9813L44.6476 67.1223L44.0814 69.2352L28.6272 65.0943L29.1934 62.9813Z" fill="#90CFEE"/>
</g>
<defs>
<clipPath id="clip0_1727_11027">
<rect width="70" height="70" fill="white" transform="translate(18.1172) rotate(15)"/>
</clipPath>
</defs>
</svg>
