<svg width="76" height="64" viewBox="0 0 76 64" fill="none" xmlns="http://www.w3.org/2000/svg">
<path opacity="0.1" d="M25.826 26.5852L33.6051 41.6466C32.6796 46.3642 30.1573 50.1965 26.0378 53.1432C21.9182 56.0899 17.5124 57.1581 12.82 56.3478C8.12761 55.5375 4.68196 53.215 2.48294 49.3804C0.28391 45.5457 -0.454427 41.3029 0.267907 36.6518C1.86628 26.3598 6.56488 17.8228 14.3637 11.0404C22.1779 4.15904 31.7595 0.478916 43.1084 0L44.2057 6.89602C39.4567 8.31147 35.3287 11.0027 31.8218 14.9697C28.4239 18.854 26.4253 22.7258 25.826 26.5852ZM68.6202 33.9753L76.3994 49.0366C75.474 53.7543 72.9515 57.5865 68.832 60.5332C64.7126 63.48 60.3067 64.5482 55.6143 63.7378C50.9219 62.9276 47.4763 60.6051 45.2773 56.7704C43.0782 52.9358 42.3399 48.693 43.0623 44.0418C44.6606 33.7499 49.3592 25.2128 57.158 18.4305C64.9721 11.5491 74.5538 7.86903 85.9027 7.39005L87 14.2861C82.251 15.7016 78.1231 18.3927 74.616 22.3598C71.2182 26.2441 69.2196 30.1159 68.6202 33.9753Z" fill="#3C3C3C"/>
</svg>
