<svg width="128" height="49" viewBox="0 0 128 49" fill="none" xmlns="http://www.w3.org/2000/svg">
<g clip-path="url(#clip0_1908_4102)">
<path d="M25.2002 0.270406C24.2123 0.621857 23.4145 1.38175 22.9205 2.42661C22.6926 2.92054 22.6641 3.08202 22.6641 4.02239C22.6641 4.95326 22.6926 5.12423 22.911 5.58967C23.0535 5.87463 23.291 6.27357 23.443 6.46355C23.7659 6.85299 24.4878 7.4894 24.6208 7.4894C24.6683 7.4894 24.7063 6.96698 24.7063 6.32107C24.7063 5.26671 24.6873 5.15273 24.5163 5.03874C24.2693 4.88677 24.2598 4.34534 24.4973 4.13637C24.7348 3.9274 25.2097 3.9369 25.3997 4.14587C25.6277 4.39283 25.6087 4.89626 25.3712 5.03874C25.2002 5.15273 25.1812 5.26671 25.1812 6.46355V7.76487L25.5897 7.87885C25.8176 7.93584 26.3116 7.96434 26.758 7.93584C27.7649 7.87885 28.5627 7.5084 29.2371 6.796C30.8424 5.09574 30.7664 2.65457 29.0472 1.0683L28.4583 0.517372L28.4298 1.58122C28.4108 2.54059 28.4203 2.65457 28.6007 2.83505C28.9902 3.2245 28.7242 3.8989 28.1733 3.8989C27.6224 3.8989 27.3564 3.2245 27.7459 2.83505C27.9168 2.66407 27.9358 2.52159 27.9358 1.46724V0.289403L27.5179 0.184918C26.8625 0.0234399 25.7796 0.0614347 25.2002 0.270406Z" fill="white"/>
<path d="M0.0379947 15.9621C0.0759894 30.3431 0.0474934 29.5832 0.636412 31.5114C1.4533 34.1805 2.8686 35.7098 5.18628 36.4507C6.4496 36.8592 7.37098 36.9731 9.22322 36.9731C12.3673 36.9731 14.381 36.3367 15.8248 34.8929C16.6322 34.0855 17.1736 33.1547 17.6201 31.8059C18.2565 29.8776 18.2945 29.4502 18.2945 24.3494C18.2945 20.3125 18.2755 19.676 18.114 18.8402C17.1736 13.7679 14.628 11.7446 9.17573 11.7446C7.63694 11.7351 6.21214 11.9156 5.39525 12.2006C5.18628 12.2766 4.98681 12.3336 4.93931 12.3336C4.89182 12.3336 4.85383 11.1652 4.85383 9.74043C4.85383 6.85283 4.77784 6.3494 4.25541 5.36153C3.52401 3.98423 1.73826 2.83488 0.322955 2.83488H0L0.0379947 15.9621ZM10.2966 16.0191C10.7525 16.247 11.009 16.4465 11.2084 16.7315C11.8069 17.5958 11.7879 17.3679 11.7879 26.1731V34.1805H9.84063H7.8934L7.87441 26.914C7.84591 19.733 7.84591 19.6476 7.64644 19.4576C7.52296 19.3246 7.28549 19.2486 6.93404 19.2106C6.09815 19.1251 5.99367 19.0871 5.80369 18.7642C5.64222 18.5077 5.61372 18.2892 5.61372 17.4344C5.61372 15.6866 5.67071 15.6391 7.9409 15.6771L9.65066 15.7056L10.2966 16.0191Z" fill="white"/>
<path d="M44.7955 11.0986C39.1057 11.6115 35.8762 14.4422 35.2588 19.4575C35.1923 19.9609 35.1543 23.3614 35.1543 28.6902V37.125H38.4313H41.6989L41.7274 28.5002C41.7559 19.9039 41.7559 19.8849 41.9649 19.3815C42.6108 17.8142 43.6746 17.3297 46.5052 17.3297C48.234 17.3297 48.9179 17.4342 49.7538 17.8427C50.1907 18.0611 50.4092 18.2416 50.6276 18.5741C51.2831 19.5524 51.2451 19.068 51.2831 28.5477L51.3116 37.125H54.5791H57.8561V28.8137C57.8561 20.0464 57.8276 19.2675 57.4192 17.6527C57.1342 16.5414 56.4028 15.0311 55.7854 14.2902C54.3701 12.5899 52.2804 11.5925 49.2883 11.2031C48.2435 11.0606 45.8023 11.0036 44.7955 11.0986Z" fill="white"/>
<path d="M72.1036 11.0609C69.159 11.3173 67.2213 12.0392 65.7585 13.407C64.4287 14.6704 63.6308 16.5796 63.4883 18.8593L63.4313 19.8376H66.4234H69.4155L69.4725 19.3627C69.577 18.5173 69.7479 18.0994 70.2039 17.6434C70.8308 17.0165 71.5242 16.7886 73.063 16.7316C75.0672 16.6461 76.359 17.0735 77.0144 18.0519C77.4039 18.6408 77.5179 19.2202 77.5179 20.5975V21.7184L73.7469 21.7659C69.6815 21.8039 69.1305 21.8609 67.5063 22.3738C65.483 23.0007 63.8778 24.245 63.1559 25.7268C62.5764 26.9047 62.4055 27.674 62.3485 29.2888C62.3105 30.4857 62.3295 30.8656 62.5005 31.6635C62.9469 33.8482 64.1342 35.4155 66.034 36.3558C67.1833 36.9163 68.2567 37.2392 69.7479 37.4767C71.2582 37.7142 75.0387 37.7142 76.549 37.4767C80.8519 36.8023 83.1031 34.9595 83.806 31.5305C83.977 30.6946 83.9865 30.2482 83.9485 24.264C83.92 18.0234 83.92 17.8714 83.711 17.083C82.6756 13.1696 79.5411 11.2128 74.0414 11.0609C73.2055 11.0419 72.3411 11.0419 72.1036 11.0609ZM77.4989 28.358C77.4704 29.8967 77.4514 30.0867 77.2519 30.4952C77.0049 30.9986 76.454 31.521 75.8556 31.806C75.2762 32.0814 73.3954 32.2239 71.8662 32.1004C70.4698 31.9864 69.8429 31.7585 69.349 31.1601C68.5606 30.2102 68.6366 28.4529 69.501 27.5886C69.8524 27.2371 70.5933 26.8952 71.2487 26.7812C71.5337 26.7337 73.0725 26.6957 74.6493 26.6862L77.5369 26.6767L77.4989 28.358Z" fill="white"/>
<path d="M97.1707 11.0986C96.1068 11.2031 94.948 11.4406 94.0456 11.735C92.5923 12.2195 91.652 12.8274 90.6071 13.9387C89.4483 15.1641 88.7929 16.7123 88.5364 18.7925C88.4794 19.2865 88.4414 22.9245 88.4414 28.3577V37.125H91.7185H94.986L95.0145 28.3577C95.0525 18.3556 95.005 18.935 95.8409 18.1181C96.4963 17.4912 97.1137 17.3298 98.89 17.3298C100.077 17.3298 100.828 17.4057 101.721 17.6242L101.93 17.6717V14.5371V11.4026L101.075 11.2506C100.039 11.0606 98.282 10.9846 97.1707 11.0986Z" fill="white"/>
<path d="M23.2812 24.3968V37.125H26.5108H29.7404V24.3968V11.6685H26.5108H23.2812V24.3968Z" fill="white"/>
<path d="M104.182 12.3051C104.248 12.6661 105.122 16.8835 106.119 21.6898C108.275 32.1289 108.617 33.4587 109.586 35.2065C110.023 35.9758 110.964 36.9827 111.524 37.2677C112.303 37.6666 113.927 37.8091 115.181 37.6001C115.447 37.5621 115.665 37.5336 115.675 37.5431C115.741 37.6001 115.361 38.6735 115.077 39.2529C114.412 40.5827 113.585 41.3996 112.141 42.169C110.565 43.0144 109.368 44.5437 108.997 46.2059C108.826 46.9943 108.845 48.5426 109.035 48.7326C109.178 48.8751 111.182 48.6566 112.255 48.3716C115.58 47.5072 118.772 45.0566 120.339 42.1595C120.842 41.2381 121.336 39.9938 121.688 38.778C121.849 38.246 123.217 32.0244 124.737 24.9479C126.247 17.8809 127.52 12.0012 127.548 11.8777L127.596 11.6687H124.86H122.115L120.082 20.8634C118.961 25.9167 117.974 30.2291 117.869 30.4381C117.613 30.989 117.052 31.6159 116.682 31.7679C116.283 31.9389 115.029 31.9389 114.63 31.7679C114.203 31.597 113.832 31.1315 113.661 30.5426C113.585 30.2671 112.626 25.9167 111.543 20.8634L109.577 11.6687H106.813H104.039L104.182 12.3051Z" fill="white"/>
<path d="M9.18433 39.9368C7.88301 40.3452 7.18961 41.2666 7.18961 42.5869C7.19911 44.0022 7.91151 44.6766 10.1437 45.389C11.217 45.731 11.559 45.9874 11.464 46.3674C11.3595 46.8138 10.3527 46.9563 9.64027 46.6333C9.28882 46.4719 9.06085 46.2534 8.79489 45.8259C8.7094 45.693 8.58591 45.7405 7.77853 46.2059C7.2656 46.4909 6.84766 46.7758 6.84766 46.8233C6.84766 47.0703 7.2656 47.6877 7.70254 48.0771C9.19383 49.4164 12.1479 49.2645 13.2688 47.7922C14.0192 46.8043 13.8862 45.0661 13.0028 44.4106C12.5564 44.0782 12.2619 43.9452 10.9796 43.4988C9.4408 42.9573 9.09884 42.6059 9.65927 42.169C10.1532 41.7795 11.0841 42.0075 11.426 42.6059C11.5305 42.7769 11.635 42.9193 11.6445 42.9193C11.749 42.9193 13.4967 41.846 13.4967 41.7795C13.4967 41.7415 13.3543 41.4945 13.1833 41.2476C12.3759 40.0697 10.6281 39.4998 9.18433 39.9368Z" fill="white"/>
<path d="M25.3705 39.8892C23.8412 40.1836 22.3974 41.542 22.008 43.0617C21.6945 44.2301 21.875 45.8164 22.3974 46.7187C23.6702 48.8844 26.4438 49.6253 28.714 48.4095C29.2839 48.1055 30.2528 47.1652 30.1863 46.9657C30.1673 46.9087 29.7399 46.6143 29.2365 46.3198L28.3151 45.7784L28.1631 46.0158C27.9351 46.3578 27.2607 46.7187 26.7193 46.7852C25.2185 46.9562 24.1072 45.9398 24.1072 44.3916C24.1072 43.5557 24.3541 42.9763 24.9146 42.5013C25.7979 41.7414 27.2702 41.8269 28.0586 42.6723L28.3341 42.9573L28.923 42.6438C29.8349 42.1309 30.2148 41.8839 30.2148 41.7699C30.2148 41.7129 29.9679 41.428 29.6734 41.124C28.562 40.0222 26.9948 39.5757 25.3705 39.8892Z" fill="white"/>
<path d="M57.6941 39.9179C56.9057 40.1173 56.1553 40.5353 55.5664 41.1242C54.664 42.0266 54.2461 43.0619 54.2461 44.3917C54.2461 45.7216 54.664 46.7569 55.5664 47.6593C57.8081 49.901 61.6931 49.2361 63.0514 46.377C63.4123 45.6266 63.4123 45.6266 63.4123 44.3917C63.4123 43.1569 63.4123 43.1569 63.0514 42.4065C62.111 40.4213 59.8788 39.3859 57.6941 39.9179ZM60.0783 42.2925C62.0445 43.4419 61.3701 46.5859 59.1189 46.7854C58.0646 46.8804 57.2477 46.4624 56.7727 45.5791C56.5353 45.1516 56.4973 44.9617 56.4973 44.3917C56.4973 42.8909 57.5231 41.9221 59.0144 41.9981C59.4799 42.0266 59.7553 42.1026 60.0783 42.2925Z" fill="white"/>
<path d="M75.2683 39.9179C74.4799 40.1173 73.7295 40.5353 73.1406 41.1242C72.2383 42.0266 71.8203 43.0619 71.8203 44.3917C71.8203 45.7216 72.2383 46.7569 73.1406 47.6593C75.3823 49.901 79.2673 49.2361 80.6256 46.377C80.9865 45.6266 80.9865 45.6266 80.9865 44.3917C80.9865 43.1569 80.9865 43.1569 80.6256 42.4065C79.6852 40.4213 77.453 39.3859 75.2683 39.9179ZM77.6525 42.2925C79.6187 43.4419 78.9443 46.5859 76.6931 46.7854C75.6388 46.8804 74.8219 46.4624 74.347 45.5791C74.1095 45.1516 74.0715 44.9617 74.0715 44.3917C74.0715 42.8909 75.0974 41.9221 76.5887 41.9981C77.0541 42.0266 77.3295 42.1026 77.6525 42.2925Z" fill="white"/>
<path d="M38.5742 44.3917V48.8086H39.7141H40.8539V47.0988V45.3891H42.0887H43.3236V47.0988V48.8086H44.4634H45.6032V44.3917V39.9748H44.4634H43.3236V41.5896V43.2044H42.0887H40.8539V41.5896V39.9748H39.7141H38.5742V44.3917Z" fill="white"/>
<path d="M89.6758 44.3917V48.8086H92.3354H94.995V47.7162V46.6239H93.4753H91.9555V43.2994V39.9748H90.8156H89.6758V44.3917Z" fill="white"/>
</g>
<defs>
<clipPath id="clip0_1908_4102">
<rect width="128" height="49" fill="white"/>
</clipPath>
</defs>
</svg>
