<svg width="160" height="135" viewBox="0 0 160 135" fill="none" xmlns="http://www.w3.org/2000/svg">
<g clip-path="url(#clip0_1558_4612)">
<path d="M98.851 55.2102C98.0674 44.1669 89.2707 37.0399 77.5703 38.2804C69.5374 39.1257 61.86 45.4683 61.3333 53.6595C61.3245 53.8014 61.3618 53.9473 61.4452 54.0973C61.5418 54.2676 61.6186 54.2595 61.6757 54.073C63.7212 47.0433 68.1064 42.6872 74.8312 41.0048C86.5251 38.0798 96.474 44.5014 98.8707 55.4777C98.8707 55.4955 98.8784 55.5125 98.8919 55.525C98.9055 55.5376 98.924 55.5446 98.9432 55.5446C98.9624 55.5446 98.9808 55.5376 98.9944 55.525C99.008 55.5125 99.0156 55.4955 99.0156 55.4777C99.0288 55.4169 99.0046 55.3723 98.9432 55.3439C98.8861 55.3156 98.8554 55.271 98.851 55.2102Z" stroke="#AAAAAA" stroke-width="2.1"/>
<path d="M73.1003 72.5351C73.0293 72.6716 72.9032 72.7771 72.7484 72.8293C72.5936 72.8815 72.4223 72.8763 72.2706 72.8148C60.5505 68.0655 55.5332 55.6784 62.3546 45.3953C62.4336 45.2817 62.4533 45.15 62.4138 45C62.3743 44.8378 62.2997 44.8236 62.19 44.9574C51.464 57.9162 58.9439 74.7121 75.4048 78.6648C75.4885 78.6841 75.5759 78.6843 75.6597 78.6654C75.7435 78.6466 75.8211 78.6092 75.8858 78.5566C75.9506 78.504 76.0005 78.4377 76.0314 78.3633C76.0623 78.289 76.0732 78.2088 76.0632 78.1297C75.4179 73.2811 76.2103 68.623 78.4402 64.1554C79.1974 62.6351 78.7628 61.65 77.7356 60.4763C74.72 57.0405 71.7241 54.7236 68.9587 51.002C68.2476 50.0473 67.7603 48.7581 67.0361 47.6696C67.014 47.6411 66.9824 47.6201 66.9461 47.61C66.9098 47.6 66.8709 47.6013 66.8355 47.6138C66.8001 47.6263 66.7702 47.6493 66.7505 47.6792C66.7308 47.7091 66.7224 47.7442 66.7266 47.779C67.6023 51.823 69.5908 55.429 72.3035 58.6703C75.8064 62.848 75.4179 68.0534 73.1003 72.5351Z" stroke="#AAAAAA" stroke-width="2.1"/>
<path d="M87.0126 72.4986C85.4126 69.3425 84.1813 63.5716 86.6768 60.4216C89.9887 56.2439 92.6093 52.3155 93.3467 47.7729C93.3489 47.7398 93.3388 47.707 93.3181 47.6799C93.2974 47.6528 93.2673 47.633 93.2328 47.6238C93.1983 47.6146 93.1615 47.6165 93.1283 47.6293C93.0952 47.642 93.0677 47.6648 93.0504 47.6939C91.0949 51.8412 88.2438 54.3405 85.1031 57.6121C83.2244 59.5702 81.9009 61.1554 81.1327 62.3675C78.5385 66.454 76.0298 73.8851 77.8274 78.6527C77.902 78.8432 78.049 78.9425 78.2685 78.9506C86.5912 79.3358 93.2743 76.5486 98.3179 70.5891C104.665 63.0912 104.573 52.127 97.7977 44.8905C97.7846 44.8783 97.7868 44.8682 97.8043 44.8601C98.6691 44.3695 98.6362 44.3878 97.7056 44.9148C97.6661 44.9391 97.6573 44.9716 97.6792 45.0121C104.468 55.3439 99.8521 68.1385 87.8751 72.8087C87.4801 72.9587 87.1925 72.8554 87.0126 72.4986Z" stroke="#AAAAAA" stroke-width="2.1"/>
<path d="M74.957 50.3089C75.2028 50.2968 75.3981 50.3596 75.543 50.4975C75.6703 50.6231 75.7318 50.8238 75.7274 51.0995C75.6659 53.2603 75.8415 54.7643 76.2541 55.6116C77.3734 57.9285 80.0072 58.9137 82.3842 57.4968C84.3529 56.3292 84.5767 52.8569 84.4516 51.0083C84.4445 50.9092 84.4586 50.8098 84.4932 50.7158C84.5277 50.6218 84.582 50.535 84.653 50.4604C84.724 50.3858 84.8102 50.3249 84.9067 50.2812C85.0032 50.2374 85.1081 50.2117 85.2154 50.2056L88.5405 49.9988C88.6049 49.9932 88.6656 49.9687 88.7138 49.9289C88.762 49.8891 88.7951 49.8361 88.8084 49.7776C88.8216 49.7192 88.8142 49.6584 88.7874 49.6041C88.7605 49.5498 88.7155 49.5048 88.659 49.4758L80.3364 45.5049C80.257 45.467 80.169 45.4473 80.0796 45.4473C79.9903 45.4473 79.9022 45.467 79.8228 45.5049L71.52 49.4211C71.4713 49.4419 71.4312 49.4766 71.4055 49.5201C71.3799 49.5636 71.37 49.6135 71.3774 49.6625C71.3848 49.7116 71.409 49.7571 71.4465 49.7925C71.484 49.8278 71.5329 49.8511 71.5858 49.8589L73.3241 50.163C73.4262 50.1796 73.5191 50.2285 73.5874 50.3015C73.6557 50.3745 73.6952 50.4673 73.6994 50.5643L73.7652 52.4373C73.7659 52.5152 73.7949 52.5906 73.8477 52.6513C73.9004 52.7121 73.9737 52.7547 74.0559 52.7723C74.138 52.7898 74.2242 52.7813 74.3005 52.7481C74.3767 52.715 74.4387 52.659 74.4763 52.5893C74.788 52.0177 74.8231 51.436 74.5817 50.8441C74.4412 50.5035 74.5663 50.3252 74.957 50.3089Z" stroke="#AAAAAA" stroke-width="2.1"/>
<path d="M63.6174 81.9182C63.6174 81.7977 63.5917 81.6783 63.5417 81.5668C63.4917 81.4554 63.4185 81.3542 63.3262 81.269C63.2339 81.1837 63.1243 81.116 63.0036 81.0699C62.883 81.0238 62.7537 81 62.6231 81C62.4926 81 62.3633 81.0238 62.2427 81.0699C62.122 81.116 62.0124 81.1837 61.9201 81.269C61.8278 81.3542 61.7546 81.4554 61.7046 81.5668C61.6546 81.6783 61.6289 81.7977 61.6289 81.9182C61.6289 82.0388 61.6546 82.1582 61.7046 82.2696C61.7546 82.3811 61.8278 82.4823 61.9201 82.5675C62.0124 82.6528 62.122 82.7204 62.2427 82.7666C62.3633 82.8127 62.4926 82.8365 62.6231 82.8365C62.8868 82.8365 63.1397 82.7397 63.3262 82.5675C63.5126 82.3953 63.6174 82.1618 63.6174 81.9182Z" stroke="#AAAAAA" stroke-width="2.1"/>
<path d="M53.2808 89.2703C52.4643 87.9629 53.9853 87.0325 55.0059 87.9629C55.2122 88.1493 55.2583 88.3662 55.1442 88.6135L54.8544 89.2581C54.8327 89.3053 54.8239 89.3568 54.8289 89.4079C54.834 89.459 54.8527 89.5082 54.8833 89.551C54.914 89.5937 54.9557 89.6288 55.0047 89.6531C55.0536 89.6773 55.1083 89.69 55.1639 89.6899L57.8964 89.6838C58.173 89.6838 58.252 89.5683 58.1335 89.3372L55.1442 83.4325C55.0935 83.3304 55.0117 83.2442 54.9088 83.1845C54.8059 83.1247 54.6864 83.0939 54.5649 83.0958C54.4433 83.0977 54.325 83.1323 54.2244 83.1954C54.1239 83.2584 54.0453 83.3471 53.9985 83.4507L51.3516 89.3311C51.2243 89.6149 51.3274 89.7568 51.661 89.7568H52.9779C53.3861 89.7568 53.4871 89.5946 53.2808 89.2703Z" stroke="#AAAAAA" stroke-width="2.1"/>
<path d="M37.6491 85.7313L38.1232 84.9894C38.2286 84.8192 38.2593 84.6388 38.2154 84.4482C37.8072 82.6969 34.6993 83.1773 32.7175 83.2138C32.476 83.2178 32.4036 83.3212 32.5002 83.5239C33.4395 85.4496 33.433 87.3631 32.4804 89.2644C32.3751 89.4793 32.4475 89.5928 32.6977 89.605C34.7652 89.7347 36.2072 89.6982 37.0236 89.4955C38.6961 89.0881 39.0911 87.3002 37.7611 86.309C37.546 86.1469 37.5087 85.9543 37.6491 85.7313Z" stroke="#AAAAAA" stroke-width="2.1"/>
<path d="M44.6675 87.0383C45.9449 88.595 45.9383 89.8842 48.5984 89.6592C48.6488 89.6549 48.6969 89.6376 48.7372 89.6092C48.7774 89.5808 48.8082 89.5426 48.8261 89.4988C48.8439 89.4551 48.8481 89.4076 48.8381 89.3617C48.8281 89.3159 48.8044 89.2736 48.7696 89.2396L46.5243 87.0443C46.4495 86.9715 46.4055 86.8764 46.4007 86.7768C46.3958 86.6772 46.4304 86.5799 46.498 86.5031L47.6371 85.2018C47.76 85.0639 47.7973 84.9078 47.749 84.7335C47.163 82.7511 44.3581 83.122 42.1786 83.2193C41.9372 83.2274 41.8626 83.3349 41.9548 83.5416C42.8195 85.4673 42.7998 87.395 41.8955 89.3247C41.7814 89.572 41.8714 89.6937 42.1655 89.6896L44.6017 89.641C44.6743 89.6395 44.7448 89.6184 44.8044 89.5801C44.864 89.5418 44.91 89.4882 44.9368 89.4258C44.9635 89.3635 44.9697 89.2952 44.9546 89.2297C44.9395 89.1641 44.9038 89.1041 44.8519 89.0572C44.2637 88.5139 44.0574 87.8714 44.233 87.1295C44.242 87.0867 44.2643 87.0472 44.2972 87.0159C44.33 86.9846 44.372 86.9628 44.4181 86.9532C44.4641 86.9435 44.5122 86.9464 44.5565 86.9615C44.6008 86.9766 44.6393 87.0033 44.6675 87.0383Z" stroke="#AAAAAA" stroke-width="2.1"/>
<path d="M62.3923 83.2379L61.3322 83.1284C60.9942 83.096 60.8932 83.2237 61.0293 83.5115C61.9511 85.4412 61.9621 87.3649 61.0622 89.2825C60.9349 89.5541 61.0337 89.6899 61.3585 89.6899L64.0252 89.6777C64.2798 89.6737 64.35 89.5662 64.2359 89.3554C63.1824 87.45 63.1626 85.5304 64.1766 83.5966C64.2776 83.402 64.2183 83.2642 63.9988 83.1831C63.6608 83.0574 63.3031 83.0574 62.9256 83.1831C62.7544 83.2399 62.5766 83.2581 62.3923 83.2379Z" stroke="#AAAAAA" stroke-width="2.1"/>
<path d="M69.4645 86.0048L72.9607 89.6291C73.0256 89.6984 73.1118 89.7478 73.2078 89.7707C73.3039 89.7936 73.4052 89.7888 73.4982 89.7571C73.5913 89.7254 73.6716 89.6682 73.7286 89.5931C73.7855 89.5181 73.8162 89.4288 73.8167 89.3372L73.8957 84.5028C73.898 84.4019 73.9239 84.3029 73.9717 84.2125C74.0194 84.1222 74.0879 84.0428 74.1723 83.9798L74.7056 83.5784C74.7459 83.5476 74.7749 83.5061 74.789 83.4596C74.803 83.413 74.8013 83.3636 74.7841 83.318C74.767 83.2724 74.7351 83.2327 74.6928 83.2043C74.6505 83.1758 74.5999 83.16 74.5476 83.1588L72.2628 83.1224C72.1975 83.1218 72.1336 83.14 72.08 83.1743C72.0263 83.2087 71.9855 83.2576 71.9631 83.3142C71.9407 83.3709 71.9379 83.4325 71.955 83.4907C71.9721 83.5489 72.0084 83.6008 72.0587 83.6392C72.941 84.2919 73.1649 85.1433 72.7303 86.1933C72.713 86.2348 72.684 86.2713 72.6464 86.299C72.6087 86.3267 72.5636 86.3446 72.5159 86.3508C72.4682 86.357 72.4196 86.3513 72.3751 86.3343C72.3306 86.3173 72.2918 86.2896 72.2628 86.2541C71.4727 85.273 70.5531 84.3791 69.504 83.5723C68.2573 82.6115 67.7459 82.8751 67.9698 84.3629C68.2332 86.1142 68.0752 87.7622 67.4957 89.3068C67.3904 89.5906 67.5001 89.7325 67.8249 89.7325L69.4513 89.7264C69.5116 89.7272 69.5711 89.713 69.6234 89.6852C69.6757 89.6575 69.719 89.6172 69.7486 89.5687C69.7783 89.5201 69.7932 89.4651 69.7919 89.4094C69.7905 89.3537 69.7729 89.2994 69.741 89.2521C69.1089 88.2913 68.9092 87.2352 69.1418 86.0838C69.1901 85.8528 69.2977 85.8264 69.4645 86.0048Z" stroke="#AAAAAA" stroke-width="2.1"/>
<path d="M80.3165 88.4431L79.5922 87.3729C79.5542 87.3122 79.4955 87.2649 79.4252 87.2384C79.3549 87.212 79.2772 87.2078 79.204 87.2266C79.1309 87.2454 79.0667 87.2861 79.0213 87.3423C78.976 87.3985 78.9521 87.467 78.9535 87.537L78.9469 88.8019C78.9426 89.0168 79.0479 89.1688 79.263 89.258C80.7181 89.8661 83.7996 89.8235 84.0959 87.908C84.3659 86.108 82.1206 85.8161 80.8367 85.1046C80.7877 85.0764 80.7453 85.0396 80.7118 84.9964C80.6783 84.9532 80.6544 84.9044 80.6415 84.8529C80.6286 84.8014 80.627 84.7482 80.6368 84.6964C80.6466 84.6446 80.6675 84.5953 80.6984 84.5512C81.0364 84.0729 81.5017 83.8904 82.0943 84.0039C82.1901 84.0227 82.28 84.0622 82.3566 84.1192C82.4332 84.1763 82.4945 84.2492 82.5354 84.3323C82.9349 85.1431 83.376 85.2303 83.8589 84.5938C83.9182 84.516 83.9586 84.4273 83.9774 84.3337C83.9963 84.2402 83.9931 84.144 83.9681 84.0517C83.9431 83.9594 83.8969 83.8731 83.8326 83.7988C83.7683 83.7244 83.6875 83.6637 83.5955 83.6208C81.9362 82.8425 80.4987 83.035 79.2828 84.1985C79.1104 84.363 78.9821 84.5624 78.9082 84.7808C78.8343 84.9992 78.8168 85.2306 78.8571 85.4564C78.8974 85.6823 78.9944 85.8962 79.1404 86.0812C79.2863 86.2661 79.4772 86.4169 79.6976 86.5215L81.9165 87.5796C81.9769 87.6085 82.0305 87.6481 82.0742 87.6962C82.1179 87.7443 82.1508 87.8 82.171 87.86C82.1912 87.9199 82.1983 87.983 82.1919 88.0455C82.1856 88.1081 82.1658 88.1688 82.1338 88.2242C81.945 88.5688 81.6575 88.7715 81.2712 88.8323C80.8586 88.9012 80.5404 88.7715 80.3165 88.4431Z" stroke="#AAAAAA" stroke-width="2.1"/>
<path d="M91.752 83.8765C92.4631 83.9941 92.8845 84.4035 93.0162 85.1049C93.0272 85.1758 93.0656 85.2407 93.1243 85.2876C93.1829 85.3346 93.2579 85.3604 93.3355 85.3604C93.4131 85.3604 93.4881 85.3346 93.5468 85.2876C93.6054 85.2407 93.6438 85.1758 93.6549 85.1049C93.9116 83.6637 93.5166 83.1468 91.9297 83.1346C90.411 83.1184 88.8856 83.1367 87.3536 83.1894C87.2429 83.1924 87.1368 83.2312 87.0538 83.299C86.9708 83.3667 86.9162 83.4592 86.8993 83.5603L86.6886 84.9042C86.6807 84.9582 86.6883 85.0132 86.7107 85.0637C86.7331 85.1141 86.7695 85.1582 86.8162 85.1915C86.863 85.2248 86.9184 85.2461 86.9769 85.2533C87.0354 85.2606 87.0949 85.2534 87.1495 85.2326C87.6192 85.0461 87.887 84.7299 87.9528 84.284C87.9789 84.1181 88.0724 83.9671 88.2141 83.8615C88.3559 83.7559 88.5354 83.7036 88.7163 83.7152C88.8971 83.7268 89.0658 83.8014 89.1881 83.924C89.3105 84.0465 89.3773 84.2078 89.375 84.3752L89.3684 88.1637C89.3685 88.2611 89.3461 88.3571 89.303 88.4452C89.2598 88.5333 89.1968 88.6115 89.1182 88.6745L88.4795 89.1853C88.4338 89.223 88.4012 89.2726 88.386 89.3276C88.3708 89.3826 88.3738 89.4403 88.3945 89.4932C88.4152 89.546 88.4527 89.5913 88.502 89.6232C88.5513 89.6552 88.6101 89.6721 88.6705 89.6718L92.0088 89.6839C92.066 89.6848 92.122 89.6689 92.1688 89.6384C92.2156 89.6079 92.2507 89.5645 92.269 89.5145C92.2873 89.4644 92.2879 89.4102 92.2707 89.3598C92.2535 89.3094 92.2194 89.2653 92.1734 89.234L91.5874 88.8265C91.3942 88.6927 91.2977 88.5144 91.2977 88.2914L91.3174 84.211C91.3175 84.1612 91.3294 84.112 91.3524 84.0669C91.3753 84.0218 91.4086 83.9819 91.4501 83.95C91.4915 83.9181 91.54 83.895 91.5922 83.8823C91.6444 83.8696 91.6989 83.8676 91.752 83.8765Z" stroke="#AAAAAA" stroke-width="2.1"/>
<path d="M104.01 85.5469C103.778 84.7092 103.175 83.9958 102.332 83.5634C101.489 83.1311 100.475 83.0154 99.5139 83.2416C99.038 83.3537 98.5893 83.5463 98.1934 83.8085C97.7975 84.0708 97.4622 84.3975 97.2066 84.77C96.9511 85.1425 96.7802 85.5535 96.7038 85.9796C96.6275 86.4057 96.6471 86.8385 96.7616 87.2533C96.9928 88.0909 97.5963 88.8044 98.4394 89.2367C99.2825 89.669 100.296 89.7848 101.257 89.5585C101.733 89.4465 102.182 89.2539 102.578 88.9916C102.974 88.7294 103.309 88.4027 103.565 88.0302C103.82 87.6577 103.991 87.2466 104.067 86.8205C104.144 86.3945 104.124 85.9617 104.01 85.5469Z" stroke="#AAAAAA" stroke-width="2.1"/>
<path d="M110.124 86.9959L111.322 89.0392C111.359 89.1036 111.411 89.1594 111.475 89.2026C111.539 89.2458 111.613 89.2752 111.691 89.2885L114.015 89.7142C114.068 89.7223 114.123 89.715 114.171 89.6932C114.219 89.6714 114.258 89.6363 114.284 89.5927C114.309 89.5491 114.319 89.4993 114.312 89.4502C114.306 89.4011 114.282 89.3552 114.246 89.3189L111.797 86.9959C111.72 86.9242 111.676 86.8276 111.675 86.7266C111.673 86.6256 111.715 86.5281 111.79 86.4547L113.041 85.2446C113.107 85.1799 113.154 85.1001 113.177 85.0127C113.2 84.9254 113.199 84.8335 113.173 84.7459C112.58 82.8 109.446 83.0797 107.615 83.1892C107.378 83.2054 107.306 83.3128 107.398 83.5115C108.302 85.4737 108.274 87.4318 107.313 89.3858C107.216 89.5804 107.282 89.6757 107.51 89.6716L109.927 89.6291C109.99 89.6282 110.051 89.6113 110.104 89.5803C110.158 89.5492 110.201 89.5051 110.229 89.4529C110.257 89.4007 110.268 89.3424 110.263 89.2845C110.257 89.2265 110.234 89.1711 110.197 89.1243C109.705 88.5243 109.523 87.8412 109.65 87.075C109.659 87.0273 109.684 86.9833 109.721 86.9489C109.758 86.9146 109.806 86.8916 109.857 86.883C109.909 86.8744 109.962 86.8806 110.01 86.9008C110.058 86.921 110.097 86.9542 110.124 86.9959Z" stroke="#AAAAAA" stroke-width="2.1"/>
<path d="M123.733 85.7066C123.94 86.935 123.795 88.1127 123.299 89.2397C123.277 89.2874 123.268 89.3394 123.274 89.391C123.279 89.4426 123.298 89.4921 123.33 89.5351C123.361 89.578 123.404 89.613 123.453 89.6368C123.503 89.6606 123.559 89.6725 123.615 89.6714L126.4 89.6532C126.446 89.6538 126.491 89.6417 126.53 89.6183C126.568 89.595 126.599 89.5615 126.616 89.5222C126.634 89.483 126.639 89.4397 126.629 89.398C126.62 89.3563 126.598 89.3181 126.565 89.2883L126.031 88.7897C125.825 88.5991 125.713 88.3701 125.696 88.1025L125.465 84.7093C125.459 84.6197 125.473 84.5304 125.507 84.4474C125.541 84.3644 125.594 84.2899 125.663 84.2289L126.216 83.7241C126.272 83.6717 126.309 83.6046 126.323 83.532C126.337 83.4593 126.327 83.3846 126.294 83.3181C126.261 83.2516 126.206 83.1965 126.138 83.1604C126.07 83.1242 125.991 83.1087 125.913 83.116L123.865 83.2924C123.637 83.3127 123.479 83.4201 123.391 83.6147L121.916 86.8802C121.745 87.2572 121.567 87.2572 121.383 86.8802L119.783 83.56C119.682 83.3491 119.509 83.2377 119.263 83.2255L117.347 83.1343C116.89 83.11 116.807 83.262 117.096 83.5904L117.584 84.1559C117.707 84.2934 117.772 84.4704 117.768 84.6545L117.676 88.5708C117.672 88.6724 117.624 88.7685 117.544 88.8383L117.044 89.2701C117.005 89.3025 116.977 89.3451 116.965 89.3923C116.953 89.4395 116.957 89.489 116.977 89.534C116.996 89.5791 117.03 89.6176 117.074 89.6443C117.117 89.6711 117.169 89.6848 117.222 89.6836L118.848 89.6654C119.208 89.6613 119.298 89.5154 119.118 89.2275C118.49 88.214 118.363 87.1336 118.736 85.9863C118.841 85.6701 118.969 85.664 119.118 85.9681L120.757 89.3917C120.8 89.4771 120.868 89.5493 120.953 89.5998C121.039 89.6503 121.139 89.6768 121.24 89.6762C121.342 89.6755 121.441 89.6477 121.526 89.5962C121.611 89.5446 121.678 89.4715 121.719 89.3856L123.477 85.6762C123.6 85.4167 123.685 85.4268 123.733 85.7066Z" stroke="#AAAAAA" stroke-width="2.1"/>
<path d="M53.841 85.7616C53.5776 86.0373 53.5315 86.3352 53.7027 86.6555C53.7672 86.754 53.8687 86.8271 53.9878 86.8608C54.107 86.8946 54.2354 86.8866 54.3486 86.8385C54.4618 86.7903 54.5518 86.7054 54.6015 86.5999C54.6512 86.4943 54.657 86.3756 54.6179 86.2663L54.4336 85.8528C54.2843 85.5325 54.0868 85.5021 53.841 85.7616Z" stroke="#AAAAAA" stroke-width="2.1"/>
<path d="M35.4185 85.8001C35.648 85.8201 35.8783 85.7399 36.0587 85.5769C36.239 85.4139 36.3548 85.1817 36.3804 84.9312C36.4061 84.6807 36.3395 84.4325 36.1953 84.2413C36.0512 84.05 35.8413 83.9313 35.6118 83.9112C35.3823 83.8912 35.1521 83.9715 34.9717 84.1345C34.7913 84.2974 34.6755 84.5297 34.6499 84.7801C34.6243 85.0306 34.6909 85.2788 34.835 85.4701C34.9791 85.6614 35.189 85.7801 35.4185 85.8001Z" stroke="#AAAAAA" stroke-width="2.1"/>
<path d="M36.7804 87.8229C36.7804 87.5697 36.6715 87.3268 36.4776 87.1478C36.2837 86.9687 36.0208 86.8682 35.7466 86.8682C35.4725 86.8682 35.2095 86.9687 35.0157 87.1478C34.8218 87.3268 34.7129 87.5697 34.7129 87.8229C34.7129 87.9483 34.7396 88.0724 34.7916 88.1882C34.8435 88.3041 34.9197 88.4093 35.0157 88.498C35.1117 88.5866 35.2256 88.657 35.351 88.7049C35.4765 88.7529 35.6109 88.7776 35.7466 88.7776C35.8824 88.7776 36.0168 88.7529 36.1422 88.7049C36.2677 88.657 36.3816 88.5866 36.4776 88.498C36.5736 88.4093 36.6497 88.3041 36.7017 88.1882C36.7536 88.0724 36.7804 87.9483 36.7804 87.8229Z" stroke="#AAAAAA" stroke-width="2.1"/>
<path d="M44.0945 84.3385L44.18 85.4817C44.1826 85.5177 44.1927 85.5528 44.21 85.5852C44.2272 85.6175 44.2512 85.6463 44.2806 85.6701C44.31 85.6938 44.3441 85.7119 44.3811 85.7234C44.4181 85.7349 44.4572 85.7396 44.4961 85.7371L44.6014 85.725C44.9441 85.7031 45.2669 85.6018 45.4989 85.4433C45.731 85.2849 45.8534 85.0822 45.8393 84.8797L45.8261 84.7216C45.8186 84.6209 45.7776 84.5234 45.7053 84.4346C45.633 84.3459 45.5309 84.2676 45.4049 84.2043C45.2789 84.1411 45.1314 84.094 44.9709 84.0659C44.8104 84.0378 44.6401 84.0291 44.4698 84.0405L44.371 84.0466C44.3321 84.0489 44.294 84.0583 44.259 84.0742C44.224 84.0902 44.1928 84.1123 44.1671 84.1395C44.1414 84.1666 44.1217 84.1981 44.1093 84.2323C44.0968 84.2664 44.0918 84.3025 44.0945 84.3385Z" stroke="#AAAAAA" stroke-width="2.1"/>
<path d="M100.616 88.6996C101.033 88.6618 101.407 88.3775 101.655 87.9093C101.903 87.4411 102.005 86.8273 101.939 86.2029C101.872 85.5786 101.643 84.9948 101.301 84.58C100.959 84.1652 100.533 83.9534 100.116 83.9911C99.6988 84.0289 99.3251 84.3132 99.0771 84.7814C98.829 85.2496 98.7269 85.8634 98.7932 86.4878C98.8595 87.1121 99.0887 87.6959 99.4305 88.1107C99.7723 88.5255 100.199 88.7373 100.616 88.6996Z" stroke="#AAAAAA" stroke-width="2.1"/>
<path d="M109.629 84.1439V85.5791C109.629 85.6441 109.656 85.7067 109.706 85.7532C109.755 85.7998 109.822 85.8268 109.892 85.8284H110.011C110.171 85.8292 110.331 85.8072 110.479 85.7635C110.628 85.7199 110.763 85.6555 110.877 85.5741C110.991 85.4927 111.081 85.3959 111.143 85.2893C111.204 85.1826 111.236 85.0682 111.235 84.9527V84.7703C111.235 84.5391 111.107 84.3173 110.88 84.1533C110.653 83.9892 110.346 83.8963 110.024 83.8946H109.905C109.869 83.8938 109.834 83.8996 109.8 83.9118C109.767 83.924 109.736 83.9422 109.71 83.9654C109.685 83.9887 109.664 84.0164 109.65 84.0471C109.636 84.0777 109.629 84.1107 109.629 84.1439Z" stroke="#AAAAAA" stroke-width="2.1"/>
<path d="M0.580078 0H160.001V135H0.580078V0ZM98.8517 55.2101C98.0681 44.1669 89.2714 37.0399 77.571 38.2804C69.5381 39.1257 61.8607 45.4682 61.334 53.6595C61.3252 53.8013 61.3625 53.9473 61.4459 54.0973C61.5425 54.2676 61.6193 54.2595 61.6764 54.073C63.7219 47.0432 68.1071 42.6872 74.8319 41.0047C86.5258 38.0797 96.4747 44.5014 98.8714 55.4777C98.8714 55.4954 98.8791 55.5125 98.8926 55.525C98.9062 55.5375 98.9247 55.5446 98.9439 55.5446C98.9631 55.5446 98.9815 55.5375 98.9951 55.525C99.0087 55.5125 99.0163 55.4954 99.0163 55.4777C99.0295 55.4169 99.0053 55.3723 98.9439 55.3439C98.8868 55.3155 98.8561 55.2709 98.8517 55.2101ZM73.1002 72.5351C73.0293 72.6716 72.9032 72.7771 72.7484 72.8293C72.5936 72.8815 72.4223 72.8763 72.2706 72.8149C60.5505 68.0655 55.5332 55.6784 62.3546 45.3953C62.4336 45.2818 62.4533 45.15 62.4138 45C62.3743 44.8378 62.2997 44.8237 62.19 44.9574C51.464 57.9162 58.9439 74.7122 75.4048 78.6649C75.4885 78.6841 75.5759 78.6843 75.6597 78.6654C75.7435 78.6466 75.8211 78.6092 75.8858 78.5566C75.9505 78.504 76.0005 78.4377 76.0314 78.3633C76.0623 78.289 76.0732 78.2088 76.0632 78.1297C75.4179 73.2811 76.2103 68.623 78.4402 64.1554C79.1974 62.6351 78.7628 61.65 77.7356 60.4763C74.72 57.0405 71.7241 54.7236 68.9587 51.002C68.2476 50.0473 67.7603 48.7581 67.036 47.6696C67.014 47.6411 66.9824 47.6202 66.9461 47.6101C66.9098 47.6 66.8709 47.6013 66.8355 47.6138C66.8001 47.6263 66.7702 47.6493 66.7505 47.6793C66.7308 47.7092 66.7224 47.7443 66.7266 47.7791C67.6023 51.823 69.5908 55.4291 72.3035 58.6703C75.8064 62.848 75.4179 68.0534 73.1002 72.5351ZM87.013 72.4986C85.413 69.3426 84.1817 63.5716 86.6772 60.4216C89.9891 56.2439 92.6097 52.3155 93.3472 47.773C93.3493 47.7399 93.3393 47.7071 93.3186 47.68C93.2979 47.6529 93.2678 47.6331 93.2333 47.6239C93.1988 47.6147 93.1619 47.6166 93.1288 47.6293C93.0956 47.6421 93.0681 47.6648 93.0509 47.6939C91.0953 51.8412 88.2443 54.3405 85.1035 57.6122C83.2248 59.5703 81.9013 61.1554 81.1332 62.3676C78.5389 66.454 76.0303 73.8851 77.8278 78.6527C77.9024 78.8432 78.0495 78.9426 78.269 78.9507C86.5916 79.3358 93.2747 76.5487 98.3184 70.5892C104.666 63.0912 104.573 52.127 97.7982 44.8905C97.785 44.8784 97.7872 44.8682 97.8048 44.8601C98.6695 44.3696 98.6366 44.3878 97.706 44.9149C97.6665 44.9392 97.6577 44.9716 97.6797 45.0122C104.468 55.3439 99.8525 68.1385 87.8756 72.8088C87.4805 72.9588 87.193 72.8554 87.013 72.4986ZM74.957 50.3088C75.2029 50.2966 75.3982 50.3595 75.543 50.4973C75.6703 50.623 75.7318 50.8236 75.7274 51.0993C75.666 53.2601 75.8415 54.7642 76.2542 55.6115C77.3735 57.9284 80.0072 58.9135 82.3842 57.4966C84.3529 56.3291 84.5768 52.8568 84.4517 51.0081C84.4445 50.909 84.4587 50.8096 84.4932 50.7156C84.5278 50.6216 84.5821 50.5348 84.653 50.4602C84.724 50.3857 84.8102 50.3247 84.9067 50.281C85.0033 50.2373 85.1082 50.2116 85.2155 50.2054L88.5406 49.9986C88.6049 49.993 88.6656 49.9685 88.7138 49.9287C88.762 49.8889 88.7952 49.8359 88.8084 49.7775C88.8216 49.719 88.8143 49.6582 88.7874 49.6039C88.7606 49.5496 88.7156 49.5047 88.6591 49.4757L80.3365 45.5047C80.2571 45.4669 80.169 45.4471 80.0797 45.4471C79.9903 45.4471 79.9023 45.4669 79.8229 45.5047L71.52 49.4209C71.4714 49.4418 71.4313 49.4765 71.4056 49.5199C71.3799 49.5634 71.37 49.6133 71.3774 49.6624C71.3848 49.7114 71.409 49.757 71.4466 49.7923C71.4841 49.8277 71.5329 49.851 71.5858 49.8588L73.3241 50.1628C73.4263 50.1795 73.5192 50.2283 73.5875 50.3014C73.6557 50.3744 73.6953 50.4671 73.6994 50.5642L73.7653 52.4372C73.7659 52.515 73.795 52.5904 73.8477 52.6512C73.9004 52.7119 73.9738 52.7545 74.0559 52.7721C74.1381 52.7897 74.2242 52.7812 74.3005 52.748C74.3768 52.7148 74.4387 52.6589 74.4764 52.5892C74.788 52.0176 74.8232 51.4358 74.5817 50.8439C74.4413 50.5034 74.5664 50.325 74.957 50.3088ZM63.6188 81.9182C63.6188 81.7977 63.593 81.6782 63.5431 81.5668C63.4931 81.4554 63.4199 81.3542 63.3276 81.269C63.2352 81.1837 63.1256 81.116 63.005 81.0699C62.8844 81.0238 62.7551 81 62.6245 81C62.494 81 62.3647 81.0238 62.244 81.0699C62.1234 81.116 62.0138 81.1837 61.9215 81.269C61.8292 81.3542 61.7559 81.4554 61.706 81.5668C61.656 81.6782 61.6303 81.7977 61.6303 81.9182C61.6303 82.0388 61.656 82.1582 61.706 82.2696C61.7559 82.3811 61.8292 82.4823 61.9215 82.5675C62.0138 82.6528 62.1234 82.7204 62.244 82.7666C62.3647 82.8127 62.494 82.8365 62.6245 82.8365C62.8882 82.8365 63.1411 82.7397 63.3276 82.5675C63.514 82.3953 63.6188 82.1618 63.6188 81.9182ZM53.2813 89.2703C52.4649 87.9628 53.9858 87.0324 55.0064 87.9628C55.2127 88.1493 55.2588 88.3662 55.1447 88.6135L54.855 89.2581C54.8332 89.3053 54.8244 89.3568 54.8295 89.4079C54.8345 89.459 54.8532 89.5081 54.8839 89.5509C54.9145 89.5937 54.9562 89.6288 55.0052 89.653C55.0542 89.6773 55.1089 89.69 55.1644 89.6899L57.897 89.6838C58.1735 89.6838 58.2525 89.5682 58.134 89.3372L55.1447 83.4324C55.094 83.3304 55.0122 83.2442 54.9093 83.1844C54.8064 83.1246 54.6869 83.0938 54.5654 83.0958C54.4439 83.0977 54.3256 83.1323 54.225 83.1953C54.1244 83.2584 54.0459 83.3471 53.999 83.4507L51.3521 89.3311C51.2248 89.6149 51.328 89.7568 51.6616 89.7568H52.9784C53.3867 89.7568 53.4876 89.5946 53.2813 89.2703ZM37.65 85.7311L38.1241 84.9892C38.2295 84.8189 38.2602 84.6385 38.2163 84.448C37.8081 82.6966 34.7002 83.177 32.7183 83.2135C32.4769 83.2176 32.4045 83.3209 32.5011 83.5237C33.4404 85.4493 33.4339 87.3628 32.4813 89.2642C32.376 89.479 32.4484 89.5926 32.6986 89.6047C34.7661 89.7345 36.2081 89.698 37.0245 89.4953C38.697 89.0878 39.092 87.3 37.762 86.3088C37.5469 86.1466 37.5096 85.954 37.65 85.7311ZM44.669 87.0385C45.9463 88.5953 45.9398 89.8845 48.5998 89.6595C48.6502 89.6551 48.6983 89.6378 48.7386 89.6095C48.7789 89.5811 48.8097 89.5429 48.8275 89.4991C48.8454 89.4554 48.8496 89.4078 48.8396 89.362C48.8296 89.3162 48.8058 89.2738 48.771 89.2399L46.5258 87.0446C46.4509 86.9717 46.407 86.8767 46.4021 86.7771C46.3973 86.6775 46.4319 86.5802 46.4994 86.5034L47.6385 85.202C47.7614 85.0642 47.7987 84.9081 47.7505 84.7338C47.1644 82.7514 44.3595 83.1223 42.1801 83.2196C41.9387 83.2277 41.864 83.3351 41.9562 83.5419C42.821 85.4676 42.8012 87.3953 41.897 89.325C41.7828 89.5723 41.8728 89.6939 42.1669 89.6899L44.6031 89.6412C44.6757 89.6398 44.7462 89.6186 44.8058 89.5804C44.8654 89.5421 44.9115 89.4884 44.9382 89.4261C44.9649 89.3637 44.9711 89.2955 44.956 89.2299C44.9409 89.1643 44.9052 89.1043 44.8533 89.0574C44.2651 88.5142 44.0588 87.8716 44.2344 87.1297C44.2434 87.0869 44.2658 87.0475 44.2986 87.0162C44.3315 86.9849 44.3735 86.9631 44.4195 86.9534C44.4656 86.9438 44.5136 86.9467 44.5579 86.9618C44.6022 86.9769 44.6408 87.0035 44.669 87.0385ZM62.3941 83.2378L61.334 83.1284C60.996 83.0959 60.895 83.2236 61.0311 83.5115C61.9529 85.4412 61.9639 87.3649 61.064 89.2824C60.9367 89.5541 61.0355 89.6899 61.3603 89.6899L64.027 89.6777C64.2816 89.6736 64.3518 89.5662 64.2377 89.3554C63.1842 87.45 63.1644 85.5304 64.1784 83.5966C64.2794 83.402 64.2201 83.2642 64.0007 83.1831C63.6627 83.0574 63.3049 83.0574 62.9274 83.1831C62.7562 83.2399 62.5784 83.2581 62.3941 83.2378ZM69.4657 86.0047L72.962 89.6291C73.0268 89.6984 73.113 89.7478 73.2091 89.7707C73.3051 89.7935 73.4064 89.7888 73.4995 89.757C73.5925 89.7253 73.6729 89.6681 73.7298 89.5931C73.7867 89.5181 73.8174 89.4288 73.8179 89.3372L73.897 84.5027C73.8992 84.4019 73.9251 84.3028 73.9729 84.2125C74.0207 84.1221 74.0891 84.0427 74.1735 83.9797L74.7068 83.5784C74.7471 83.5475 74.7762 83.5061 74.7902 83.4595C74.8042 83.413 74.8026 83.3636 74.7854 83.318C74.7682 83.2723 74.7363 83.2327 74.6941 83.2042C74.6518 83.1758 74.6011 83.1599 74.5488 83.1588L72.264 83.1223C72.1987 83.1218 72.1349 83.1399 72.0812 83.1743C72.0275 83.2086 71.9867 83.2575 71.9643 83.3142C71.9419 83.3708 71.9391 83.4325 71.9562 83.4907C71.9734 83.5489 72.0096 83.6008 72.0599 83.6392C72.9422 84.2919 73.1661 85.1432 72.7315 86.1932C72.7143 86.2348 72.6853 86.2713 72.6476 86.299C72.6099 86.3267 72.5649 86.3445 72.5172 86.3507C72.4695 86.3569 72.4208 86.3512 72.3763 86.3343C72.3318 86.3172 72.2931 86.2896 72.264 86.2541C71.4739 85.273 70.5543 84.3791 69.5052 83.5723C68.2585 82.6115 67.7472 82.875 67.971 84.3628C68.2344 86.1142 68.0764 87.7622 67.497 89.3068C67.3916 89.5905 67.5013 89.7324 67.8262 89.7324L69.4525 89.7263C69.5128 89.7272 69.5723 89.7129 69.6246 89.6852C69.6769 89.6574 69.7202 89.6172 69.7498 89.5686C69.7795 89.5201 69.7944 89.4651 69.7931 89.4094C69.7917 89.3537 69.7742 89.2993 69.7422 89.252C69.1101 88.2912 68.9104 87.2351 69.143 86.0838C69.1913 85.8527 69.2989 85.8263 69.4657 86.0047ZM80.3167 88.4432L79.5924 87.373C79.5544 87.3123 79.4957 87.265 79.4254 87.2386C79.3552 87.2121 79.2774 87.2079 79.2043 87.2267C79.1312 87.2455 79.0669 87.2862 79.0215 87.3424C78.9762 87.3986 78.9523 87.4671 78.9538 87.5372L78.9472 88.802C78.9428 89.0169 79.0481 89.1689 79.2632 89.2581C80.7184 89.8662 83.7998 89.8236 84.0961 87.9081C84.3661 86.1081 82.1208 85.8162 80.8369 85.1047C80.7879 85.0765 80.7455 85.0397 80.712 84.9965C80.6785 84.9533 80.6546 84.9045 80.6417 84.853C80.6289 84.8015 80.6273 84.7483 80.637 84.6965C80.6468 84.6447 80.6677 84.5954 80.6986 84.5513C81.0366 84.073 81.5019 83.8905 82.0945 84.0041C82.1904 84.0228 82.2802 84.0623 82.3568 84.1193C82.4334 84.1764 82.4947 84.2494 82.5356 84.3324C82.9351 85.1432 83.3762 85.2304 83.8591 84.5939C83.9184 84.5161 83.9588 84.4274 83.9777 84.3338C83.9965 84.2403 83.9933 84.1441 83.9683 84.0518C83.9434 83.9595 83.8971 83.8732 83.8328 83.7989C83.7685 83.7245 83.6877 83.6638 83.5957 83.6209C81.9365 82.8426 80.4989 83.0351 79.283 84.1987C79.1106 84.3631 78.9823 84.5625 78.9084 84.7809C78.8345 84.9994 78.817 85.2308 78.8573 85.4566C78.8976 85.6824 78.9947 85.8963 79.1406 86.0813C79.2866 86.2662 79.4774 86.417 79.6978 86.5216L81.9167 87.5797C81.9771 87.6086 82.0307 87.6482 82.0744 87.6963C82.1181 87.7445 82.151 87.8001 82.1712 87.8601C82.1914 87.9201 82.1986 87.9831 82.1922 88.0456C82.1858 88.1082 82.166 88.1689 82.134 88.2243C81.9452 88.5689 81.6577 88.7716 81.2714 88.8324C80.8588 88.9014 80.5406 88.7716 80.3167 88.4432ZM91.7537 83.8763C92.4649 83.9939 92.8863 84.4034 93.0179 85.1047C93.029 85.1757 93.0674 85.2405 93.126 85.2875C93.1847 85.3344 93.2597 85.3602 93.3373 85.3602C93.4149 85.3602 93.4899 85.3344 93.5485 85.2875C93.6072 85.2405 93.6456 85.1757 93.6566 85.1047C93.9134 83.6635 93.5183 83.1466 91.9315 83.1345C90.4127 83.1182 88.8873 83.1365 87.3554 83.1892C87.2447 83.1923 87.1386 83.231 87.0556 83.2988C86.9726 83.3666 86.9179 83.459 86.9011 83.5601L86.6904 84.9041C86.6824 84.9581 86.69 85.0131 86.7124 85.0635C86.7349 85.1139 86.7713 85.158 86.818 85.1913C86.8647 85.2246 86.9202 85.246 86.9787 85.2532C87.0372 85.2604 87.0967 85.2532 87.1513 85.2324C87.621 85.0459 87.8887 84.7297 87.9546 84.2838C87.9807 84.118 88.0741 83.967 88.2159 83.8614C88.3577 83.7558 88.5372 83.7034 88.718 83.715C88.8989 83.7266 89.0676 83.8013 89.1899 83.9238C89.3122 84.0464 89.379 84.2077 89.3768 84.375L89.3702 88.1635C89.3702 88.2609 89.3479 88.3569 89.3047 88.445C89.2616 88.5332 89.1986 88.6114 89.12 88.6743L88.4813 89.1851C88.4356 89.2228 88.403 89.2725 88.3878 89.3274C88.3726 89.3824 88.3755 89.4402 88.3963 89.493C88.417 89.5458 88.4545 89.5912 88.5038 89.6231C88.5531 89.655 88.6119 89.6719 88.6723 89.6716L92.0105 89.6838C92.0678 89.6847 92.1238 89.6687 92.1706 89.6382C92.2173 89.6078 92.2524 89.5644 92.2707 89.5143C92.2891 89.4642 92.2897 89.4101 92.2725 89.3596C92.2553 89.3092 92.2212 89.2651 92.1751 89.2338L91.5891 88.8264C91.396 88.6926 91.2994 88.5142 91.2994 88.2912L91.3192 84.2108C91.3193 84.161 91.3312 84.1118 91.3541 84.0667C91.3771 84.0216 91.4104 83.9817 91.4518 83.9498C91.4933 83.9179 91.5418 83.8948 91.594 83.8821C91.6461 83.8694 91.7007 83.8674 91.7537 83.8763ZM104.01 85.5468C103.779 84.7092 103.175 83.9957 102.332 83.5634C101.489 83.131 100.475 83.0153 99.5141 83.2415C99.0382 83.3536 98.5895 83.5462 98.1936 83.8085C97.7977 84.0707 97.4624 84.3974 97.2069 84.7699C96.9513 85.1424 96.7804 85.5535 96.7041 85.9795C96.6277 86.4056 96.6473 86.8384 96.7618 87.2532C96.993 88.0908 97.5965 88.8043 98.4397 89.2366C99.2828 89.669 100.296 89.7847 101.258 89.5584C101.733 89.4464 102.182 89.2538 102.578 88.9915C102.974 88.7293 103.309 88.4026 103.565 88.0301C103.82 87.6576 103.991 87.2465 104.068 86.8205C104.144 86.3944 104.124 85.9616 104.01 85.5468ZM110.124 86.9959L111.322 89.0392C111.359 89.1036 111.411 89.1594 111.475 89.2026C111.539 89.2458 111.613 89.2752 111.691 89.2885L114.015 89.7142C114.068 89.7223 114.123 89.715 114.171 89.6932C114.219 89.6714 114.258 89.6363 114.284 89.5927C114.309 89.5491 114.319 89.4993 114.312 89.4502C114.306 89.4011 114.282 89.3552 114.246 89.3189L111.797 86.9959C111.72 86.9242 111.676 86.8276 111.675 86.7266C111.673 86.6256 111.715 86.5281 111.79 86.4547L113.041 85.2446C113.107 85.1799 113.154 85.1001 113.177 85.0127C113.2 84.9254 113.199 84.8335 113.173 84.7459C112.58 82.8 109.446 83.0797 107.615 83.1892C107.378 83.2054 107.306 83.3128 107.398 83.5115C108.302 85.4736 108.274 87.4318 107.313 89.3858C107.216 89.5804 107.282 89.6757 107.51 89.6716L109.927 89.6291C109.99 89.6282 110.051 89.6113 110.104 89.5803C110.158 89.5492 110.201 89.5051 110.229 89.4529C110.257 89.4007 110.268 89.3424 110.263 89.2844C110.257 89.2265 110.234 89.1711 110.197 89.1243C109.705 88.5243 109.523 87.8412 109.65 87.075C109.659 87.0273 109.684 86.9833 109.721 86.9489C109.758 86.9146 109.806 86.8916 109.857 86.883C109.909 86.8744 109.962 86.8806 110.01 86.9008C110.058 86.921 110.097 86.9542 110.124 86.9959ZM123.734 85.7068C123.94 86.9351 123.795 88.1128 123.299 89.2399C123.277 89.2875 123.269 89.3396 123.274 89.3912C123.279 89.4428 123.299 89.4923 123.33 89.5353C123.362 89.5782 123.404 89.6132 123.454 89.637C123.504 89.6608 123.559 89.6727 123.615 89.6716L126.401 89.6534C126.447 89.654 126.492 89.6419 126.53 89.6185C126.569 89.5952 126.599 89.5617 126.617 89.5224C126.634 89.4831 126.639 89.4399 126.63 89.3982C126.621 89.3565 126.598 89.3183 126.565 89.2885L126.032 88.7899C125.826 88.5993 125.714 88.3703 125.696 88.1027L125.466 84.7095C125.459 84.6199 125.474 84.5305 125.508 84.4476C125.542 84.3646 125.595 84.29 125.663 84.229L126.216 83.7243C126.272 83.6719 126.31 83.6048 126.324 83.5322C126.338 83.4595 126.328 83.3848 126.294 83.3183C126.261 83.2518 126.207 83.1967 126.139 83.1606C126.071 83.1244 125.992 83.1089 125.913 83.1162L123.866 83.2926C123.637 83.3128 123.479 83.4203 123.392 83.6149L121.917 86.8804C121.746 87.2574 121.568 87.2574 121.383 86.8804L119.783 83.5601C119.682 83.3493 119.509 83.2378 119.263 83.2257L117.347 83.1345C116.891 83.1101 116.807 83.2622 117.097 83.5905L117.584 84.1561C117.707 84.2935 117.773 84.4706 117.769 84.6547L117.676 88.5709C117.672 88.6726 117.625 88.7686 117.545 88.8385L117.044 89.2703C117.005 89.3027 116.978 89.3453 116.966 89.3925C116.954 89.4397 116.958 89.4892 116.977 89.5342C116.997 89.5793 117.03 89.6178 117.074 89.6445C117.118 89.6712 117.17 89.6849 117.222 89.6838L118.848 89.6655C119.208 89.6615 119.298 89.5155 119.118 89.2277C118.491 88.2142 118.363 87.1338 118.736 85.9865C118.842 85.6703 118.969 85.6642 119.118 85.9682L120.758 89.3919C120.8 89.4773 120.868 89.5495 120.954 89.6C121.039 89.6505 121.139 89.677 121.241 89.6763C121.342 89.6757 121.441 89.6479 121.526 89.5964C121.611 89.5448 121.678 89.4717 121.719 89.3858L123.477 85.6764C123.6 85.4169 123.686 85.427 123.734 85.7068Z" fill="#F6F9FD"/>
<path d="M98.9432 55.3439C99.0046 55.3723 99.0288 55.4169 99.0156 55.4777C99.0156 55.4955 99.008 55.5125 98.9944 55.525C98.9808 55.5376 98.9624 55.5446 98.9432 55.5446C98.924 55.5446 98.9055 55.5376 98.8919 55.525C98.8784 55.5125 98.8707 55.4955 98.8707 55.4777C96.474 44.5014 86.5251 38.0798 74.8312 41.0048C68.1064 42.6872 63.7212 47.0433 61.6757 54.073C61.6186 54.2595 61.5418 54.2676 61.4452 54.0973C61.3618 53.9473 61.3245 53.8014 61.3333 53.6595C61.86 45.4683 69.5374 39.1257 77.5703 38.2804C89.2707 37.0399 98.0674 44.1669 98.851 55.2102C98.8554 55.271 98.8861 55.3156 98.9432 55.3439Z" fill="#AAAAAA"/>
<path d="M73.1003 72.5351C75.4179 68.0534 75.8064 62.848 72.3035 58.6703C69.5908 55.429 67.6023 51.823 66.7266 47.779C66.7224 47.7442 66.7308 47.7091 66.7505 47.6792C66.7702 47.6493 66.8001 47.6263 66.8355 47.6138C66.8709 47.6013 66.9098 47.6 66.9461 47.61C66.9824 47.6201 67.014 47.6411 67.0361 47.6696C67.7603 48.7581 68.2476 50.0473 68.9587 51.002C71.7241 54.7236 74.72 57.0405 77.7356 60.4763C78.7628 61.65 79.1974 62.6351 78.4402 64.1554C76.2103 68.623 75.4179 73.2811 76.0632 78.1297C76.0732 78.2088 76.0623 78.289 76.0314 78.3633C76.0005 78.4377 75.9506 78.504 75.8858 78.5566C75.8211 78.6092 75.7435 78.6466 75.6597 78.6654C75.5759 78.6843 75.4885 78.6841 75.4048 78.6648C58.9439 74.7121 51.464 57.9162 62.19 44.9574C62.2997 44.8236 62.3743 44.8378 62.4138 45C62.4533 45.15 62.4336 45.2817 62.3546 45.3953C55.5332 55.6784 60.5505 68.0655 72.2706 72.8148C72.4223 72.8763 72.5936 72.8815 72.7484 72.8293C72.9032 72.7771 73.0293 72.6716 73.1003 72.5351Z" fill="#AAAAAA"/>
<path d="M87.0126 72.4986C87.1925 72.8554 87.4801 72.9587 87.8751 72.8087C99.8521 68.1385 104.468 55.3439 97.6792 45.0121C97.6573 44.9716 97.6661 44.9391 97.7056 44.9148C98.6362 44.3878 98.6691 44.3695 97.8043 44.8601C97.7868 44.8682 97.7846 44.8783 97.7977 44.8905C104.573 52.127 104.665 63.0912 98.3179 70.5891C93.2743 76.5486 86.5912 79.3358 78.2685 78.9506C78.049 78.9425 77.902 78.8432 77.8274 78.6527C76.0298 73.8851 78.5385 66.454 81.1327 62.3675C81.9009 61.1554 83.2244 59.5702 85.1031 57.6121C88.2438 54.3405 91.0949 51.8412 93.0504 47.6939C93.0677 47.6648 93.0952 47.642 93.1283 47.6293C93.1615 47.6165 93.1983 47.6146 93.2328 47.6238C93.2673 47.633 93.2974 47.6528 93.3181 47.6799C93.3388 47.707 93.3489 47.7398 93.3467 47.7729C92.6093 52.3155 89.9887 56.2439 86.6768 60.4216C84.1813 63.5716 85.4126 69.3425 87.0126 72.4986Z" fill="#AAAAAA"/>
<path d="M74.5817 50.8441C74.8231 51.436 74.788 52.0177 74.4763 52.5893C74.4387 52.659 74.3767 52.715 74.3005 52.7481C74.2242 52.7813 74.138 52.7898 74.0559 52.7723C73.9737 52.7547 73.9004 52.7121 73.8477 52.6513C73.7949 52.5906 73.7659 52.5152 73.7652 52.4373L73.6994 50.5643C73.6952 50.4673 73.6557 50.3745 73.5874 50.3015C73.5191 50.2285 73.4262 50.1796 73.3241 50.163L71.5858 49.8589C71.5329 49.8511 71.484 49.8278 71.4465 49.7925C71.409 49.7571 71.3848 49.7116 71.3774 49.6625C71.37 49.6135 71.3799 49.5636 71.4055 49.5201C71.4312 49.4766 71.4713 49.4419 71.52 49.4211L79.8228 45.5049C79.9022 45.467 79.9903 45.4473 80.0796 45.4473C80.169 45.4473 80.257 45.467 80.3364 45.5049L88.659 49.4758C88.7155 49.5048 88.7605 49.5498 88.7874 49.6041C88.8142 49.6584 88.8216 49.7192 88.8084 49.7776C88.7951 49.8361 88.762 49.8891 88.7138 49.9289C88.6656 49.9687 88.6049 49.9932 88.5405 49.9988L85.2154 50.2056C85.1081 50.2117 85.0032 50.2374 84.9067 50.2812C84.8102 50.3249 84.724 50.3858 84.653 50.4604C84.582 50.535 84.5277 50.6218 84.4932 50.7158C84.4586 50.8098 84.4445 50.9092 84.4516 51.0083C84.5767 52.8569 84.3529 56.3292 82.3842 57.4968C80.0072 58.9137 77.3734 57.9285 76.2541 55.6116C75.8415 54.7643 75.6659 53.2603 75.7274 51.0995C75.7318 50.8238 75.6703 50.6231 75.543 50.4975C75.3981 50.3596 75.2028 50.2968 74.957 50.3089C74.5663 50.3252 74.4412 50.5035 74.5817 50.8441Z" fill="#AAAAAA"/>
<path d="M62.6231 82.8365C63.1722 82.8365 63.6174 82.4254 63.6174 81.9182C63.6174 81.4111 63.1722 81 62.6231 81C62.074 81 61.6289 81.4111 61.6289 81.9182C61.6289 82.4254 62.074 82.8365 62.6231 82.8365Z" fill="#AAAAAA"/>
<path d="M55.0059 87.9629C53.9853 87.0325 52.4643 87.9629 53.2808 89.2703C53.4871 89.5946 53.3861 89.7568 52.9779 89.7568H51.661C51.3274 89.7568 51.2243 89.6149 51.3516 89.3311L53.9985 83.4507C54.0453 83.3471 54.1239 83.2584 54.2244 83.1954C54.325 83.1323 54.4433 83.0977 54.5649 83.0958C54.6864 83.0939 54.8059 83.1247 54.9088 83.1845C55.0117 83.2442 55.0935 83.3304 55.1442 83.4325L58.1335 89.3372C58.252 89.5683 58.173 89.6838 57.8964 89.6838L55.1639 89.6899C55.1083 89.69 55.0536 89.6773 55.0047 89.6531C54.9557 89.6288 54.914 89.5937 54.8833 89.551C54.8527 89.5082 54.834 89.459 54.8289 89.4079C54.8239 89.3568 54.8327 89.3053 54.8544 89.2581L55.1442 88.6135C55.2583 88.3662 55.2122 88.1493 55.0059 87.9629ZM53.8405 85.7615C53.5771 86.0372 53.531 86.3352 53.7022 86.6554C53.7667 86.7539 53.8682 86.827 53.9873 86.8607C54.1064 86.8945 54.2348 86.8865 54.348 86.8384C54.4612 86.7903 54.5512 86.7053 54.6009 86.5998C54.6506 86.4943 54.6565 86.3755 54.6174 86.2662L54.433 85.8527C54.2838 85.5325 54.0863 85.5021 53.8405 85.7615Z" fill="#AAAAAA"/>
<path d="M37.7611 86.3085C39.0911 87.2997 38.6961 89.0876 37.0236 89.495C36.2072 89.6977 34.7652 89.7342 32.6977 89.6045C32.4475 89.5923 32.3751 89.4788 32.4804 89.2639C33.433 87.3626 33.4395 85.4491 32.5002 83.5234C32.4036 83.3207 32.476 83.2173 32.7175 83.2133C34.6993 83.1768 37.8072 82.6964 38.2154 84.4477C38.2593 84.6383 38.2286 84.8187 38.1232 84.9889L37.6491 85.7308C37.5087 85.9538 37.546 86.1464 37.7611 86.3085ZM35.4191 85.7996C35.6486 85.8196 35.8789 85.7393 36.0593 85.5764C36.2397 85.4134 36.3554 85.1812 36.3811 84.9307C36.4067 84.6802 36.3401 84.432 36.196 84.2407C36.0518 84.0495 35.8419 83.9307 35.6125 83.9107C35.383 83.8907 35.1527 83.971 34.9723 84.1339C34.7919 84.2969 34.6762 84.5292 34.6506 84.7796C34.6249 85.0301 34.6915 85.2783 34.8356 85.4696C34.9798 85.6609 35.1897 85.7796 35.4191 85.7996ZM36.78 87.8227C36.78 87.5695 36.6711 87.3267 36.4772 87.1476C36.2834 86.9686 36.0204 86.868 35.7463 86.868C35.4721 86.868 35.2092 86.9686 35.0153 87.1476C34.8214 87.3267 34.7125 87.5695 34.7125 87.8227C34.7125 87.9481 34.7393 88.0723 34.7912 88.1881C34.8432 88.3039 34.9193 88.4092 35.0153 88.4978C35.1113 88.5865 35.2252 88.6568 35.3507 88.7048C35.4761 88.7528 35.6105 88.7775 35.7463 88.7775C35.882 88.7775 36.0164 88.7528 36.1419 88.7048C36.2673 88.6568 36.3812 88.5865 36.4772 88.4978C36.5732 88.4092 36.6494 88.3039 36.7013 88.1881C36.7533 88.0723 36.78 87.9481 36.78 87.8227Z" fill="#AAAAAA"/>
<path d="M44.233 87.1295C44.0574 87.8714 44.2637 88.5139 44.8519 89.0572C44.9038 89.1041 44.9395 89.1641 44.9546 89.2297C44.9697 89.2952 44.9635 89.3635 44.9368 89.4258C44.91 89.4882 44.864 89.5418 44.8044 89.5801C44.7448 89.6184 44.6743 89.6395 44.6017 89.641L42.1655 89.6896C41.8714 89.6937 41.7814 89.572 41.8955 89.3247C42.7998 87.395 42.8195 85.4673 41.9548 83.5416C41.8626 83.3349 41.9372 83.2274 42.1786 83.2193C44.3581 83.122 47.163 82.7511 47.749 84.7335C47.7973 84.9078 47.76 85.0639 47.6371 85.2018L46.498 86.5031C46.4304 86.5799 46.3958 86.6772 46.4007 86.7768C46.4055 86.8764 46.4495 86.9715 46.5243 87.0443L48.7696 89.2396C48.8044 89.2736 48.8281 89.3159 48.8381 89.3617C48.8481 89.4076 48.8439 89.4551 48.8261 89.4988C48.8082 89.5426 48.7774 89.5808 48.7372 89.6092C48.6969 89.6376 48.6488 89.6549 48.5984 89.6592C45.9383 89.8842 45.9449 88.595 44.6675 87.0383C44.6393 87.0033 44.6008 86.9766 44.5565 86.9615C44.5122 86.9464 44.4641 86.9435 44.4181 86.9532C44.372 86.9628 44.33 86.9846 44.2972 87.0159C44.2643 87.0472 44.242 87.0867 44.233 87.1295ZM44.0947 84.3383L44.1803 85.4815C44.1828 85.5175 44.193 85.5526 44.2102 85.5849C44.2275 85.6173 44.2515 85.6461 44.2809 85.6698C44.3102 85.6936 44.3444 85.7117 44.3814 85.7232C44.4183 85.7347 44.4574 85.7394 44.4963 85.7369L44.6017 85.7247C44.9444 85.7029 45.2671 85.6016 45.4992 85.4431C45.7312 85.2846 45.8536 85.0819 45.8396 84.8795L45.8264 84.7214C45.8189 84.6207 45.7778 84.5232 45.7055 84.4344C45.6332 84.3457 45.5312 84.2674 45.4051 84.2041C45.2791 84.1408 45.1316 84.0938 44.9711 84.0657C44.8107 84.0375 44.6404 84.0289 44.47 84.0403L44.3712 84.0464C44.3323 84.0487 44.2942 84.0581 44.2592 84.074C44.2242 84.09 44.193 84.1121 44.1673 84.1392C44.1416 84.1664 44.122 84.1979 44.1095 84.2321C44.097 84.2662 44.092 84.3023 44.0947 84.3383Z" fill="#AAAAAA"/>
<path d="M62.9275 83.1831C63.305 83.0574 63.6628 83.0574 64.0008 83.1831C64.2203 83.2642 64.2795 83.402 64.1786 83.5966C63.1646 85.5304 63.1843 87.45 64.2378 89.3554C64.352 89.5662 64.2817 89.6737 64.0271 89.6777L61.3605 89.6899C61.0356 89.6899 60.9369 89.5541 61.0642 89.2825C61.964 87.3649 61.9531 85.4412 61.0312 83.5115C60.8952 83.2237 60.9961 83.096 61.3341 83.1284L62.3942 83.2379C62.5786 83.2581 62.7563 83.2399 62.9275 83.1831Z" fill="#AAAAAA"/>
<path d="M69.1418 86.0838C68.9092 87.2352 69.1089 88.2913 69.741 89.2521C69.7729 89.2994 69.7905 89.3537 69.7919 89.4094C69.7932 89.4651 69.7783 89.5201 69.7486 89.5687C69.719 89.6172 69.6757 89.6575 69.6234 89.6852C69.5711 89.713 69.5116 89.7272 69.4513 89.7264L67.8249 89.7325C67.5001 89.7325 67.3904 89.5906 67.4957 89.3068C68.0752 87.7622 68.2332 86.1142 67.9698 84.3629C67.7459 82.8751 68.2573 82.6115 69.504 83.5723C70.5531 84.3791 71.4727 85.273 72.2628 86.2541C72.2918 86.2896 72.3306 86.3173 72.3751 86.3343C72.4196 86.3513 72.4682 86.357 72.5159 86.3508C72.5636 86.3446 72.6087 86.3267 72.6464 86.299C72.684 86.2713 72.713 86.2348 72.7303 86.1933C73.1649 85.1433 72.941 84.2919 72.0587 83.6392C72.0084 83.6008 71.9721 83.5489 71.955 83.4907C71.9379 83.4325 71.9407 83.3709 71.9631 83.3142C71.9855 83.2576 72.0263 83.2087 72.08 83.1743C72.1336 83.14 72.1975 83.1218 72.2628 83.1224L74.5476 83.1588C74.5999 83.16 74.6505 83.1758 74.6928 83.2043C74.7351 83.2327 74.767 83.2724 74.7841 83.318C74.8013 83.3636 74.803 83.413 74.789 83.4596C74.7749 83.5061 74.7459 83.5476 74.7056 83.5784L74.1723 83.9798C74.0879 84.0428 74.0194 84.1222 73.9717 84.2125C73.9239 84.3029 73.898 84.4019 73.8957 84.5028L73.8167 89.3372C73.8162 89.4288 73.7855 89.5181 73.7286 89.5931C73.6716 89.6682 73.5913 89.7254 73.4983 89.7571C73.4052 89.7888 73.3039 89.7936 73.2078 89.7707C73.1118 89.7478 73.0256 89.6984 72.9607 89.6291L69.4645 86.0048C69.2977 85.8264 69.1901 85.8528 69.1418 86.0838Z" fill="#AAAAAA"/>
<path d="M80.3165 88.4431C80.5404 88.7715 80.8586 88.9012 81.2712 88.8323C81.6575 88.7715 81.945 88.5688 82.1338 88.2242C82.1658 88.1688 82.1856 88.1081 82.1919 88.0455C82.1983 87.983 82.1912 87.9199 82.171 87.86C82.1508 87.8 82.1179 87.7443 82.0742 87.6962C82.0305 87.6481 81.9769 87.6085 81.9165 87.5796L79.6976 86.5215C79.4772 86.4169 79.2863 86.2661 79.1404 86.0812C78.9944 85.8962 78.8974 85.6823 78.8571 85.4564C78.8168 85.2306 78.8343 84.9992 78.9082 84.7808C78.9821 84.5624 79.1104 84.363 79.2828 84.1985C80.4987 83.035 81.9362 82.8425 83.5955 83.6208C83.6875 83.6637 83.7683 83.7244 83.8326 83.7988C83.8969 83.8731 83.9431 83.9594 83.9681 84.0517C83.9931 84.144 83.9963 84.2402 83.9774 84.3337C83.9586 84.4273 83.9182 84.516 83.8589 84.5938C83.376 85.2303 82.9349 85.1431 82.5354 84.3323C82.4945 84.2492 82.4332 84.1763 82.3566 84.1192C82.28 84.0622 82.1901 84.0227 82.0943 84.0039C81.5017 83.8904 81.0364 84.0729 80.6984 84.5512C80.6675 84.5953 80.6466 84.6446 80.6368 84.6964C80.627 84.7482 80.6286 84.8014 80.6415 84.8529C80.6544 84.9044 80.6783 84.9532 80.7118 84.9964C80.7453 85.0396 80.7877 85.0764 80.8367 85.1046C82.1206 85.8161 84.3659 86.108 84.0959 87.908C83.7996 89.8235 80.7181 89.8661 79.263 89.258C79.0479 89.1688 78.9426 89.0168 78.9469 88.8019L78.9535 87.537C78.9521 87.467 78.976 87.3985 79.0213 87.3423C79.0667 87.2861 79.1309 87.2454 79.204 87.2266C79.2772 87.2078 79.3549 87.212 79.4252 87.2384C79.4955 87.2649 79.5542 87.3122 79.5922 87.3729L80.3165 88.4431Z" fill="#AAAAAA"/>
<path d="M91.3194 84.211L91.2996 88.2914C91.2996 88.5144 91.3962 88.6927 91.5893 88.8265L92.1753 89.234C92.2214 89.2653 92.2555 89.3094 92.2727 89.3598C92.2899 89.4102 92.2892 89.4644 92.2709 89.5145C92.2526 89.5645 92.2175 89.6079 92.1708 89.6384C92.124 89.6689 92.0679 89.6848 92.0107 89.6839L88.6724 89.6718C88.612 89.6721 88.5533 89.6552 88.504 89.6232C88.4547 89.5913 88.4172 89.546 88.3965 89.4932C88.3757 89.4403 88.3728 89.3826 88.388 89.3276C88.4032 89.2726 88.4358 89.223 88.4815 89.1853L89.1202 88.6745C89.1988 88.6115 89.2618 88.5333 89.3049 88.4452C89.3481 88.3571 89.3704 88.2611 89.3704 88.1637L89.377 84.3752C89.3792 84.2078 89.3124 84.0465 89.1901 83.924C89.0678 83.8014 88.8991 83.7268 88.7182 83.7152C88.5374 83.7036 88.3578 83.7559 88.2161 83.8615C88.0743 83.9671 87.9809 84.1181 87.9547 84.284C87.8889 84.7299 87.6211 85.0461 87.1515 85.2326C87.0969 85.2534 87.0374 85.2606 86.9788 85.2533C86.9203 85.2461 86.8649 85.2248 86.8182 85.1915C86.7715 85.1582 86.735 85.1141 86.7126 85.0637C86.6902 85.0132 86.6826 84.9582 86.6906 84.9042L86.9012 83.5603C86.9181 83.4592 86.9728 83.3667 87.0558 83.299C87.1388 83.2312 87.2448 83.1924 87.3556 83.1894C88.8875 83.1367 90.4129 83.1184 91.9317 83.1346C93.5185 83.1468 93.9136 83.6637 93.6568 85.1049C93.6458 85.1758 93.6074 85.2407 93.5487 85.2876C93.4901 85.3346 93.4151 85.3604 93.3375 85.3604C93.2599 85.3604 93.1849 85.3346 93.1262 85.2876C93.0676 85.2407 93.0292 85.1758 93.0181 85.1049C92.8864 84.4035 92.465 83.9941 91.7539 83.8765C91.7009 83.8676 91.6463 83.8696 91.5941 83.8823C91.542 83.895 91.4935 83.9181 91.452 83.95C91.4106 83.9819 91.3772 84.0218 91.3543 84.0669C91.3314 84.112 91.3195 84.1612 91.3194 84.211Z" fill="#AAAAAA"/>
<path d="M104.01 85.5469C104.124 85.9617 104.144 86.3945 104.067 86.8205C103.991 87.2466 103.82 87.6576 103.565 88.0302C103.309 88.4027 102.974 88.7294 102.578 88.9916C102.182 89.2539 101.733 89.4465 101.257 89.5585C100.296 89.7848 99.2825 89.669 98.4394 89.2367C97.5963 88.8044 96.9928 88.0909 96.7616 87.2533C96.6471 86.8385 96.6275 86.4057 96.7038 85.9796C96.7802 85.5535 96.9511 85.1425 97.2066 84.77C97.4622 84.3975 97.7975 84.0708 98.1934 83.8085C98.5893 83.5463 99.038 83.3537 99.5139 83.2416C100.475 83.0154 101.489 83.1311 102.332 83.5634C103.175 83.9958 103.778 84.7092 104.01 85.5469ZM100.616 88.6996C101.033 88.6618 101.407 88.3775 101.655 87.9093C101.903 87.4411 102.005 86.8273 101.939 86.2029C101.872 85.5786 101.643 84.9948 101.301 84.58C100.959 84.1652 100.533 83.9534 100.116 83.9911C99.6988 84.0289 99.3251 84.3132 99.0771 84.7814C98.829 85.2496 98.7269 85.8634 98.7932 86.4878C98.8595 87.1121 99.0887 87.6959 99.4305 88.1107C99.7723 88.5255 100.199 88.7373 100.616 88.6996Z" fill="#AAAAAA"/>
<path d="M109.65 87.075C109.523 87.8412 109.705 88.5243 110.197 89.1243C110.234 89.1711 110.257 89.2265 110.263 89.2845C110.268 89.3424 110.257 89.4007 110.229 89.4529C110.201 89.5051 110.158 89.5492 110.104 89.5803C110.051 89.6113 109.99 89.6282 109.927 89.6291L107.51 89.6716C107.282 89.6757 107.216 89.5804 107.313 89.3858C108.274 87.4318 108.302 85.4737 107.398 83.5115C107.306 83.3128 107.378 83.2054 107.615 83.1892C109.446 83.0797 112.58 82.8 113.173 84.7459C113.199 84.8335 113.2 84.9254 113.177 85.0127C113.154 85.1001 113.107 85.1799 113.041 85.2446L111.79 86.4547C111.715 86.5281 111.673 86.6256 111.675 86.7266C111.676 86.8276 111.72 86.9242 111.797 86.9959L114.246 89.3189C114.282 89.3552 114.306 89.4011 114.312 89.4502C114.319 89.4993 114.309 89.5491 114.284 89.5927C114.258 89.6363 114.219 89.6714 114.171 89.6932C114.123 89.715 114.068 89.7223 114.015 89.7142L111.691 89.2885C111.613 89.2752 111.539 89.2458 111.475 89.2026C111.411 89.1594 111.359 89.1036 111.322 89.0392L110.124 86.9959C110.097 86.9542 110.058 86.921 110.01 86.9008C109.962 86.8806 109.909 86.8744 109.857 86.883C109.806 86.8916 109.758 86.9146 109.721 86.9489C109.684 86.9833 109.659 87.0273 109.65 87.075ZM109.63 84.1439V85.5791C109.63 85.6441 109.658 85.7067 109.707 85.7532C109.756 85.7998 109.823 85.8268 109.894 85.8284H110.012C110.173 85.8292 110.332 85.8072 110.481 85.7635C110.63 85.7199 110.765 85.6555 110.879 85.5741C110.992 85.4927 111.083 85.3959 111.144 85.2893C111.206 85.1826 111.237 85.0682 111.237 84.9527V84.7703C111.236 84.5391 111.109 84.3173 110.882 84.1533C110.655 83.9892 110.347 83.8963 110.025 83.8946H109.907C109.871 83.8938 109.835 83.8996 109.802 83.9118C109.768 83.924 109.737 83.9422 109.712 83.9654C109.686 83.9887 109.665 84.0164 109.651 84.0471C109.637 84.0777 109.63 84.1107 109.63 84.1439Z" fill="#AAAAAA"/>
<path d="M123.477 85.6762L121.719 89.3856C121.678 89.4715 121.611 89.5446 121.526 89.5962C121.441 89.6477 121.342 89.6755 121.24 89.6762C121.139 89.6768 121.039 89.6503 120.953 89.5998C120.868 89.5493 120.8 89.4771 120.757 89.3917L119.118 85.9681C118.969 85.664 118.841 85.6701 118.736 85.9863C118.363 87.1336 118.49 88.214 119.118 89.2275C119.298 89.5154 119.208 89.6613 118.848 89.6654L117.222 89.6836C117.169 89.6848 117.117 89.6711 117.074 89.6443C117.03 89.6176 116.996 89.5791 116.977 89.534C116.957 89.489 116.953 89.4395 116.965 89.3923C116.977 89.3451 117.005 89.3025 117.044 89.2701L117.544 88.8383C117.624 88.7685 117.672 88.6724 117.676 88.5708L117.768 84.6545C117.772 84.4704 117.707 84.2934 117.584 84.1559L117.096 83.5904C116.807 83.262 116.89 83.11 117.347 83.1343L119.263 83.2255C119.509 83.2377 119.682 83.3491 119.783 83.56L121.383 86.8802C121.567 87.2572 121.745 87.2572 121.916 86.8802L123.391 83.6147C123.479 83.4201 123.637 83.3127 123.865 83.2924L125.913 83.116C125.991 83.1087 126.07 83.1242 126.138 83.1604C126.206 83.1965 126.261 83.2516 126.294 83.3181C126.327 83.3846 126.337 83.4593 126.323 83.532C126.309 83.6046 126.272 83.6717 126.216 83.7241L125.663 84.2289C125.594 84.2899 125.541 84.3644 125.507 84.4474C125.473 84.5304 125.459 84.6197 125.465 84.7093L125.696 88.1025C125.713 88.3701 125.825 88.5991 126.031 88.7897L126.565 89.2883C126.598 89.3181 126.62 89.3563 126.629 89.398C126.639 89.4397 126.634 89.483 126.616 89.5222C126.599 89.5615 126.568 89.595 126.53 89.6183C126.491 89.6417 126.446 89.6538 126.4 89.6532L123.615 89.6714C123.559 89.6725 123.503 89.6606 123.453 89.6368C123.404 89.613 123.361 89.578 123.33 89.5351C123.298 89.4921 123.279 89.4426 123.274 89.391C123.268 89.3394 123.277 89.2874 123.299 89.2397C123.795 88.1127 123.94 86.935 123.733 85.7066C123.685 85.4268 123.6 85.4167 123.477 85.6762Z" fill="#AAAAAA"/>
<path d="M34.6513 84.7797C34.5979 85.3013 34.942 85.7579 35.4199 85.7997C35.8978 85.8414 36.3285 85.4524 36.3819 84.9308C36.4352 84.4092 36.0911 83.9525 35.6132 83.9108C35.1354 83.8691 34.7047 84.2581 34.6513 84.7797Z" fill="#F6F9FD"/>
<path d="M109.629 84.1439C109.629 84.1107 109.636 84.0777 109.65 84.0471C109.664 84.0164 109.685 83.9887 109.71 83.9654C109.736 83.9422 109.767 83.924 109.8 83.9118C109.834 83.8996 109.869 83.8938 109.905 83.8946H110.024C110.346 83.8963 110.653 83.9892 110.88 84.1533C111.107 84.3173 111.235 84.5391 111.235 84.7703V84.9527C111.236 85.0682 111.204 85.1826 111.143 85.2893C111.081 85.3959 110.991 85.4927 110.877 85.5741C110.763 85.6555 110.628 85.7199 110.479 85.7635C110.331 85.8072 110.171 85.8292 110.011 85.8284H109.892C109.822 85.8268 109.755 85.7998 109.706 85.7532C109.656 85.7067 109.629 85.6441 109.629 85.5791V84.1439Z" fill="#F6F9FD"/>
<path d="M44.0964 84.3385C44.0937 84.3025 44.0988 84.2664 44.1112 84.2323C44.1237 84.1981 44.1433 84.1666 44.169 84.1395C44.1947 84.1123 44.226 84.0902 44.2609 84.0742C44.2959 84.0583 44.334 84.0489 44.3729 84.0466L44.4717 84.0405C44.6421 84.0291 44.8124 84.0378 44.9729 84.0659C45.1333 84.094 45.2808 84.1411 45.4068 84.2043C45.5329 84.2676 45.635 84.3459 45.7072 84.4346C45.7795 84.5234 45.8206 84.6209 45.8281 84.7216L45.8413 84.8797C45.8554 85.0822 45.7329 85.2849 45.5009 85.4433C45.2688 85.6018 44.9461 85.7031 44.6034 85.725L44.4981 85.7371C44.4591 85.7396 44.42 85.7349 44.3831 85.7234C44.3461 85.7119 44.3119 85.6938 44.2826 85.6701C44.2532 85.6463 44.2292 85.6175 44.2119 85.5852C44.1947 85.5528 44.1845 85.5177 44.182 85.4817L44.0964 84.3385Z" fill="#F6F9FD"/>
<path d="M98.792 86.4877C98.9301 87.7879 99.7461 88.7782 100.615 88.6996C101.483 88.6209 102.075 87.5031 101.937 86.2029C101.799 84.9027 100.983 83.9124 100.115 83.9911C99.2462 84.0697 98.654 85.1875 98.792 86.4877Z" fill="#F6F9FD"/>
<path d="M54.4336 85.8528L54.6179 86.2663C54.657 86.3756 54.6512 86.4943 54.6015 86.5999C54.5518 86.7054 54.4618 86.7903 54.3486 86.8385C54.2354 86.8866 54.107 86.8946 53.9878 86.8608C53.8687 86.8271 53.7672 86.754 53.7027 86.6555C53.5315 86.3352 53.5776 86.0373 53.841 85.7616C54.0868 85.5021 54.2843 85.5325 54.4336 85.8528Z" fill="#F6F9FD"/>
<path d="M35.7466 88.7776C36.3176 88.7776 36.7804 88.3502 36.7804 87.8229C36.7804 87.2956 36.3176 86.8682 35.7466 86.8682C35.1757 86.8682 34.7129 87.2956 34.7129 87.8229C34.7129 88.3502 35.1757 88.7776 35.7466 88.7776Z" fill="#F6F9FD"/>
</g>
<defs>
<clipPath id="clip0_1558_4612">
<rect width="160" height="135" fill="white"/>
</clipPath>
</defs>
</svg>
