<svg width="129" height="65" viewBox="0 0 129 65" fill="none" xmlns="http://www.w3.org/2000/svg">
<g clip-path="url(#clip0_1558_4938)">
<path d="M104.984 10.9561C105.195 11.006 105.379 10.9849 105.537 10.8926C106.161 10.5236 106.935 9.86632 107.862 8.92074C107.896 8.88472 107.942 8.85893 107.993 8.84695C108.045 8.83496 108.1 8.83739 108.15 8.85389C108.2 8.87039 108.243 8.90014 108.272 8.939C108.302 8.97785 108.317 9.02387 108.316 9.07065L108.283 9.83749C108.279 10.0182 108.336 10.1796 108.454 10.3218C109.514 11.5845 107.98 13.418 106.584 12.3917C104.425 10.8004 101.448 11.0483 99.2295 12.3571C99.1479 12.4068 99.0481 12.4283 98.9487 12.4177C98.8493 12.4071 98.7572 12.3651 98.6896 12.2995L97.7875 11.4288C97.3529 11.0099 97.2673 10.5428 97.5307 10.0278L98.3011 8.53443C98.4152 8.31533 98.3472 8.15581 98.097 8.05587L94.3439 6.57407C94.0366 6.45107 94.0081 6.29347 94.2583 6.10128L100.974 0.808307C101.163 0.658397 101.378 0.621881 101.62 0.698758L113.096 4.42921C113.136 4.44302 113.171 4.46562 113.198 4.49481C113.226 4.524 113.244 4.55881 113.251 4.59588C113.258 4.63295 113.254 4.67104 113.24 4.70648C113.226 4.74192 113.201 4.77351 113.169 4.79822L104.958 10.835C104.883 10.8888 104.892 10.9291 104.984 10.9561ZM99.2097 6.06092C98.2023 5.99173 96.5101 5.75533 95.562 6.03786C95.5163 6.0476 95.4766 6.07226 95.451 6.10678C95.4254 6.1413 95.4159 6.18308 95.4243 6.22358C95.4327 6.26408 95.4584 6.30024 95.4963 6.32466C95.5341 6.34908 95.5812 6.35992 95.6278 6.35497L99.1044 6.27425C99.1439 6.27425 99.168 6.25695 99.1768 6.22236C99.19 6.17623 99.2053 6.12819 99.2229 6.07822C99.2229 6.06668 99.2185 6.06092 99.2097 6.06092Z" fill="#AAAAAA"/>
<path d="M93.4362 9.42677C93.4205 9.80227 93.5079 10.1099 93.6315 10.1139C93.755 10.1178 93.8679 9.81663 93.8836 9.44113C93.8994 9.06563 93.8119 8.75801 93.6884 8.75405C93.5648 8.75008 93.4519 9.05127 93.4362 9.42677Z" fill="#AAAAAA"/>
<path d="M93.6265 13.8158L94.0084 13.9772C94.2147 14.0656 94.2037 14.1175 93.9754 14.1329L92.4808 14.2194C92.4291 14.2222 92.3776 14.211 92.3336 14.1871C92.2895 14.1633 92.2549 14.128 92.2347 14.0863C92.2145 14.0445 92.2096 13.9983 92.2206 13.954C92.2317 13.9096 92.2582 13.8694 92.2964 13.8388L93.4026 12.9624C93.6353 12.7779 93.6331 12.5934 93.396 12.4089L93.0141 12.1149C92.9808 12.0892 92.9548 12.057 92.9383 12.021C92.9218 11.9849 92.9152 11.9459 92.919 11.9072C92.9229 11.8685 92.9371 11.8311 92.9604 11.7981C92.9838 11.765 93.0158 11.7373 93.0536 11.717L93.7582 11.348C93.8547 11.2981 93.9206 11.225 93.9557 11.1289C93.9776 11.0713 93.9952 11.0117 94.0084 10.9502C94.083 10.5504 94.1796 10.5466 94.2981 10.9387C94.4298 11.3922 94.4342 11.84 94.3112 12.2821C94.3026 12.3124 94.2868 12.3399 94.2652 12.3628L93.4816 13.3142C93.3016 13.5294 93.3499 13.6966 93.6265 13.8158Z" fill="#AAAAAA"/>
<path d="M103.004 23.6291C106.404 23.6291 109.16 21.2155 109.16 18.2382C109.16 15.2608 106.404 12.8472 103.004 12.8472C99.604 12.8472 96.8477 15.2608 96.8477 18.2382C96.8477 21.2155 99.604 23.6291 103.004 23.6291Z" fill="#AAAAAA"/>
<path d="M116.105 27.4463C119.084 27.4463 121.498 25.3321 121.498 22.7241C121.498 20.1161 119.084 18.002 116.105 18.002C113.127 18.002 110.713 20.1161 110.713 22.7241C110.713 25.3321 113.127 27.4463 116.105 27.4463Z" fill="#AAAAAA"/>
<path d="M123.481 34.5498C125.834 34.5498 127.741 32.8796 127.741 30.8193C127.741 28.759 125.834 27.0889 123.481 27.0889C121.128 27.0889 119.221 28.759 119.221 30.8193C119.221 32.8796 121.128 34.5498 123.481 34.5498Z" fill="#AAAAAA"/>
<path d="M11.0993 28.4549C11.1476 28.4126 11.1959 28.3665 11.2442 28.3165C11.3276 28.2243 11.4351 28.1781 11.5668 28.1781C14.4903 28.1089 17.789 27.8726 20.4228 28.7028C22.0557 29.2217 23.5679 29.9559 24.9594 30.9053C25.1394 31.0283 25.1635 31.1725 25.0318 31.3378L22.9446 33.9324C22.8867 34.0046 22.8008 34.0557 22.7036 34.0759C22.6063 34.0961 22.5046 34.084 22.4179 34.0419L19.3166 32.4967C19.1103 32.3968 18.8886 32.3583 18.6516 32.3814C17.4796 32.4909 16.7685 32.0008 15.7545 32.0239C11.6414 32.12 8.62362 33.548 6.70098 36.3079C5.69577 37.757 5.2634 39.4329 5.40386 41.3356C5.81648 46.8246 9.50373 49.6114 16.4656 49.696C17.2338 49.7075 18.915 49.2424 21.5092 48.3007C21.6025 48.2665 21.6823 48.2084 21.7385 48.1336C21.7947 48.0587 21.8249 47.9704 21.8253 47.8798L21.8319 41.4971C21.8319 41.2856 21.9526 41.1799 22.194 41.1799H26.217C26.4585 41.1799 26.5792 41.2876 26.5792 41.5028L26.566 49.7363C26.566 49.99 26.4409 50.1822 26.1907 50.3129L20.8508 53.092C20.7887 53.1234 20.7183 53.1399 20.6467 53.1399C20.575 53.1399 20.5046 53.1234 20.4425 53.092C20.0255 52.8691 19.7117 52.8979 19.501 53.1785C19.4406 53.2598 19.3575 53.3263 19.2595 53.3717C19.1616 53.4171 19.0521 53.4399 18.9413 53.438C17.4181 53.4264 15.9015 53.4245 14.3915 53.4322C12.6532 53.4437 11.2179 53.2765 10.0853 52.9306C5.5158 51.5314 2.45626 48.76 0.906744 44.6163C0.491929 43.5151 0.873821 42.3965 0.215385 41.1742C0.169996 41.089 0.146484 40.996 0.146484 40.9014C0.146484 40.8068 0.169996 40.713 0.215385 40.6264C0.854068 39.4041 0.538018 38.2625 0.913327 37.1612C2.397 32.7869 5.67821 29.9386 10.757 28.6163C10.9062 28.5779 11.0203 28.5241 11.0993 28.4549Z" fill="#AAAAAA"/>
<path d="M95.7214 31.5974C95.6029 31.5435 95.5064 31.4667 95.4317 31.3667C95.3 31.1976 95.311 31.0362 95.4647 30.8824C97.9931 28.4031 103.57 27.7804 107.145 28.1552C111.583 28.6165 114.968 31.2341 114.994 35.2874C115.016 38.4317 113.043 40.5766 109.075 41.722C107.156 42.2756 105.231 42.806 103.3 43.3134C101.566 43.767 100.418 44.2686 99.8564 44.8183C98.7985 45.8638 98.8819 47.1399 100.107 48.6467C100.234 48.8005 100.399 48.91 100.6 48.9754C104.261 50.2016 107.652 49.8479 110.773 47.9145C111.699 47.3417 112.509 46.9093 113.203 46.6172C113.251 46.5973 113.304 46.5863 113.357 46.5849C113.41 46.5835 113.463 46.5918 113.512 46.6091C113.561 46.6265 113.605 46.6526 113.641 46.6858C113.678 46.719 113.706 46.7584 113.723 46.8017C114.118 47.7895 114.816 48.5718 115.817 49.1483C115.87 49.1775 115.914 49.217 115.945 49.2639C115.977 49.3108 115.996 49.3637 116.001 49.4185C116.005 49.4733 115.995 49.5285 115.971 49.5796C115.947 49.6308 115.91 49.6766 115.863 49.7134C113.905 51.2202 111.708 52.3099 109.272 52.9826C108.175 53.2862 106.853 53.44 105.308 53.4438C103.445 53.4438 101.726 53.5822 99.9947 53.0518C95.6271 51.7141 93.7791 48.8639 94.4507 44.5011C94.6943 42.9156 95.8531 41.5894 97.519 40.7592C100.144 39.4446 102.975 38.6124 106.013 38.2626C106.649 38.1896 107.692 37.6995 109.14 36.7923C109.298 36.6924 109.41 36.5636 109.476 36.406C110.569 33.8537 109.696 32.3873 106.856 32.0067C103.691 31.5839 100.717 32.2201 97.9338 33.9152C97.7714 34.019 97.6243 34.0017 97.4926 33.8633C96.7991 33.1407 96.2087 32.3853 95.7214 31.5974Z" fill="#AAAAAA"/>
<path d="M53.0682 44.5357C53.1274 43.8727 53.5027 43.3595 53.5027 42.731C53.494 38.13 53.4962 33.5058 53.5093 28.8586C53.5093 28.6587 53.6235 28.5607 53.8517 28.5646L57.9538 28.5761C58.2128 28.5761 58.3423 28.6895 58.3423 28.9163C58.3642 33.3444 58.3664 37.7667 58.3488 42.1833C58.3488 42.56 58.2391 43.125 58.0196 43.8784C57.776 44.7202 57.9801 45.441 57.6838 46.2136C56.8542 48.3507 55.9631 49.8498 55.0106 50.7109C54.2029 51.4412 52.886 52.1408 51.06 52.8096C49.9274 53.2247 48.6589 53.4342 47.2542 53.4381C46.3763 53.4381 45.5006 53.4342 44.627 53.4265C40.5316 53.3747 36.9628 50.8838 35.376 47.8049C34.7439 46.5787 34.4103 44.7971 34.3752 42.4601C34.3093 37.9205 34.3049 33.3655 34.362 28.7952C34.362 28.6414 34.452 28.5646 34.632 28.5646L38.7406 28.5761C38.9557 28.5799 39.0654 28.676 39.0698 28.8644C39.0962 32.8504 39.1006 36.8269 39.083 40.7937C39.0698 43.3845 39.3639 45.2315 39.9653 46.3347C41.697 49.5116 46.5167 50.7051 49.9274 48.7101C51.4813 47.7992 52.9167 46.2366 53.0682 44.5357Z" fill="#AAAAAA"/>
<path d="M75.8879 39.4733C75.9143 39.5115 75.9515 39.5431 75.9959 39.565C76.0403 39.5869 76.0905 39.5984 76.1414 39.5984C76.1924 39.5984 76.2425 39.5869 76.2869 39.565C76.3313 39.5431 76.3685 39.5115 76.3949 39.4733L83.7036 28.87C83.844 28.6663 84.0503 28.5645 84.3225 28.5645L88.6484 28.5817C88.9381 28.5817 89.0062 28.6913 88.8525 28.9104L78.706 43.3709C78.5831 43.5439 78.5217 43.7323 78.5217 43.936V53.1439C78.5217 53.3361 78.4119 53.4322 78.1925 53.4322H74.0772C73.8578 53.4322 73.748 53.3361 73.748 53.1439L73.7546 43.8783C73.7546 43.69 73.6975 43.5151 73.5834 43.3536C70.401 38.8217 67.2185 34.2995 64.0361 29.7868C63.8122 29.4678 63.5466 29.1795 63.2394 28.9219C62.9672 28.6913 63.0199 28.576 63.3974 28.576L67.7826 28.5702C67.9733 28.5685 68.1616 28.6106 68.329 28.6925C68.4963 28.7743 68.637 28.8932 68.7373 29.0372L75.8879 39.4733Z" fill="#AAAAAA"/>
<path d="M125.496 40.4249C126.954 40.4249 128.136 39.3898 128.136 38.1129C128.136 36.8359 126.954 35.8008 125.496 35.8008C124.038 35.8008 122.855 36.8359 122.855 38.1129C122.855 39.3898 124.038 40.4249 125.496 40.4249Z" fill="#AAAAAA"/>
<path d="M125.561 42.0311L124.415 42.0363C123.851 42.0389 123.397 42.4411 123.4 42.9347L123.404 43.6842C123.407 44.1778 123.867 44.5758 124.43 44.5732L125.576 44.568C126.14 44.5654 126.594 44.1632 126.591 43.6696L126.587 42.9201C126.584 42.4265 126.124 42.0285 125.561 42.0311Z" fill="#AAAAAA"/>
<path d="M25.0452 59.3481H24.4658C24.324 59.3481 24.209 59.4488 24.209 59.573V63.2746C24.209 63.3988 24.324 63.4995 24.4658 63.4995H25.0452C25.187 63.4995 25.302 63.3988 25.302 63.2746V59.573C25.302 59.4488 25.187 59.3481 25.0452 59.3481Z" fill="#AAAAAA"/>
<path d="M37.7981 60.3454C38.1492 61.2987 38.2326 62.2847 38.0483 63.3033C38.0294 63.3979 37.9704 63.4829 37.8831 63.541C37.7957 63.5991 37.6864 63.6261 37.5772 63.6167C37.468 63.6072 37.367 63.5619 37.2944 63.4898C37.2218 63.4178 37.1829 63.3244 37.1857 63.2283C37.2296 62.1175 37.223 61.0047 37.166 59.8899C37.1528 59.667 37.2077 59.5113 37.3306 59.4229C37.4974 59.2999 37.7213 59.2865 38.0022 59.3826C38.0468 59.3979 38.0864 59.4224 38.1178 59.4541C38.1492 59.4858 38.1713 59.5236 38.1823 59.5645C38.1933 59.6053 38.1928 59.6478 38.181 59.6884C38.1691 59.729 38.1462 59.7665 38.1141 59.7977L37.8771 60.0341C37.7805 60.1263 37.7542 60.2301 37.7981 60.3454Z" fill="#AAAAAA"/>
<path d="M74.0843 60.8992C74.6945 60.4302 75.2893 60.4456 75.8687 60.9453C76.0399 61.0913 76.1255 61.2701 76.1255 61.4815V63.2516C76.1255 63.4053 76.0399 63.488 75.8687 63.4995L75.5329 63.5226C75.2344 63.5456 75.1005 63.4265 75.1312 63.1651C75.1883 62.627 75.1927 62.1888 75.1444 61.8505C75.1185 61.6967 75.0271 61.5567 74.8885 61.4586C74.7499 61.3605 74.5744 61.3117 74.3974 61.3219C74.2204 61.3322 74.0551 61.4007 73.9347 61.5138C73.8143 61.6268 73.7477 61.776 73.7485 61.9312L73.7617 63.119C73.7661 63.3804 73.619 63.488 73.3205 63.4419L72.3592 63.2977C72.3211 63.2922 72.2859 63.2768 72.258 63.2534C72.2301 63.23 72.211 63.1998 72.2032 63.1667C72.1954 63.1336 72.1992 63.0992 72.2141 63.0681C72.229 63.0369 72.2543 63.0104 72.2868 62.9921L72.5765 62.8249C72.6293 62.7932 72.6725 62.7508 72.7023 62.7016C72.7322 62.6524 72.7477 62.5977 72.7477 62.5424L72.7872 59.4577C72.7811 59.3614 72.8189 59.2669 72.8924 59.195C72.9659 59.123 73.069 59.0796 73.179 59.0743C73.289 59.0689 73.3969 59.1021 73.479 59.1664C73.5612 59.2308 73.6107 59.321 73.6168 59.4174L73.821 60.8069C73.8253 60.8325 73.8372 60.8568 73.8554 60.8772C73.8736 60.8976 73.8975 60.9134 73.9245 60.9228C73.9515 60.9323 73.9806 60.935 74.0087 60.9309C74.0368 60.9267 74.063 60.9158 74.0843 60.8992Z" fill="#AAAAAA"/>
<path d="M80.3869 60.5704L80.7161 60.6511C81.1814 60.7664 81.2012 60.924 80.7754 61.1239C79.9677 61.5006 79.7351 62.1713 80.0774 63.1361C80.0926 63.1761 80.0971 63.2185 80.0907 63.2602C80.0843 63.302 80.0671 63.3419 80.0405 63.3769C80.0138 63.4119 79.9784 63.4412 79.9369 63.4624C79.8953 63.4836 79.8488 63.4963 79.8009 63.4994L79.3729 63.5282C79.3129 63.5318 79.2529 63.5227 79.1976 63.5018C79.1424 63.4808 79.0935 63.4485 79.055 63.4074C79.0165 63.3664 78.9895 63.3179 78.9761 63.2657C78.9626 63.2135 78.9633 63.1593 78.9779 63.1073C79.1447 62.5346 79.0678 62.0118 78.7474 61.539C78.5558 61.2557 78.4474 60.9107 78.4399 60.5598C78.4323 60.209 78.5261 59.873 78.7059 59.6061C78.8857 59.3392 79.1411 59.1571 79.4306 59.0894C79.7202 59.0216 80.027 59.0721 80.3013 59.2327C80.4813 59.3365 80.6415 59.3826 80.782 59.3711C80.843 59.3673 80.9037 59.3814 80.9546 59.4111C81.0055 59.4408 81.0438 59.4844 81.0633 59.5352C81.0829 59.5859 81.0827 59.6409 81.0628 59.6916C81.0428 59.7422 81.0043 59.7856 80.9532 59.8151L80.3211 60.1668C80.279 60.1904 80.2453 60.2242 80.2243 60.2641C80.2033 60.3039 80.1958 60.348 80.2028 60.391C80.2098 60.4339 80.231 60.4738 80.2637 60.5057C80.2964 60.5376 80.3393 60.56 80.3869 60.5704Z" fill="#AAAAAA"/>
<path d="M50.7494 63.0844L51.0589 63.044C51.3837 63.0017 51.4539 63.0978 51.2696 63.3323C51.0237 63.6513 50.723 63.7666 50.3675 63.6782C49.3842 63.4399 48.9979 62.846 49.2086 61.8966C49.2569 61.6698 49.1669 61.4968 48.9387 61.3777C48.7982 61.3047 48.7302 61.1893 48.7346 61.0317C48.7434 60.828 48.8355 60.657 49.0111 60.5186C49.2525 60.3264 49.3623 60.0765 49.3403 59.769C49.3356 59.7049 49.3588 59.6421 49.4052 59.5931C49.4515 59.5441 49.5178 59.5124 49.5907 59.5044C49.6637 59.4964 49.738 59.5127 49.7989 59.55C49.8599 59.5872 49.903 59.6428 49.9198 59.7056C50.0558 60.2822 50.4377 60.6339 51.0654 60.7608C51.5483 60.8607 51.4649 61.0279 50.8152 61.2624C50.1392 61.5084 49.9724 62.0388 50.3148 62.8537C50.3894 63.0344 50.5343 63.1113 50.7494 63.0844Z" fill="#AAAAAA"/>
<path d="M115.257 62.8132L115.461 62.669C115.486 62.6523 115.515 62.6404 115.545 62.6342C115.575 62.628 115.607 62.6276 115.638 62.6331C115.668 62.6386 115.697 62.6498 115.722 62.6659C115.748 62.6821 115.769 62.7028 115.784 62.7267L116.06 63.1649C116.099 63.2284 116.117 63.3004 116.111 63.3724C116.105 63.4444 116.076 63.5134 116.027 63.5715C115.978 63.6295 115.911 63.6741 115.834 63.7001C115.758 63.7261 115.674 63.7325 115.593 63.7184L114.414 63.4993C114.309 63.4783 114.217 63.4239 114.156 63.347C114.095 63.27 114.07 63.1761 114.085 63.0842C114.182 62.5537 114.212 62.1789 114.177 61.9598C114.146 61.7312 114.015 61.5139 113.812 61.3534C113.609 61.193 113.35 61.1017 113.088 61.0987C112.826 61.0957 112.582 61.1813 112.407 61.3375C112.232 61.4937 112.14 61.7084 112.149 61.9368L112.189 63.2687C112.193 63.4416 112.097 63.5243 111.899 63.5166L111.557 63.5051C111.32 63.5012 111.201 63.3955 111.201 63.1879L111.247 60.8182C111.252 60.6299 111.357 60.5511 111.563 60.5818L113.697 60.8643C113.868 60.8874 113.982 60.8259 114.039 60.6798L114.408 59.6593C114.432 59.5973 114.481 59.5455 114.547 59.5141C114.612 59.4828 114.689 59.4743 114.761 59.4903C114.834 59.5064 114.896 59.5458 114.937 59.6006C114.978 59.6554 114.993 59.7217 114.981 59.7861C114.862 60.3204 115.121 60.5857 115.758 60.5818C115.852 60.5812 115.943 60.6092 116.016 60.6611C116.088 60.7131 116.138 60.7858 116.157 60.867C116.175 60.9482 116.162 61.033 116.118 61.1071C116.074 61.1811 116.002 61.24 115.916 61.2737L115.376 61.4755C115.2 61.5447 115.099 61.6619 115.073 61.8272L114.941 62.6633C114.897 62.94 115.003 62.99 115.257 62.8132Z" fill="#AAAAAA"/>
<path d="M2.57225 62.9C2.67755 62.984 2.80879 63.0389 2.94955 63.0579C3.09031 63.0769 3.23434 63.0591 3.36363 63.0068C3.49293 62.9545 3.60174 62.87 3.67647 62.7638C3.75119 62.6577 3.78852 62.5346 3.78377 62.4099C3.75743 61.768 4.10421 61.6661 4.8241 62.1043C4.91796 62.1611 4.99482 62.2368 5.04831 62.3251C5.10179 62.4134 5.13036 62.5118 5.13165 62.6121C5.13294 62.7124 5.10691 62.8118 5.05571 62.902C5.00452 62.9922 4.92963 63.0705 4.83727 63.1306C1.82821 65.0679 -1.00306 61.5624 1.51875 59.9768C2.28912 59.4982 3.40846 59.7115 4.30393 59.8153C4.5717 59.8422 4.67705 59.9729 4.61998 60.2074C4.58048 60.3727 4.42026 60.4918 4.13932 60.5649C4.04484 60.5912 3.94149 60.5912 3.84303 60.5649C2.65345 60.2727 1.86333 60.6206 1.47266 61.6085C1.43566 61.6986 1.43031 61.7966 1.45726 61.89C1.48422 61.9834 1.54227 62.068 1.6241 62.1332L2.57225 62.9Z" fill="#AAAAAA"/>
<path d="M29.654 62.9171C29.766 62.9969 29.9014 63.0473 30.0447 63.0624C30.1879 63.0776 30.3334 63.0569 30.4645 63.0029C30.5955 62.9488 30.7069 62.8634 30.786 62.7565C30.865 62.6496 30.9086 62.5255 30.9116 62.3982L30.9709 59.9824C30.9753 59.744 31.1113 59.6479 31.3791 59.6941L31.7149 59.7575C31.7765 59.7693 31.8316 59.7992 31.8711 59.8422C31.9106 59.8852 31.9321 59.9387 31.9322 59.9939L31.9388 62.6634C31.9388 62.8748 31.8422 63.0421 31.6491 63.1651C30.6746 63.7916 29.6584 63.8512 28.6005 63.3438C28.51 63.3008 28.4316 63.2401 28.3712 63.1662C28.3108 63.0924 28.2699 63.0072 28.2515 62.9171C28.032 61.9216 27.9925 60.9145 28.133 59.8959C28.1391 59.7995 28.1887 59.7093 28.2708 59.6449C28.3529 59.5806 28.4608 59.5475 28.5709 59.5528C28.6809 59.5582 28.784 59.6016 28.8574 59.6735C28.9309 59.7454 28.9687 59.8399 28.9626 59.9362L28.9758 62.1503C28.9802 62.3502 29.0702 62.5116 29.2458 62.6346L29.654 62.9171Z" fill="#AAAAAA"/>
<path d="M59.6651 60.7951C59.788 60.5068 59.9548 60.2378 60.1655 59.9879C60.3455 59.765 60.5386 59.6593 60.745 59.6708C60.9381 59.6862 61.1005 59.7957 61.2322 59.9994C61.2762 60.07 61.2935 60.151 61.2817 60.2308C61.2699 60.3106 61.2295 60.385 61.1663 60.4434C60.3148 61.2391 59.8209 62.1635 59.6849 63.2167C59.6629 63.4012 59.5444 63.4935 59.3293 63.4935C59.2591 63.4935 59.1888 63.4935 59.1186 63.4935C58.9342 63.4973 58.8443 63.4185 58.8487 63.2571L58.875 61.9771C58.8772 61.8642 58.8493 61.7523 58.7933 61.6502C58.7373 61.5482 58.6548 61.4587 58.5524 61.389C58.0256 61.0238 57.7183 60.528 57.6305 59.9014C57.5954 59.6285 57.7271 59.5305 58.0256 59.6074C58.6533 59.765 59.055 60.1532 59.2305 60.7721C59.3447 61.1833 59.4895 61.191 59.6651 60.7951Z" fill="#AAAAAA"/>
<path d="M70.0099 60.8642C69.9833 60.7513 69.9867 60.6344 70.0198 60.5225C70.0529 60.4106 70.1148 60.3066 70.2009 60.2184C70.9822 59.4112 71.4607 59.6649 71.6363 60.9795C71.6535 61.1192 71.6262 61.2608 71.5573 61.3889C71.1534 62.1154 71.25 62.7458 71.847 63.2801C71.8843 63.3148 71.9088 63.3586 71.9172 63.4057C71.9257 63.4529 71.9176 63.5012 71.8941 63.5442C71.8705 63.5873 71.8327 63.6231 71.7855 63.6469C71.7383 63.6708 71.684 63.6816 71.6297 63.6779C71.34 63.6548 71.0634 63.5991 70.8001 63.5107C70.6508 63.4607 70.5608 63.3685 70.5301 63.2339L70.0099 60.8642Z" fill="#AAAAAA"/>
<path d="M92.2055 62.3693L90.2763 61.6947C90.1139 61.6409 90.0349 61.5371 90.0393 61.3834L90.0656 60.1841C90.0689 60.0688 90.1227 59.959 90.2159 59.8775C90.309 59.7959 90.4343 59.7488 90.566 59.7459L92.5282 59.7113C92.8135 59.7036 92.9496 59.8247 92.9364 60.0745L92.9166 60.3167C92.9035 60.5166 92.7828 60.6088 92.5545 60.5934L91.3759 60.5243C91.3247 60.5221 91.2739 60.5321 91.2287 60.5532C91.1835 60.5744 91.1457 60.6059 91.1194 60.6443C91.093 60.6828 91.0791 60.7268 91.079 60.7716C91.079 60.8165 91.0928 60.8605 91.1191 60.899C91.3957 61.2911 91.8127 61.4833 92.3701 61.4756C92.5852 61.4718 92.774 61.5294 92.9364 61.6486C93.428 62.0099 93.5575 62.4173 93.3249 62.8709C92.6862 64.0933 90.8426 63.7877 89.8483 63.1073C89.7986 63.0727 89.7608 63.0267 89.7392 62.9744C89.7176 62.9221 89.713 62.8656 89.726 62.8112C89.739 62.7567 89.769 62.7065 89.8127 62.6662C89.8564 62.6258 89.912 62.5969 89.9734 62.5826C90.4826 62.4635 90.9435 62.5826 91.3561 62.9401C91.5405 63.1016 91.7446 63.1246 91.9685 63.0093L92.2516 62.8594C92.6116 62.6672 92.5962 62.5038 92.2055 62.3693Z" fill="#AAAAAA"/>
<path d="M6.73356 62.8535C6.77746 62.915 6.83891 62.9592 6.91793 62.9862C7.10229 63.0515 7.2669 63.0726 7.41175 63.0496L8.3599 62.8997C8.41884 62.8863 8.48133 62.8921 8.53567 62.9162C8.59001 62.9403 8.63246 62.9809 8.65507 63.0304C8.67769 63.0799 8.67891 63.1349 8.65851 63.1851C8.63811 63.2354 8.59749 63.2774 8.54426 63.3033C7.57856 63.8606 6.6348 63.8145 5.71299 63.1649C5.54324 63.045 5.41767 62.8841 5.35206 62.7025C5.28645 62.5209 5.28374 62.3267 5.34426 62.1443C5.67787 61.1449 6.31436 60.6126 7.25373 60.5472C8.38624 60.4665 9.16319 61.1815 8.73521 62.1732C8.65181 62.3577 8.49817 62.4538 8.27431 62.4615L6.9311 62.5076C6.6326 62.5191 6.56676 62.6344 6.73356 62.8535ZM7.74097 61.7811C7.78265 61.7691 7.81857 61.7452 7.84304 61.7133C7.86752 61.6814 7.87917 61.6433 7.87615 61.6049C7.87313 61.5666 7.85561 61.5302 7.82637 61.5016C7.79712 61.4729 7.75781 61.4536 7.71463 61.4467L6.69406 61.3314C6.63 61.3236 6.56554 61.3373 6.5133 61.3696C6.46106 61.402 6.4248 61.4507 6.41162 61.5062C6.39844 61.5617 6.40929 61.6201 6.44204 61.6699C6.4748 61.7197 6.5271 61.7573 6.58871 61.7753C6.9706 61.8791 7.35469 61.881 7.74097 61.7811Z" fill="#AAAAAA"/>
<path d="M10.7168 61.6544L10.697 63.2284C10.697 63.363 10.6224 63.4514 10.4731 63.4937C10.2229 63.559 10.032 63.5302 9.9003 63.4072C9.81689 63.3341 9.77958 63.2111 9.78836 63.0382C9.80592 62.3155 9.82348 61.5967 9.84104 60.8818C9.84543 60.6704 9.96834 60.5666 10.2098 60.5704L11.8098 60.5819C12.0512 60.5858 12.2531 60.6684 12.4155 60.8299C13.0827 61.5025 13.3329 62.2963 13.1661 63.2111C13.131 63.4033 13.0015 63.486 12.7777 63.4591L12.2575 63.3956C12.0029 63.3649 11.9195 63.2438 12.0073 63.0324C12.3365 62.2252 12.0709 61.6697 11.2106 61.3661C11.1563 61.3475 11.0978 61.3407 11.0399 61.3462C10.9819 61.3517 10.9264 61.3693 10.8779 61.3976C10.8295 61.4259 10.7895 61.464 10.7614 61.5087C10.7334 61.5534 10.7181 61.6034 10.7168 61.6544Z" fill="#AAAAAA"/>
<path d="M16.8139 63.0038C16.8841 63.1499 16.8227 63.2729 16.6295 63.3728C13.8904 64.7739 12.3629 61.6719 15.1217 60.4784C15.3358 60.3855 15.5751 60.3464 15.813 60.3656C16.0509 60.3847 16.278 60.4613 16.4691 60.5869C16.6603 60.7124 16.8078 60.8819 16.8955 61.0765C16.9831 61.2711 17.0073 61.4832 16.9653 61.6892L16.7744 62.6405C16.7481 62.7635 16.7612 62.8846 16.8139 63.0038ZM15.7867 61.8449C15.8523 61.8231 15.9073 61.7821 15.9422 61.7288C15.9771 61.6755 15.9898 61.6133 15.9781 61.5528C15.9665 61.4922 15.9312 61.437 15.8783 61.3967C15.8253 61.3564 15.7581 61.3334 15.688 61.3317L14.8978 61.349C14.8429 61.3487 14.7895 61.3646 14.7462 61.3942C14.7029 61.4237 14.6723 61.4653 14.6593 61.512C14.6464 61.5587 14.6518 61.6079 14.6748 61.6516C14.6978 61.6953 14.7369 61.7309 14.7859 61.7526C15.102 61.9102 15.4356 61.941 15.7867 61.8449ZM15.1876 62.456C15.1606 62.456 15.1342 62.4606 15.1104 62.4695C15.0865 62.4785 15.0657 62.4916 15.0493 62.5079C14.7947 62.7655 14.8298 62.9404 15.1546 63.0326C15.5673 63.1518 15.9009 63.0922 16.1555 62.8539C16.1925 62.8195 16.2168 62.7764 16.2256 62.7299C16.2343 62.6833 16.227 62.6354 16.2047 62.592C16.1823 62.5485 16.1458 62.5114 16.0997 62.4853C16.0535 62.4591 15.9997 62.4449 15.9448 62.4445L15.1876 62.456Z" fill="#AAAAAA"/>
<path d="M18.9415 61.5278L18.9283 63.344C18.9284 63.3874 18.9092 63.4291 18.8748 63.4603C18.8404 63.4915 18.7935 63.5097 18.744 63.5112L18.1448 63.5285C18.1192 63.5293 18.0936 63.5255 18.0697 63.5175C18.0458 63.5094 18.0239 63.4972 18.0055 63.4816C17.9871 63.466 17.9724 63.4473 17.9624 63.4267C17.9524 63.406 17.9473 63.3838 17.9473 63.3613V60.7552C17.9473 60.7327 17.9524 60.7105 17.9624 60.6899C17.9724 60.6692 17.9871 60.6505 18.0055 60.6349C18.0239 60.6193 18.0458 60.6071 18.0697 60.599C18.0936 60.591 18.1192 60.5872 18.1448 60.588L19.6329 60.6168C19.6802 60.6182 19.7252 60.6348 19.7593 60.6636C19.7933 60.6923 19.814 60.7311 19.8172 60.7725L19.8633 61.2049C19.8663 61.2293 19.8631 61.2539 19.854 61.2771C19.8449 61.3003 19.8301 61.3214 19.8106 61.339C19.7911 61.3566 19.7675 61.3703 19.7413 61.379C19.7151 61.3877 19.6871 61.3913 19.6592 61.3894L19.1456 61.3606C19.1195 61.359 19.0932 61.3622 19.0685 61.3699C19.0438 61.3775 19.0212 61.3896 19.002 61.4053C18.9829 61.421 18.9676 61.44 18.9572 61.461C18.9468 61.4821 18.9414 61.5048 18.9415 61.5278Z" fill="#AAAAAA"/>
<path d="M22.2922 61.4411C21.862 61.345 21.4253 61.3238 20.9819 61.3776C20.9508 61.3816 20.9189 61.3793 20.8891 61.3707C20.8592 61.3622 20.8322 61.3477 20.8103 61.3285C20.7884 61.3093 20.7722 61.286 20.7631 61.2604C20.754 61.2349 20.7523 61.2078 20.7581 61.1816L20.7976 60.9856C20.8371 60.7738 20.9508 60.5784 21.123 60.426C21.2951 60.2736 21.5173 60.1717 21.759 60.1344C22.0008 60.0972 22.2501 60.1263 22.4729 60.2178C22.6957 60.3092 22.881 60.4586 23.0033 60.6454C23.495 61.3988 23.7166 62.1772 23.6684 62.9805C23.6552 63.1919 23.5345 63.3361 23.3062 63.413C22.3361 63.7358 21.4121 63.732 20.5342 63.4014C20.2796 63.3053 20.183 63.14 20.2445 62.9056C20.4684 62.0599 21.129 61.6794 22.2264 61.7639C22.2742 61.7675 22.3224 61.755 22.3611 61.729C22.3998 61.7031 22.426 61.6656 22.4344 61.6244C22.4428 61.5831 22.4328 61.5411 22.4064 61.5071C22.3799 61.473 22.3391 61.4494 22.2922 61.4411ZM22.4898 62.6C22.5775 62.4232 22.5117 62.3367 22.2922 62.3405L21.4758 62.3694C21.3726 62.3663 21.2719 62.3975 21.194 62.4569C21.1161 62.5162 21.0668 62.5992 21.0559 62.6891C21.0451 62.779 21.0735 62.8691 21.1355 62.9414C21.1975 63.0137 21.2885 63.0627 21.3902 63.0785C21.8994 63.19 22.2659 63.0305 22.4898 62.6Z" fill="#AAAAAA"/>
<path d="M33.8548 61.6892C33.7758 62.1966 33.7692 62.6674 33.8351 63.1018C33.8478 63.1904 33.8251 63.2799 33.771 63.3547C33.7168 63.4296 33.6346 63.4849 33.5388 63.5112C33.3061 63.5727 33.1196 63.5438 32.9791 63.4247C32.8782 63.3363 32.8299 63.1998 32.8343 63.0153C32.8518 62.2696 32.8738 61.5181 32.9001 60.7609C32.9021 60.7215 32.9144 60.6831 32.9359 60.6485C32.9574 60.614 32.9876 60.5844 33.024 60.562C33.0604 60.5396 33.1021 60.5251 33.1457 60.5196C33.1894 60.5141 33.2338 60.5177 33.2754 60.5303L33.8022 60.6802C34.0172 60.7417 34.2279 60.734 34.4343 60.6571C35.2244 60.3573 35.8016 60.5956 36.1659 61.3721C36.302 61.6642 36.3064 62.2965 36.1791 63.269C36.1572 63.442 36.0474 63.5227 35.8499 63.5112L35.6063 63.4939C35.3517 63.4747 35.2244 63.3536 35.2244 63.1306L35.2376 61.7699C35.2385 61.6161 35.1727 61.4683 35.0535 61.3563C34.9343 61.2442 34.7706 61.1762 34.5952 61.1659C34.4199 61.1557 34.246 61.204 34.1087 61.3011C33.9713 61.3982 33.8806 61.5369 33.8548 61.6892Z" fill="#AAAAAA"/>
<path d="M42.4557 62.5125C42.3541 62.9203 42.0601 63.274 41.6385 63.4956C41.2168 63.7172 40.7019 63.7886 40.2071 63.6942C39.7123 63.5997 39.2782 63.347 39.0001 62.9918C38.722 62.6366 38.6229 62.2079 38.7244 61.8C38.826 61.3922 39.12 61.0385 39.5417 60.8169C39.9633 60.5953 40.4782 60.5239 40.973 60.6184C41.4678 60.7128 41.902 60.9655 42.18 61.3207C42.4581 61.6759 42.5572 62.1046 42.4557 62.5125ZM39.53 62.3811L40.2477 63.1364C40.3029 63.195 40.3823 63.232 40.4686 63.2396C40.5549 63.2472 40.6412 63.2246 40.7086 63.1768L40.9785 62.9808C41.1102 62.8855 41.2273 62.7771 41.3231 62.6617C41.4189 62.5464 41.4915 62.4263 41.5368 62.3084C41.5821 62.1906 41.5991 62.0773 41.5869 61.975C41.5747 61.8726 41.5336 61.7834 41.4658 61.7123L41.3538 61.597C41.2171 61.4549 40.9818 61.3946 40.6993 61.4291C40.4169 61.4637 40.1101 61.5904 39.846 61.7815L39.5761 61.9775C39.5092 62.0259 39.4669 62.0954 39.4582 62.171C39.4496 62.2466 39.4754 62.3221 39.53 62.3811Z" fill="#AAAAAA"/>
<path d="M44.5471 61.4122C44.2486 61.9657 44.1981 62.5423 44.3956 63.1419C44.4104 63.1852 44.4134 63.231 44.4043 63.2754C44.3952 63.3198 44.3742 63.3615 44.3433 63.3971C44.3123 63.4327 44.2722 63.4611 44.2263 63.4799C44.1804 63.4987 44.1301 63.5074 44.0796 63.5052L43.4343 63.4879C43.2017 63.4802 43.0875 63.3745 43.0919 63.1708L43.1446 60.8702C43.149 60.6473 43.2763 60.5416 43.5265 60.5531L45.8047 60.6569C45.9386 60.6627 46.065 60.7131 46.158 60.7978C46.251 60.8824 46.3036 60.9949 46.3051 61.1124L46.3248 63.1362C46.3292 63.3975 46.18 63.5263 45.8771 63.5225L45.673 63.5167C45.6013 63.5153 45.5328 63.4901 45.4815 63.4462C45.4302 63.4024 45.3998 63.3431 45.3964 63.2803L45.324 61.5563C45.3217 61.476 45.2885 61.3986 45.2298 61.3368C45.1711 61.275 45.0903 61.2323 45.0005 61.2157C44.9107 61.199 44.8171 61.2093 44.7348 61.245C44.6525 61.2806 44.5864 61.3396 44.5471 61.4122Z" fill="#AAAAAA"/>
<path d="M55.4063 62.7261C55.2426 63.1198 54.8934 63.4361 54.4354 63.6054C53.9774 63.7747 53.4481 63.7831 52.964 63.6289C52.7243 63.5525 52.5029 63.4384 52.3125 63.2932C52.122 63.148 51.9663 62.9746 51.8541 62.7827C51.7419 62.5908 51.6754 62.3843 51.6586 62.1749C51.6417 61.9656 51.6747 61.7575 51.7558 61.5625C51.9194 61.1688 52.2687 60.8525 52.7267 60.6832C53.1847 60.5139 53.714 60.5054 54.1981 60.6597C54.4378 60.7361 54.6592 60.8502 54.8496 60.9953C55.0401 61.1405 55.1958 61.314 55.308 61.5059C55.4202 61.6978 55.4866 61.9043 55.5035 62.1136C55.5204 62.323 55.4873 62.5311 55.4063 62.7261ZM52.5605 62.4383L53.2847 63.1187C53.3132 63.1453 53.3474 63.1667 53.3854 63.1816C53.4233 63.1966 53.4643 63.2048 53.5059 63.2059C53.5475 63.207 53.5889 63.2008 53.6278 63.1879C53.6667 63.1749 53.7023 63.1553 53.7325 63.1302L54.0156 62.8996C54.2667 62.6939 54.4522 62.4447 54.5312 62.2068C54.6103 61.969 54.5764 61.7619 54.437 61.6311L54.3317 61.5273C54.1911 61.3975 53.9568 61.355 53.6802 61.409C53.4036 61.4631 53.1074 61.6093 52.8568 61.8156L52.5736 62.0463C52.5433 62.0712 52.5189 62.1012 52.5018 62.1344C52.4847 62.1676 52.4753 62.2035 52.474 62.2399C52.4728 62.2763 52.4798 62.3126 52.4946 62.3467C52.5095 62.3807 52.5318 62.4119 52.5605 62.4383Z" fill="#AAAAAA"/>
<path d="M65.0471 62.6986C64.8946 63.0909 64.5566 63.41 64.1074 63.5856C63.6583 63.7613 63.1348 63.7791 62.6521 63.6352C62.1694 63.4913 61.767 63.1975 61.5335 62.8183C61.3 62.4392 61.2545 62.0058 61.407 61.6135C61.5595 61.2212 61.8976 60.9022 62.3467 60.7265C62.7959 60.5509 63.3194 60.533 63.8021 60.6769C64.2848 60.8208 64.6872 61.1147 64.9206 61.4938C65.1541 61.8729 65.1996 62.3063 65.0471 62.6986ZM62.64 62.9503C62.8321 63.0672 63.0789 63.1005 63.3261 63.0429C63.5733 62.9853 63.8007 62.8415 63.9581 62.6432C64.0361 62.5449 64.0946 62.4362 64.1302 62.3233C64.1658 62.2104 64.1779 62.0955 64.1658 61.9851C64.1536 61.8746 64.1175 61.7709 64.0594 61.6798C64.0014 61.5887 63.9225 61.5121 63.8274 61.4541C63.6352 61.3372 63.3884 61.3039 63.1412 61.3615C62.894 61.4191 62.6667 61.5629 62.5092 61.7612C62.4312 61.8595 62.3728 61.9682 62.3371 62.0811C62.3015 62.194 62.2894 62.3089 62.3016 62.4194C62.3137 62.5298 62.3498 62.6335 62.4079 62.7246C62.466 62.8157 62.5448 62.8923 62.64 62.9503Z" fill="#AAAAAA"/>
<path d="M66.9468 62.9114C66.9485 62.9697 66.9633 63.0271 66.9904 63.0804C67.0175 63.1337 67.0563 63.1818 67.1046 63.2219C67.2021 63.303 67.3325 63.3469 67.4669 63.3438C67.5335 63.3423 67.5991 63.3293 67.66 63.3056C67.7208 63.2819 67.7757 63.2479 67.8216 63.2056C67.8674 63.1633 67.9033 63.1135 67.9272 63.0591C67.9511 63.0046 67.9625 62.9466 67.9608 62.8883L68.0003 60.8588C68.0019 60.7865 68.0322 60.7169 68.0861 60.6613C68.14 60.6057 68.2142 60.5676 68.2966 60.5532L68.4809 60.5186C68.5266 60.511 68.5735 60.5122 68.6185 60.5223C68.6635 60.5324 68.7054 60.551 68.7413 60.5769C68.7771 60.6028 68.806 60.6352 68.8258 60.672C68.8457 60.7088 68.8561 60.7489 68.8562 60.7896L68.8826 63.0959C68.8826 63.3842 68.718 63.536 68.3888 63.5514L66.6571 63.6321C66.3937 63.6436 66.2005 63.5456 66.0776 63.338C65.6123 62.5539 65.4587 61.7255 65.6167 60.853C65.6562 60.6377 65.8011 60.5474 66.0513 60.582L66.4925 60.6397C66.5709 60.6489 66.6432 60.6821 66.6972 60.7336C66.7512 60.7851 66.7836 60.8518 66.7888 60.9222L66.9468 62.9114Z" fill="#AAAAAA"/>
<path d="M81.8749 60.7087C81.9763 60.5482 82.1462 60.4295 82.3475 60.3786C82.5487 60.3278 82.7648 60.3491 82.9482 60.4377L83.6329 60.7663C84.1178 61 84.497 61.3609 84.6872 61.7696C84.8773 62.1783 84.8628 62.6014 84.6469 62.9458L84.6008 63.015C84.4936 63.1857 84.3401 63.3318 84.149 63.4451C83.9578 63.5583 83.7329 63.6365 83.4871 63.675C83.2412 63.7136 82.9793 63.7118 82.7162 63.6698C82.4531 63.6278 82.1941 63.5463 81.9539 63.4301L81.2692 63.1015C81.0859 63.0127 80.9503 62.8639 80.8923 62.6877C80.8342 62.5114 80.8585 62.3222 80.9597 62.1617L81.8749 60.7087ZM81.9144 62.3865L82.7704 63.1245C82.7959 63.1461 82.826 63.1631 82.859 63.1745C82.892 63.1859 82.9272 63.1915 82.9627 63.191C82.9982 63.1904 83.0332 63.1838 83.0657 63.1714C83.0982 63.159 83.1276 63.1411 83.1523 63.1188L83.2906 62.9977C83.4262 62.8772 83.5458 62.7451 83.6424 62.6091C83.739 62.4731 83.8108 62.3358 83.8536 62.2051C83.8964 62.0744 83.9095 61.9528 83.8919 61.8474C83.8744 61.742 83.8267 61.6548 83.7515 61.5908L83.6461 61.5044C83.4962 61.3747 83.2444 61.3462 82.9458 61.4251C82.6472 61.504 82.3261 61.6838 82.0527 61.9253L81.9144 62.0521C81.8893 62.0741 81.8694 62.1001 81.8559 62.1288C81.8423 62.1575 81.8353 62.1883 81.8353 62.2193C81.8353 62.2504 81.8423 62.2811 81.8559 62.3098C81.8694 62.3385 81.8893 62.3646 81.9144 62.3865Z" fill="#AAAAAA"/>
<path d="M86.7464 61.7868L86.7596 63.2282C86.7596 63.4166 86.6498 63.5127 86.4304 63.5165L86.0814 63.5223C85.8487 63.5261 85.7324 63.4262 85.7324 63.2225V61.0027C85.7324 60.7413 85.8817 60.6067 86.1802 60.599L87.2007 60.576C87.5256 60.5683 87.6814 60.7067 87.6682 60.9911C87.6551 61.3025 87.4751 61.4562 87.1283 61.4524C86.8693 61.4485 86.742 61.56 86.7464 61.7868Z" fill="#AAAAAA"/>
<path d="M96.1678 62.7611L96.3917 60.8123C96.3976 60.7558 96.4244 60.7024 96.4682 60.6599C96.5121 60.6173 96.5706 60.5879 96.6353 60.5759L96.8526 60.5356C96.9057 60.5271 96.9602 60.529 97.0124 60.541C97.0646 60.5531 97.1131 60.575 97.1545 60.6052C97.196 60.6354 97.2293 60.6733 97.2522 60.716C97.2752 60.7588 97.2871 60.8054 97.2872 60.8527V63.1186C97.2872 63.3339 97.1643 63.455 96.9185 63.4819L95.1736 63.6837C95.0112 63.7027 94.8459 63.6795 94.6984 63.6169C94.5509 63.5544 94.4277 63.4553 94.344 63.332C93.826 62.5747 93.7119 61.7291 94.0016 60.795C94.0718 60.5759 94.2342 60.4875 94.4888 60.5298L94.7456 60.5644C94.7754 60.57 94.8037 60.5806 94.8289 60.5955C94.854 60.6105 94.8754 60.6295 94.892 60.6515C94.9085 60.6735 94.9198 60.698 94.9252 60.7236C94.9306 60.7493 94.93 60.7755 94.9234 60.8008C94.739 61.5388 94.8444 62.2441 95.2394 62.9168C95.2887 62.999 95.3668 63.0651 95.4623 63.1054C95.5578 63.1457 95.6655 63.1581 95.7696 63.1406C95.8737 63.1231 95.9686 63.0768 96.0403 63.0085C96.112 62.9402 96.1567 62.8534 96.1678 62.7611Z" fill="#AAAAAA"/>
<path d="M99.1189 63.8226L99.1913 64.4683C99.2133 64.6951 99.097 64.8123 98.8424 64.82L98.6185 64.8316C98.5751 64.8331 98.5317 64.8268 98.491 64.813C98.4504 64.7992 98.4133 64.7782 98.3819 64.7513C98.3505 64.7244 98.3256 64.6921 98.3085 64.6563C98.2915 64.6206 98.2827 64.5821 98.2827 64.5433L98.2695 60.9108C98.2695 60.7033 98.388 60.5995 98.6251 60.5995L100.765 60.5822C100.958 60.5783 101.112 60.6456 101.226 60.784C102.121 61.8872 101.992 62.8385 100.837 63.638C100.769 63.6859 100.688 63.7179 100.602 63.731C100.515 63.7441 100.426 63.7379 100.344 63.713L99.593 63.4939C99.5361 63.4775 99.4754 63.4737 99.4164 63.4829C99.3574 63.492 99.3019 63.5139 99.2549 63.5465C99.2079 63.579 99.1709 63.6213 99.1472 63.6695C99.1234 63.7177 99.1137 63.7703 99.1189 63.8226ZM100.291 61.3433L99.3494 61.4528C99.2735 61.4615 99.2046 61.496 99.1578 61.5489C99.1109 61.6019 99.0898 61.6689 99.0992 61.7353L99.1716 62.2197C99.1911 62.346 99.2287 62.469 99.282 62.5815C99.3353 62.694 99.4034 62.7938 99.4823 62.8753C99.5612 62.9567 99.6494 63.0181 99.7418 63.056C99.8343 63.0939 99.9291 63.1075 100.021 63.0961L100.139 63.0788C100.323 63.0555 100.484 62.9334 100.586 62.7391C100.688 62.5448 100.724 62.2939 100.686 62.0409L100.614 61.5566C100.602 61.4912 100.562 61.4324 100.502 61.3925C100.441 61.3527 100.366 61.335 100.291 61.3433Z" fill="#AAAAAA"/>
<path d="M103.549 63.7242C103.54 63.9087 103.534 64.0855 103.529 64.2546C103.525 64.5045 103.466 64.6736 103.351 64.762C103.228 64.8581 103.064 64.887 102.858 64.8485C102.656 64.8101 102.555 64.7005 102.555 64.5199V60.9855C102.555 60.7356 102.697 60.6088 102.983 60.6049L105.057 60.5934C105.148 60.5916 105.239 60.6096 105.322 60.6457C105.404 60.6818 105.476 60.7351 105.531 60.8009C106.312 61.7196 106.286 62.6249 105.452 63.5166C105.377 63.5979 105.277 63.6589 105.164 63.6926C105.051 63.7263 104.929 63.7312 104.813 63.7069L103.878 63.5051C103.667 63.459 103.558 63.532 103.549 63.7242ZM104.708 61.4121C104.629 61.3286 104.525 61.2668 104.407 61.2338C104.289 61.2008 104.163 61.1981 104.043 61.2259C103.922 61.2537 103.814 61.3109 103.728 61.3908C103.643 61.4708 103.586 61.5701 103.562 61.6773C103.387 62.4538 103.725 62.9266 104.576 63.0957C104.658 63.1115 104.744 63.1008 104.816 63.0657C104.889 63.0306 104.944 62.9736 104.971 62.9055C105.204 62.3327 105.116 61.8349 104.708 61.4121Z" fill="#AAAAAA"/>
<path d="M109.654 60.7203C109.856 60.7336 110.043 60.8163 110.175 60.9503C110.307 61.0843 110.373 61.2587 110.358 61.4353L110.266 62.4328C110.233 62.799 110.033 63.1386 109.708 63.3774C109.384 63.6162 108.962 63.7347 108.535 63.707L108.39 63.6955C108.178 63.6813 107.971 63.6315 107.781 63.5488C107.591 63.4661 107.422 63.3521 107.283 63.2135C107.144 63.0748 107.038 62.9141 106.972 62.7406C106.905 62.567 106.879 62.3841 106.895 62.2021L106.981 61.2104C106.988 61.1225 107.015 61.0367 107.061 60.9581C107.106 60.8794 107.169 60.8094 107.246 60.752C107.322 60.6947 107.411 60.6512 107.507 60.624C107.602 60.5968 107.703 60.5864 107.804 60.5935L109.654 60.7203ZM108.996 61.3776L108.12 61.418C108.083 61.4195 108.048 61.4272 108.015 61.4407C107.982 61.4543 107.952 61.4734 107.928 61.497C107.904 61.5206 107.885 61.5481 107.872 61.5781C107.86 61.6081 107.855 61.6399 107.856 61.6717L107.87 61.9427C107.879 62.0939 107.903 62.243 107.942 62.3812C107.981 62.5195 108.033 62.6442 108.095 62.7482C108.158 62.8522 108.229 62.9334 108.306 62.9871C108.382 63.0408 108.462 63.066 108.541 63.0612L108.778 63.0497C108.937 63.041 109.081 62.9122 109.18 62.6917C109.279 62.4712 109.324 62.1769 109.305 61.8735L109.292 61.6025C109.289 61.5707 109.28 61.5396 109.263 61.511C109.247 61.4825 109.225 61.457 109.197 61.4361C109.17 61.4152 109.138 61.3993 109.103 61.3893C109.068 61.3792 109.032 61.3753 108.996 61.3776Z" fill="#AAAAAA"/>
</g>
<defs>
<clipPath id="clip0_1558_4938">
<rect width="129" height="65" fill="white"/>
</clipPath>
</defs>
</svg>
