<svg width="160" height="65" viewBox="0 0 160 65" fill="none" xmlns="http://www.w3.org/2000/svg">
<g clip-path="url(#clip0_1558_4885)">
<path d="M70.3012 43.5153L63.381 43.5441C63.1572 43.5441 63.0452 43.4442 63.0452 43.2445L63.0321 14.1609C63.0321 14.108 63.02 14.0555 62.9965 14.0066C62.973 13.9577 62.9385 13.9132 62.8951 13.8757C62.8517 13.8383 62.8002 13.8086 62.7435 13.7883C62.6867 13.7681 62.626 13.7576 62.5646 13.7576L57.6 13.7691C57.3322 13.7691 57.1983 13.8863 57.1983 14.1206C57.1632 24.4988 57.2005 34.877 57.3102 45.2552C57.3322 47.0528 58.3133 47.9573 60.2535 47.9689C64.3314 47.9881 68.4181 47.9957 72.5135 47.9919C74.9234 47.9919 76.5168 47.3754 76.5366 45.1054C76.5936 37.7155 76.5893 27.3814 76.5234 14.1033C76.5234 14.0086 76.4804 13.9177 76.4038 13.8507C76.3273 13.7837 76.2235 13.7461 76.1152 13.7461L71.0979 13.7519C71.0374 13.7519 70.9774 13.7624 70.9215 13.783C70.8656 13.8036 70.8148 13.8337 70.772 13.8717C70.7292 13.9097 70.6952 13.9547 70.6721 14.0044C70.6489 14.054 70.637 14.1072 70.637 14.1609L70.6238 43.2272C70.6238 43.4154 70.5163 43.5114 70.3012 43.5153Z" stroke="#AAAAAA" stroke-width="2.1"/>
<path d="M89.8167 27.8446L85.6422 14.1324C85.6101 14.0235 85.537 13.9271 85.4345 13.8583C85.332 13.7894 85.2059 13.7521 85.076 13.7522L79.8612 13.7349C79.8035 13.7346 79.7467 13.7461 79.695 13.7685C79.6434 13.7909 79.5985 13.8236 79.564 13.8639C79.5294 13.9043 79.5061 13.9511 79.496 14.0007C79.4858 14.0504 79.4891 14.1014 79.5056 14.1497C81.7355 20.7599 84.1015 27.3049 86.6035 33.7846C86.9064 34.5739 87.104 35.8529 87.0974 36.6653C87.0886 40.3334 87.0864 44.0168 87.0908 47.7156C87.0908 47.9038 87.1983 47.9979 87.4134 47.9979L92.6612 47.9807C92.7502 47.9807 92.8356 47.9491 92.8986 47.8929C92.9616 47.8367 92.997 47.7605 92.997 47.6811C92.9619 44.0591 92.964 40.4159 93.0035 36.7517C93.0233 35.2192 93.4842 33.5656 93.9715 32.2866C96.254 26.2832 98.4488 20.2357 100.556 14.1439C100.648 13.8789 100.536 13.7464 100.22 13.7464L94.8998 13.7752C94.6584 13.779 94.507 13.8827 94.4455 14.0863L90.2447 27.8446C90.2306 27.8846 90.2023 27.9197 90.1637 27.9446C90.1252 27.9695 90.0786 27.9829 90.0307 27.9829C89.9828 27.9829 89.9362 27.9695 89.8977 27.9446C89.8592 27.9197 89.8308 27.8846 89.8167 27.8446Z" stroke="#AAAAAA" stroke-width="2.1"/>
<path d="M109.452 18.1998H115.424C115.501 18.1998 115.577 18.2131 115.648 18.2389C115.718 18.2648 115.782 18.3026 115.836 18.3503C115.89 18.398 115.933 18.4546 115.962 18.5168C115.99 18.5789 116.005 18.6455 116.004 18.7126L115.977 24.1859C115.977 24.3087 116.032 24.4265 116.129 24.5139C116.227 24.6012 116.359 24.6511 116.498 24.6526L121.324 24.6871C121.47 24.6872 121.61 24.6372 121.715 24.5478C121.82 24.4584 121.88 24.3368 121.884 24.2089C121.932 21.4243 121.87 18.7433 121.699 16.166C121.607 14.791 120.876 14.0228 119.507 13.8615C117.443 13.6195 113.212 13.608 106.812 13.8269C104.81 13.896 103.645 14.3281 103.461 16.1718C103.171 19.0237 102.282 25.5053 104.863 27.6773C108.462 30.7078 111.976 33.6576 115.405 36.5268C115.6 36.6908 115.755 36.8877 115.86 37.1057C115.966 37.3237 116.019 37.558 116.017 37.7943L115.971 43.2619C115.971 43.3116 115.96 43.3608 115.938 43.4066C115.916 43.4524 115.884 43.4939 115.843 43.5288C115.803 43.5636 115.755 43.5911 115.702 43.6096C115.649 43.628 115.593 43.6372 115.536 43.6364L109.498 43.6076C109.395 43.6076 109.297 43.5718 109.224 43.508C109.151 43.4443 109.11 43.3578 109.11 43.2677L109.163 37.1952C109.163 37.1167 109.145 37.0391 109.111 36.9667C109.077 36.8943 109.027 36.8287 108.964 36.7735C108.9 36.7183 108.826 36.6747 108.743 36.6452C108.661 36.6158 108.573 36.601 108.484 36.6017L103.704 36.6305C103.591 36.6305 103.483 36.669 103.401 36.7378C103.32 36.8066 103.273 36.9004 103.27 36.9993C103.191 39.0561 102.657 45.6759 104.132 47.1163C104.668 47.6387 105.561 47.9114 106.812 47.9344C110.591 48.0112 114.373 48.0228 118.157 47.969C120.099 47.9402 121.627 47.5369 121.778 45.6817C121.982 43.2619 122.792 35.6741 120.389 33.6807C116.785 30.6848 113.188 27.6792 109.597 24.6641C109.462 24.5491 109.354 24.4115 109.279 24.2593C109.204 24.107 109.165 23.943 109.163 23.7768L109.136 18.4763C109.136 18.292 109.242 18.1998 109.452 18.1998Z" stroke="#AAAAAA" stroke-width="2.1"/>
<path d="M47.1698 18.8681L47.0842 24.0764C47.0842 24.1518 47.1172 24.2242 47.1763 24.2781C47.2354 24.332 47.3158 24.363 47.4003 24.3645L52.6875 24.4394C52.7982 24.4409 52.9051 24.4044 52.9852 24.3375C53.0652 24.2707 53.1121 24.179 53.1155 24.0822C53.1813 21.7815 53.1923 19.475 53.1484 17.1627C53.0826 13.4351 50.3632 13.896 46.7945 13.8614C44.2705 13.8384 41.0749 13.8538 37.2077 13.9075C34.8176 13.9421 34.0669 14.9561 34.0406 16.9841C33.9484 25.7876 33.9528 34.591 34.0538 43.3944C34.0801 45.6586 33.4217 47.8134 37.0167 48.0093C40.2826 48.186 44.3715 48.1956 49.2834 48.0381C53.0957 47.9171 53.0628 46.4307 53.1089 43.6422C53.1748 39.1098 53.1813 34.6006 53.1287 30.1144C53.1278 30.0607 53.115 30.0076 53.091 29.9583C53.0671 29.9089 53.0324 29.8643 52.989 29.8268C52.9456 29.7894 52.8943 29.7599 52.838 29.74C52.7818 29.7202 52.7217 29.7103 52.6612 29.7111L43.1731 29.7572C43.073 29.7587 42.9775 29.7945 42.9073 29.8571C42.8371 29.9196 42.7978 30.0037 42.7978 30.0913L42.811 33.842C42.811 34.0955 42.958 34.2261 43.2521 34.2338L46.7748 34.3144C46.8644 34.3159 46.9499 34.3488 47.0127 34.4059C47.0755 34.463 47.1106 34.5398 47.1106 34.6198L47.1237 43.1582C47.1237 43.2626 47.0768 43.3629 46.993 43.4373C46.9092 43.5117 46.7953 43.5542 46.676 43.5557L40.2167 43.6306C40.1643 43.6314 40.1122 43.623 40.0635 43.606C40.0148 43.589 39.9705 43.5636 39.9331 43.5314C39.8957 43.4993 39.866 43.4609 39.8458 43.4186C39.8255 43.3763 39.8151 43.3308 39.8151 43.2849L39.8348 18.7125C39.8348 18.4975 39.9578 18.3899 40.2036 18.3899L46.7155 18.459C46.776 18.4598 46.8358 18.471 46.8914 18.4919C46.947 18.5129 46.9973 18.5432 47.0395 18.5812C47.0817 18.6192 47.1149 18.6641 47.1373 18.7133C47.1596 18.7625 47.1707 18.8151 47.1698 18.8681Z" stroke="#AAAAAA" stroke-width="2.1"/>
<path d="M75.2925 51.0744L75.5691 51.3279C75.6964 51.4431 75.8193 51.4393 75.9378 51.3164L76.1551 51.0974C76.1946 51.0575 76.2177 51.0071 76.2207 50.9543C76.2237 50.9016 76.2063 50.8494 76.1714 50.8063C76.1365 50.7632 76.0861 50.7315 76.0283 50.7164C75.9704 50.7013 75.9084 50.7036 75.8522 50.7229L75.332 50.9073C75.3144 50.9139 75.2988 50.9241 75.2867 50.937C75.2745 50.95 75.2661 50.9654 75.2622 50.9818C75.2583 50.9982 75.2591 51.0152 75.2643 51.0314C75.2696 51.0475 75.2793 51.0623 75.2925 51.0744Z" stroke="#AAAAAA" stroke-width="2.1"/>
<path d="M82.482 50.769H82.0606C82.031 50.769 82.0025 50.7794 81.9815 50.7977C81.9605 50.8161 81.9487 50.841 81.9487 50.867L81.9355 55.1247C81.9355 55.1565 81.9418 55.1879 81.9541 55.2173C81.9663 55.2467 81.9842 55.2733 82.0069 55.2958C82.0295 55.3183 82.0563 55.3361 82.0859 55.3483C82.1155 55.3604 82.1472 55.3667 82.1792 55.3666H82.3372C82.4018 55.3666 82.4637 55.3411 82.5094 55.2957C82.5551 55.2504 82.5808 55.1888 82.5808 55.1247L82.594 50.867C82.594 50.841 82.5822 50.8161 82.5612 50.7977C82.5402 50.7794 82.5117 50.769 82.482 50.769Z" stroke="#AAAAAA" stroke-width="2.1"/>
<path d="M73.2896 52.3649C72.9735 51.8694 72.5192 51.7061 71.9266 51.8751C69.2007 52.6472 70.4781 56.6398 74.0995 55.1534C74.2926 55.0727 74.387 54.9383 74.3826 54.7501L74.3299 51.1434C74.3255 50.8592 74.2092 50.8189 73.981 51.0224C73.6825 51.2836 73.452 51.7311 73.2896 52.3649Z" stroke="#AAAAAA" stroke-width="2.1"/>
<path d="M73.2907 52.3649C71.1442 52.1344 70.1763 54.1567 72.2438 54.9172C72.4009 54.975 72.5729 54.9952 72.7419 54.9757C72.9109 54.9562 73.071 54.8977 73.2057 54.8062C73.3404 54.7148 73.4449 54.5936 73.5084 54.4551C73.5719 54.3167 73.5922 54.166 73.5672 54.0184L73.2907 52.3649Z" stroke="#AAAAAA" stroke-width="2.1"/>
<path d="M91.7557 51.1557C91.7558 51.1231 91.7486 51.0909 91.7344 51.0608C91.7202 51.0307 91.6994 51.0034 91.6732 50.9803C91.6469 50.9573 91.6157 50.939 91.5814 50.9265C91.5471 50.914 91.5103 50.9075 91.4731 50.9075L91.3151 50.9072C91.24 50.9071 91.1679 50.9331 91.1147 50.9795C91.0616 51.0259 91.0316 51.0888 91.0315 51.1545L91.0234 55.176C91.0234 55.2085 91.0306 55.2407 91.0448 55.2708C91.059 55.3009 91.0798 55.3283 91.106 55.3513C91.1323 55.3744 91.1635 55.3926 91.1978 55.4052C91.2321 55.4177 91.2689 55.4241 91.3061 55.4242L91.4641 55.4244C91.5392 55.4245 91.6113 55.3985 91.6644 55.3521C91.7176 55.3058 91.7476 55.2428 91.7477 55.1771L91.7557 51.1557Z" stroke="#AAAAAA" stroke-width="2.1"/>
<path d="M85.2475 55.1248C84.3389 54.0878 84.5167 53.2927 85.1422 52.2038C85.2826 51.958 85.219 51.7659 84.9512 51.6277L84.4376 51.3684C84.3809 51.3392 84.3167 51.3229 84.2509 51.321C84.1851 51.3191 84.1198 51.3315 84.0609 51.3573C84.0021 51.3831 83.9515 51.4213 83.9138 51.4685C83.8761 51.5157 83.8524 51.5704 83.845 51.6277C83.687 52.8107 83.777 53.9034 84.115 54.9059C84.2774 55.4052 84.6176 55.58 85.1356 55.4302C85.3375 55.3764 85.3748 55.2746 85.2475 55.1248Z" stroke="#AAAAAA" stroke-width="2.1"/>
<path d="M75.786 55.4589C75.8838 55.4583 75.9761 55.2641 76.0425 54.919C76.1089 54.5739 76.144 54.1062 76.1401 53.6188C76.1382 53.3774 76.1267 53.1385 76.1064 52.9156C76.0861 52.6927 76.0573 52.4903 76.0217 52.3199C75.9861 52.1494 75.9444 52.0143 75.8989 51.9222C75.8534 51.8301 75.8051 51.7829 75.7567 51.7832C75.6589 51.7838 75.5667 51.978 75.5003 52.3231C75.4339 52.6682 75.3987 53.1359 75.4026 53.6233C75.4046 53.8646 75.416 54.1036 75.4363 54.3265C75.4566 54.5493 75.4854 54.7518 75.521 54.9222C75.5566 55.0927 75.5983 55.2278 75.6438 55.3199C75.6893 55.412 75.7376 55.4592 75.786 55.4589Z" stroke="#AAAAAA" stroke-width="2.1"/>
<path d="M110.9 52.5897C111.691 53.3099 111.098 54.2951 111.328 55.1478C111.352 55.2258 111.408 55.2933 111.486 55.3374C111.563 55.3816 111.656 55.3993 111.747 55.3872C111.838 55.375 111.921 55.334 111.98 55.2717C112.039 55.2095 112.069 55.1305 112.066 55.0499L111.901 52.7626C111.891 52.6324 111.844 52.5064 111.763 52.3966C111.683 52.2868 111.572 52.1966 111.44 52.1346C110.602 51.739 109.722 51.7332 108.8 52.1173C108.651 52.1788 108.576 52.2825 108.576 52.4284L108.596 55.1017C108.596 55.2246 108.664 55.3014 108.8 55.3322C108.866 55.3475 108.934 55.3495 109.004 55.3379C109.21 55.311 109.314 55.2073 109.314 55.0268L109.307 53.1544C109.308 52.993 109.363 52.8354 109.466 52.7017C109.57 52.568 109.716 52.4642 109.887 52.4036C110.058 52.343 110.246 52.3284 110.426 52.3615C110.607 52.3947 110.772 52.4741 110.9 52.5897Z" stroke="#AAAAAA" stroke-width="2.1"/>
<path d="M80.0522 55.4415C80.3901 55.96 80.2629 56.3211 79.6703 56.5246C79.0162 56.7474 78.3929 56.5746 77.8003 56.0061C77.7831 55.9886 77.761 55.9754 77.7362 55.9677C77.7114 55.9599 77.6847 55.958 77.6587 55.9621C77.6328 55.9662 77.6085 55.9761 77.5883 55.9909C77.5681 56.0057 77.5527 56.0248 77.5435 56.0464C77.5216 56.0964 77.4886 56.1501 77.4447 56.2077C77.3947 56.2742 77.3649 56.3507 77.3582 56.43C77.3515 56.5093 77.368 56.5888 77.4063 56.661C77.4445 56.7331 77.5032 56.7955 77.5768 56.8423C77.6504 56.889 77.7364 56.9185 77.8266 56.9279C81.9616 57.4004 80.8752 54.969 80.9542 52.6991C80.963 52.4993 80.8664 52.3534 80.6645 52.2612C77.8069 50.9245 75.9435 53.448 78.0242 55.332C78.0926 55.3934 78.1782 55.4383 78.2727 55.4625C78.3672 55.4867 78.4676 55.4894 78.5641 55.4703L79.5978 55.2686C79.7954 55.2302 79.9468 55.2878 80.0522 55.4415Z" stroke="#AAAAAA" stroke-width="2.1"/>
<path d="M90.0155 53.1495C90.0244 52.8318 89.8887 52.524 89.6382 52.2938C89.3877 52.0636 89.043 51.93 88.6799 51.9222L87.5872 51.8988C87.4074 51.895 87.2285 51.9221 87.0607 51.9788C86.8929 52.0354 86.7395 52.1205 86.6093 52.229C86.479 52.3375 86.3745 52.4674 86.3016 52.6113C86.2288 52.7552 86.189 52.9102 86.1846 53.0676L86.1528 54.208C86.1439 54.5257 86.2796 54.8335 86.5301 55.0637C86.7806 55.2938 87.1253 55.4275 87.4884 55.4353L88.5811 55.4587C88.7609 55.4625 88.9398 55.4353 89.1076 55.3787C89.2754 55.322 89.4288 55.237 89.559 55.1285C89.6893 55.0199 89.7938 54.89 89.8667 54.7461C89.9395 54.6023 89.9793 54.4472 89.9837 54.2899L90.0155 53.1495Z" stroke="#AAAAAA" stroke-width="2.1"/>
<path d="M98.3769 53.2051C98.3851 52.8874 98.2488 52.5798 97.9978 52.35C97.7469 52.1202 97.4019 51.9871 97.0387 51.9799L95.8539 51.9564C95.4908 51.9491 95.1392 52.0684 94.8766 52.288C94.614 52.5076 94.4618 52.8095 94.4536 53.1272L94.4261 54.1871C94.4179 54.5048 94.5543 54.8124 94.8052 55.0422C95.0562 55.2719 95.4011 55.4051 95.7643 55.4123L96.9491 55.4358C97.3123 55.443 97.6638 55.3237 97.9264 55.1041C98.189 54.8846 98.3412 54.5827 98.3494 54.265L98.3769 53.2051Z" stroke="#AAAAAA" stroke-width="2.1"/>
<path d="M101.484 55.257C101.665 55.2156 101.858 55.2366 102.022 55.3154C102.187 55.3943 102.311 55.525 102.369 55.6806C102.426 55.8361 102.413 56.0045 102.332 56.1509C102.25 56.2973 102.107 56.4105 101.932 56.4669C101.111 56.7396 100.422 56.5802 99.8644 55.9887C99.8267 55.951 99.7755 55.9257 99.7191 55.917C99.6627 55.9084 99.6047 55.9169 99.5546 55.9411C99.5046 55.9654 99.4655 56.0039 99.444 56.0503C99.4225 56.0967 99.4198 56.1482 99.4364 56.1961C99.9105 57.4003 102.064 57.2389 102.702 56.4381C103.321 55.6546 103.051 53.5171 103.045 52.4512C103.04 52.2476 102.926 52.1324 102.702 52.1055L100.773 51.8578C100.642 51.8417 100.509 51.8526 100.384 51.8897C100.26 51.9267 100.147 51.9888 100.055 52.071C98.8262 53.1733 98.8438 54.2411 100.108 55.2743C100.301 55.4318 100.527 55.4817 100.786 55.4241L101.484 55.257Z" stroke="#AAAAAA" stroke-width="2.1"/>
<path d="M107.554 53.5209C107.639 53.182 107.566 52.8277 107.352 52.5358C107.138 52.2439 106.8 52.0384 106.412 51.9645L106.026 51.8909C105.835 51.8543 105.636 51.8511 105.443 51.8815C105.25 51.9119 105.066 51.9753 104.9 52.0681C104.735 52.1609 104.593 52.2813 104.481 52.4223C104.369 52.5633 104.289 52.7223 104.248 52.8901L104.015 53.8246C103.93 54.1635 104.003 54.5178 104.217 54.8097C104.432 55.1016 104.769 55.3071 105.157 55.381L105.543 55.4546C105.734 55.4912 105.933 55.4944 106.126 55.464C106.319 55.4336 106.503 55.3702 106.669 55.2774C106.834 55.1846 106.976 55.0642 107.088 54.9232C107.2 54.7822 107.28 54.6232 107.321 54.4554L107.554 53.5209Z" stroke="#AAAAAA" stroke-width="2.1"/>
<path d="M114.153 54.7614C113.924 54.6929 113.722 54.5705 113.568 54.4076C113.414 54.2447 113.314 54.0478 113.28 53.8385C113.246 53.6293 113.279 53.4159 113.375 53.2219C113.471 53.0279 113.626 52.8608 113.824 52.7392C114.596 52.2706 115.27 52.3685 115.845 53.033C115.872 53.0642 115.911 53.0862 115.955 53.0955C115.999 53.1047 116.045 53.1006 116.086 53.0838C116.126 53.0669 116.159 53.0385 116.179 53.0031C116.199 52.9676 116.204 52.9274 116.194 52.889C116.027 52.2514 115.535 51.9288 114.719 51.9211C111.618 51.8865 112.698 56.9796 115.957 55.1071C116.22 54.9573 116.332 54.7326 116.293 54.433C116.286 54.3898 116.266 54.3489 116.233 54.3156C116.201 54.2824 116.158 54.2583 116.11 54.2465C116.063 54.2347 116.013 54.2358 115.967 54.2495C115.921 54.2632 115.88 54.289 115.851 54.3236C115.413 54.8229 114.846 54.9689 114.153 54.7614Z" stroke="#AAAAAA" stroke-width="2.1"/>
<path d="M118.637 54.0589L117.676 52.3074C117.654 52.2652 117.616 52.2344 117.564 52.2152C117.502 52.1922 117.441 52.1672 117.379 52.1403C117.325 52.1174 117.263 52.1102 117.203 52.1196C117.143 52.129 117.088 52.1547 117.046 52.1929C117.004 52.2311 116.977 52.28 116.968 52.3326C116.959 52.3852 116.969 52.4388 116.998 52.486L118.354 54.8539C118.389 54.9161 118.41 54.9839 118.414 55.0532C118.419 55.1226 118.407 55.192 118.38 55.2572L117.748 56.7264C117.732 56.7648 117.734 56.8069 117.752 56.8435C117.771 56.8802 117.805 56.9085 117.847 56.9223C117.904 56.9415 117.961 56.9607 118.018 56.9799C118.128 57.0183 118.207 56.9914 118.255 56.8992C119.08 55.4013 119.789 53.8591 120.382 52.2728C120.413 52.1999 120.415 52.1403 120.388 52.0942C120.349 52.0097 120.257 51.9521 120.112 51.9214C120.054 51.9103 119.994 51.9183 119.943 51.9438C119.892 51.9694 119.854 52.0107 119.835 52.0597L119.144 54.0243C119.127 54.0703 119.094 54.111 119.051 54.1411C119.007 54.1712 118.955 54.1892 118.9 54.193C118.845 54.1967 118.791 54.1859 118.744 54.162C118.697 54.1381 118.66 54.1021 118.637 54.0589Z" stroke="#AAAAAA" stroke-width="2.1"/>
<path d="M121.811 55.0496C121.811 54.9548 121.768 54.864 121.691 54.797C121.614 54.73 121.511 54.6924 121.402 54.6924C121.294 54.6924 121.19 54.73 121.114 54.797C121.037 54.864 120.994 54.9548 120.994 55.0496C120.994 55.1443 121.037 55.2352 121.114 55.3022C121.19 55.3692 121.294 55.4068 121.402 55.4068C121.511 55.4068 121.614 55.3692 121.691 55.3022C121.768 55.2352 121.811 55.1443 121.811 55.0496Z" stroke="#AAAAAA" stroke-width="2.1"/>
<path d="M79.16 54.9318C79.4806 54.9137 79.778 54.76 79.9869 54.5045C80.1957 54.2491 80.2987 53.9129 80.2734 53.5698C80.2608 53.3999 80.2171 53.2335 80.1448 53.0799C80.0724 52.9264 79.9728 52.7889 79.8517 52.6751C79.7305 52.5613 79.5902 52.4736 79.4387 52.4169C79.2872 52.3602 79.1275 52.3356 78.9688 52.3446C78.6481 52.3627 78.3507 52.5164 78.1419 52.7718C77.9331 53.0273 77.83 53.3635 77.8553 53.7066C77.8679 53.8765 77.9116 54.0429 77.984 54.1964C78.0563 54.3499 78.1559 54.4875 78.2771 54.6013C78.3982 54.7151 78.5385 54.8028 78.69 54.8595C78.8415 54.9162 79.0012 54.9408 79.16 54.9318Z" stroke="#AAAAAA" stroke-width="2.1"/>
<path d="M88.0546 54.9055C88.2163 54.9028 88.3757 54.8667 88.5236 54.7994C88.6715 54.732 88.8052 54.6347 88.9168 54.513C89.0285 54.3912 89.1161 54.2475 89.1745 54.0899C89.233 53.9323 89.2611 53.764 89.2574 53.5945C89.2537 53.4251 89.2182 53.2578 89.1529 53.1023C89.0876 52.9468 88.9938 52.8061 88.8768 52.6882C88.7599 52.5703 88.6221 52.4775 88.4713 52.4152C88.3205 52.3528 88.1597 52.3222 87.998 52.3249C87.8364 52.3276 87.677 52.3636 87.5291 52.431C87.3811 52.4984 87.2475 52.5957 87.1358 52.7174C87.0241 52.8392 86.9366 52.9829 86.8781 53.1405C86.8197 53.2981 86.7915 53.4664 86.7952 53.6359C86.799 53.8053 86.8345 53.9726 86.8998 54.1281C86.9651 54.2836 87.0589 54.4243 87.1758 54.5422C87.2928 54.6601 87.4306 54.7529 87.5814 54.8152C87.7322 54.8776 87.893 54.9082 88.0546 54.9055Z" stroke="#AAAAAA" stroke-width="2.1"/>
<path d="M97.7512 53.6557C97.7512 53.3272 97.602 53.0121 97.3366 52.7798C97.0711 52.5475 96.711 52.417 96.3356 52.417C95.9601 52.417 95.6 52.5475 95.3345 52.7798C95.0691 53.0121 94.9199 53.3272 94.9199 53.6557C94.9199 53.9842 95.0691 54.2993 95.3345 54.5316C95.6 54.7639 95.9601 54.8944 96.3356 54.8944C96.711 54.8944 97.0711 54.7639 97.3366 54.5316C97.602 54.2993 97.7512 53.9842 97.7512 53.6557Z" stroke="#AAAAAA" stroke-width="2.1"/>
<path d="M100.959 54.865C101.116 54.8788 101.276 54.8599 101.429 54.8095C101.581 54.7591 101.724 54.6782 101.849 54.5714C101.973 54.4645 102.077 54.3338 102.155 54.1867C102.233 54.0397 102.282 53.8791 102.301 53.7142C102.32 53.5494 102.308 53.3834 102.265 53.2258C102.222 53.0682 102.149 52.9221 102.051 52.7957C101.953 52.6694 101.832 52.5654 101.693 52.4896C101.555 52.4138 101.403 52.3677 101.245 52.354C101.088 52.3402 100.928 52.3591 100.776 52.4095C100.623 52.4598 100.48 52.5408 100.356 52.6476C100.231 52.7545 100.127 52.8852 100.049 53.0323C99.9715 53.1793 99.9219 53.3399 99.9031 53.5048C99.8842 53.6696 99.8966 53.8356 99.9395 53.9932C99.9824 54.1508 100.055 54.2969 100.153 54.4232C100.251 54.5496 100.373 54.6536 100.511 54.7294C100.649 54.8052 100.801 54.8513 100.959 54.865Z" stroke="#AAAAAA" stroke-width="2.1"/>
<path d="M105.684 53.638L106.409 53.4709C106.516 53.4464 106.609 53.3867 106.667 53.3042C106.726 53.2217 106.747 53.1226 106.725 53.0273C106.624 52.5702 106.325 52.3379 105.829 52.3302C105.548 52.3263 105.342 52.432 105.21 52.6471C104.907 53.131 104.848 53.6976 105.032 54.3467C105.212 54.9727 105.717 55.1033 106.547 54.7385C106.682 54.6843 106.792 54.5836 106.853 54.4584C106.914 54.3331 106.921 54.1937 106.872 54.0706C106.824 53.9476 106.723 53.8512 106.593 53.8025C106.462 53.7537 106.313 53.7568 106.178 53.8109C105.963 53.8915 105.787 53.8666 105.651 53.736C105.644 53.7275 105.639 53.7176 105.636 53.7072C105.634 53.6968 105.634 53.6862 105.638 53.6765C105.641 53.6667 105.647 53.658 105.655 53.6513C105.663 53.6446 105.673 53.64 105.684 53.638Z" stroke="#AAAAAA" stroke-width="2.1"/>
<path d="M0 -29.355H160V98.5482H0V-29.355ZM70.3012 43.5153L63.3811 43.5441C63.1572 43.5441 63.0453 43.4442 63.0453 43.2445L63.0321 14.1609C63.0321 14.108 63.02 14.0555 62.9965 14.0066C62.973 13.9577 62.9386 13.9132 62.8952 13.8757C62.8518 13.8383 62.8002 13.8086 62.7435 13.7883C62.6868 13.7681 62.626 13.7576 62.5646 13.7576L57.6 13.7691C57.3322 13.7691 57.1984 13.8863 57.1984 14.1206C57.1632 24.4988 57.2006 34.877 57.3103 45.2552C57.3322 47.0528 58.3133 47.9573 60.2535 47.9689C64.3314 47.9881 68.4181 47.9957 72.5136 47.9919C74.9235 47.9919 76.5169 47.3754 76.5366 45.1054C76.5937 37.7155 76.5893 27.3814 76.5235 14.1033C76.5235 14.0086 76.4805 13.9177 76.4039 13.8507C76.3273 13.7837 76.2235 13.7461 76.1152 13.7461L71.0979 13.7519C71.0374 13.7519 70.9775 13.7624 70.9216 13.783C70.8656 13.8036 70.8148 13.8337 70.772 13.8717C70.7292 13.9097 70.6953 13.9548 70.6721 14.0044C70.649 14.054 70.637 14.1072 70.637 14.1609L70.6239 43.2272C70.6239 43.4154 70.5163 43.5115 70.3012 43.5153ZM89.8173 27.8443L85.6428 14.1321C85.6107 14.0233 85.5376 13.9268 85.4351 13.858C85.3326 13.7892 85.2065 13.7518 85.0766 13.7519L79.8617 13.7346C79.8041 13.7343 79.7472 13.7458 79.6956 13.7682C79.644 13.7906 79.5991 13.8233 79.5646 13.8636C79.53 13.904 79.5067 13.9508 79.4966 14.0004C79.4864 14.0501 79.4897 14.1011 79.5062 14.1494C81.7361 20.7597 84.1021 27.3046 86.6041 33.7843C86.907 34.5736 87.1045 35.8526 87.0979 36.665C87.0892 40.3331 87.087 44.0165 87.0914 47.7154C87.0914 47.9036 87.1989 47.9977 87.414 47.9977L92.6617 47.9804C92.7508 47.9804 92.8362 47.9488 92.8992 47.8926C92.9622 47.8364 92.9975 47.7602 92.9975 47.6808C92.9624 44.0588 92.9646 40.4156 93.0041 36.7514C93.0239 35.2189 93.4848 33.5653 93.972 32.2863C96.2546 26.2829 98.4494 20.2354 100.556 14.1436C100.649 13.8786 100.537 13.7461 100.221 13.7461L94.9004 13.7749C94.659 13.7787 94.5076 13.8825 94.4461 14.086L90.2453 27.8443C90.2312 27.8843 90.2028 27.9194 90.1643 27.9443C90.1258 27.9692 90.0792 27.9826 90.0313 27.9826C89.9834 27.9826 89.9368 27.9692 89.8982 27.9443C89.8597 27.9194 89.8314 27.8843 89.8173 27.8443ZM109.452 18.1997H115.424C115.501 18.1997 115.576 18.213 115.647 18.2388C115.718 18.2646 115.782 18.3025 115.836 18.3502C115.89 18.3979 115.932 18.4545 115.961 18.5166C115.99 18.5788 116.004 18.6454 116.003 18.7124L115.977 24.1858C115.977 24.3085 116.032 24.4264 116.129 24.5137C116.226 24.6011 116.359 24.6509 116.497 24.6524L121.323 24.687C121.47 24.687 121.61 24.637 121.715 24.5477C121.819 24.4583 121.88 24.3367 121.883 24.2088C121.931 21.4241 121.87 18.7432 121.699 16.1659C121.607 14.7908 120.876 14.0226 119.506 13.8613C117.443 13.6194 113.212 13.6078 106.812 13.8268C104.81 13.8959 103.644 14.328 103.46 16.1716C103.17 19.0235 102.281 25.5051 104.863 27.6772C108.462 30.7077 111.976 33.6575 115.404 36.5267C115.6 36.6906 115.755 36.8876 115.86 37.1056C115.965 37.3235 116.019 37.5579 116.016 37.7942L115.97 43.2618C115.97 43.3115 115.959 43.3606 115.937 43.4064C115.915 43.4523 115.883 43.4938 115.843 43.5286C115.802 43.5635 115.754 43.591 115.702 43.6094C115.649 43.6279 115.593 43.637 115.536 43.6363L109.498 43.6075C109.395 43.6075 109.296 43.5717 109.223 43.5079C109.15 43.4442 109.109 43.3577 109.109 43.2675L109.162 37.195C109.162 37.1166 109.145 37.039 109.11 36.9666C109.076 36.8942 109.026 36.8285 108.963 36.7734C108.9 36.7182 108.825 36.6746 108.743 36.6451C108.661 36.6156 108.573 36.6008 108.484 36.6016L103.704 36.6304C103.591 36.6304 103.482 36.6688 103.401 36.7377C103.32 36.8065 103.273 36.9003 103.269 36.9991C103.19 39.056 102.657 45.6758 104.132 47.1162C104.667 47.6385 105.561 47.9112 106.812 47.9343C110.591 48.0111 114.373 48.0226 118.156 47.9689C120.099 47.94 121.626 47.5368 121.778 45.6816C121.982 43.2618 122.792 35.674 120.388 33.6806C116.785 30.6846 113.187 27.6791 109.597 24.664C109.461 24.549 109.353 24.4114 109.279 24.2591C109.204 24.1069 109.164 23.9429 109.162 23.7767L109.136 18.4762C109.136 18.2918 109.241 18.1997 109.452 18.1997ZM47.1704 18.868L47.0848 24.0763C47.0847 24.1517 47.1178 24.2241 47.1769 24.278C47.236 24.3319 47.3164 24.3629 47.4008 24.3644L52.6881 24.4393C52.7987 24.4408 52.9056 24.4042 52.9857 24.3374C53.0658 24.2706 53.1126 24.1789 53.1161 24.0821C53.1819 21.7813 53.1929 19.4749 53.149 17.1626C53.0831 13.435 50.3638 13.8959 46.7951 13.8613C44.2711 13.8383 41.0754 13.8536 37.2082 13.9074C34.8181 13.942 34.0675 14.956 34.0412 16.984C33.949 25.7874 33.9534 34.5909 34.0543 43.3943C34.0807 45.6585 33.4222 47.8133 37.0173 48.0092C40.2831 48.1859 44.372 48.1955 49.284 48.038C53.0963 47.917 53.0634 46.4306 53.1095 43.642C53.1753 39.1097 53.1819 34.6005 53.1292 30.1143C53.1284 30.0605 53.1156 30.0075 53.0916 29.9582C53.0676 29.9088 53.033 29.8642 52.9895 29.8267C52.9461 29.7893 52.8948 29.7598 52.8386 29.7399C52.7824 29.72 52.7223 29.7102 52.6617 29.711L43.1737 29.757C43.0735 29.7586 42.9781 29.7944 42.9079 29.8569C42.8377 29.9194 42.7983 30.0036 42.7984 30.0912L42.8115 33.8419C42.8115 34.0954 42.9586 34.226 43.2527 34.2337L46.7753 34.3143C46.865 34.3158 46.9504 34.3487 47.0132 34.4058C47.076 34.4629 47.1112 34.5397 47.1111 34.6197L47.1243 43.1581C47.1243 43.2625 47.0773 43.3628 46.9935 43.4372C46.9098 43.5116 46.7959 43.5541 46.6765 43.5556L40.2173 43.6305C40.1649 43.6313 40.1128 43.6229 40.0641 43.6059C40.0154 43.5888 39.9711 43.5635 39.9337 43.5313C39.8963 43.4991 39.8666 43.4608 39.8463 43.4185C39.8261 43.3761 39.8156 43.3307 39.8156 43.2848L39.8354 18.7124C39.8354 18.4973 39.9583 18.3898 40.2041 18.3898L46.716 18.4589C46.7766 18.4597 46.8363 18.4709 46.8919 18.4918C46.9475 18.5128 46.9979 18.5431 47.04 18.5811C47.0822 18.6191 47.1155 18.664 47.1378 18.7132C47.1602 18.7624 47.1712 18.815 47.1704 18.868ZM75.2922 51.0743L75.5687 51.3278C75.696 51.443 75.8189 51.4391 75.9375 51.3162L76.1547 51.0973C76.1943 51.0574 76.2174 51.007 76.2203 50.9542C76.2233 50.9014 76.2059 50.8493 76.1711 50.8062C76.1362 50.763 76.0858 50.7314 76.0279 50.7163C75.97 50.7012 75.9081 50.7035 75.8519 50.7228L75.3317 50.9072C75.314 50.9137 75.2985 50.9239 75.2863 50.9369C75.2741 50.9499 75.2658 50.9652 75.2619 50.9817C75.258 50.9981 75.2587 51.0151 75.264 51.0312C75.2693 51.0473 75.2789 51.0621 75.2922 51.0743ZM82.4823 50.7689H82.0609C82.0312 50.7689 82.0027 50.7792 81.9818 50.7976C81.9608 50.816 81.949 50.8409 81.949 50.8668L81.9358 55.1245C81.9358 55.1563 81.9421 55.1878 81.9543 55.2171C81.9666 55.2465 81.9845 55.2732 82.0071 55.2957C82.0297 55.3181 82.0566 55.336 82.0862 55.3481C82.1157 55.3603 82.1474 55.3665 82.1794 55.3665H82.3375C82.402 55.3665 82.464 55.341 82.5097 55.2956C82.5554 55.2502 82.581 55.1887 82.5811 55.1245L82.5942 50.8668C82.5942 50.8409 82.5824 50.816 82.5615 50.7976C82.5405 50.7792 82.512 50.7689 82.4823 50.7689ZM73.2905 52.3648C72.9745 51.8693 72.5202 51.7061 71.9276 51.8751C69.2016 52.6471 70.479 56.6398 74.1004 55.1533C74.2936 55.0727 74.3879 54.9382 74.3835 54.75L74.3309 51.1434C74.3265 50.8592 74.2102 50.8188 73.9819 51.0224C73.6834 51.2836 73.4529 51.731 73.2905 52.3648ZM91.7571 51.1555C91.7572 51.1229 91.7499 51.0907 91.7358 51.0606C91.7216 51.0305 91.7008 51.0032 91.6745 50.9802C91.6483 50.9571 91.6171 50.9388 91.5828 50.9263C91.5484 50.9138 91.5116 50.9073 91.4744 50.9073L91.3164 50.9071C91.2413 50.907 91.1693 50.9329 91.1161 50.9793C91.0629 51.0257 91.033 51.0886 91.0328 51.1543L91.0248 55.1758C91.0247 55.2083 91.032 55.2406 91.0462 55.2707C91.0603 55.3007 91.0811 55.3281 91.1074 55.3511C91.1336 55.3742 91.1648 55.3925 91.1991 55.405C91.2335 55.4175 91.2703 55.4239 91.3075 55.424L91.4655 55.4242C91.5406 55.4243 91.6126 55.3983 91.6658 55.352C91.719 55.3056 91.7489 55.2426 91.7491 55.1769L91.7571 51.1555ZM85.2477 55.1245C84.3391 54.0875 84.5169 53.2924 85.1424 52.2035C85.2829 51.9577 85.2192 51.7656 84.9514 51.6273L84.4379 51.3681C84.3811 51.3389 84.3169 51.3226 84.2511 51.3207C84.1853 51.3188 84.12 51.3312 84.0612 51.357C84.0023 51.3828 83.9517 51.421 83.914 51.4682C83.8763 51.5154 83.8527 51.5701 83.8453 51.6273C83.6872 52.8104 83.7772 53.9031 84.1152 54.9056C84.2776 55.4049 84.6178 55.5797 85.1358 55.4299C85.3377 55.3761 85.375 55.2743 85.2477 55.1245ZM75.7875 55.4586C75.8853 55.458 75.9775 55.2638 76.0439 54.9187C76.1103 54.5737 76.1455 54.106 76.1416 53.6185C76.1396 53.3772 76.1282 53.1382 76.1079 52.9154C76.0876 52.6925 76.0588 52.4901 76.0232 52.3196C75.9876 52.1492 75.9459 52.014 75.9004 51.922C75.8549 51.8299 75.8066 51.7826 75.7582 51.783C75.6604 51.7836 75.5681 51.9778 75.5017 52.3229C75.4353 52.6679 75.4002 53.1356 75.4041 53.623C75.406 53.8644 75.4175 54.1033 75.4378 54.3262C75.4581 54.5491 75.4869 54.7515 75.5225 54.922C75.5581 55.0924 75.5998 55.2275 75.6453 55.3196C75.6908 55.4117 75.7391 55.4589 75.7875 55.4586ZM110.9 52.5895C111.691 53.3097 111.098 54.2949 111.328 55.1476C111.352 55.2255 111.408 55.293 111.486 55.3372C111.563 55.3813 111.656 55.399 111.747 55.3869C111.838 55.3748 111.921 55.3337 111.98 55.2715C112.039 55.2093 112.069 55.1303 112.066 55.0496L111.901 52.7623C111.891 52.6321 111.844 52.5062 111.763 52.3964C111.683 52.2866 111.572 52.1964 111.44 52.1344C110.602 51.7387 109.722 51.733 108.8 52.1171C108.651 52.1785 108.576 52.2822 108.576 52.4282L108.596 55.1015C108.596 55.2244 108.664 55.3012 108.8 55.3319C108.866 55.3473 108.934 55.3492 109.004 55.3377C109.21 55.3108 109.314 55.2071 109.314 55.0266L109.307 53.1541C109.308 52.9927 109.363 52.8351 109.466 52.7014C109.57 52.5677 109.716 52.464 109.887 52.4034C110.058 52.3428 110.246 52.3282 110.426 52.3613C110.607 52.3945 110.772 52.4739 110.9 52.5895ZM80.0527 55.4414C80.3907 55.9599 80.2634 56.321 79.6708 56.5245C79.0167 56.7473 78.3934 56.5745 77.8008 56.006C77.7836 55.9885 77.7616 55.9753 77.7367 55.9676C77.7119 55.9598 77.6852 55.9579 77.6593 55.962C77.6333 55.9661 77.6091 55.976 77.5889 55.9908C77.5686 56.0056 77.5532 56.0247 77.544 56.0463C77.5221 56.0963 77.4892 56.15 77.4453 56.2077C77.3952 56.2741 77.3655 56.3506 77.3587 56.4299C77.352 56.5092 77.3685 56.5887 77.4068 56.6609C77.4451 56.7331 77.5038 56.7955 77.5773 56.8422C77.6509 56.8889 77.7369 56.9184 77.8272 56.9278C81.9621 57.4003 80.8757 54.969 80.9547 52.699C80.9635 52.4992 80.8669 52.3533 80.665 52.2611C77.8074 50.9245 75.944 53.448 78.0247 55.3319C78.0932 55.3933 78.1787 55.4382 78.2732 55.4624C78.3678 55.4866 78.4681 55.4893 78.5646 55.4702L79.5984 55.2686C79.7959 55.2301 79.9473 55.2878 80.0527 55.4414ZM90.017 53.1492C90.0259 52.8314 89.8901 52.5236 89.6396 52.2935C89.3892 52.0633 89.0445 51.9296 88.6814 51.9219L87.5887 51.8985C87.4089 51.8946 87.23 51.9218 87.0622 51.9785C86.8944 52.0351 86.741 52.1201 86.6107 52.2287C86.4805 52.3372 86.376 52.4671 86.3031 52.611C86.2302 52.7549 86.1905 52.9099 86.1861 53.0672L86.1542 54.2077C86.1453 54.5254 86.2811 54.8332 86.5315 55.0633C86.782 55.2935 87.1267 55.4272 87.4898 55.4349L88.5825 55.4583C88.7623 55.4622 88.9412 55.435 89.109 55.3783C89.2768 55.3217 89.4302 55.2367 89.5605 55.1281C89.6907 55.0196 89.7952 54.8897 89.8681 54.7458C89.941 54.6019 89.9807 54.4469 89.9851 54.2896L90.017 53.1492ZM98.377 53.2047C98.3853 52.887 98.2489 52.5794 97.9979 52.3496C97.747 52.1198 97.402 51.9867 97.0389 51.9795L95.854 51.956C95.4909 51.9488 95.1394 52.0681 94.8768 52.2876C94.6142 52.5072 94.462 52.8091 94.4537 53.1268L94.4263 54.1867C94.418 54.5044 94.5544 54.812 94.8054 55.0418C95.0563 55.2716 95.4013 55.4047 95.7644 55.4119L96.9493 55.4354C97.3124 55.4426 97.6639 55.3233 97.9265 55.1038C98.1891 54.8842 98.3413 54.5823 98.3496 54.2646L98.377 53.2047ZM101.485 55.257C101.666 55.2157 101.858 55.2366 102.023 55.3154C102.188 55.3943 102.312 55.525 102.369 55.6806C102.427 55.8361 102.414 56.0046 102.332 56.1509C102.251 56.2973 102.108 56.4105 101.933 56.4669C101.112 56.7396 100.423 56.5802 99.865 55.9887C99.8274 55.951 99.7761 55.9257 99.7198 55.917C99.6634 55.9084 99.6053 55.9169 99.5553 55.9412C99.5052 55.9654 99.4662 56.004 99.4447 56.0504C99.4231 56.0968 99.4205 56.1482 99.437 56.1961C99.9111 57.4003 102.064 57.239 102.703 56.4381C103.322 55.6546 103.052 53.5171 103.045 52.4512C103.041 52.2477 102.927 52.1324 102.703 52.1055L100.774 51.8578C100.643 51.8417 100.51 51.8527 100.385 51.8897C100.26 51.9267 100.148 51.9888 100.056 52.071C98.8269 53.1733 98.8444 54.2411 100.109 55.2743C100.302 55.4318 100.528 55.4817 100.787 55.4241L101.485 55.257ZM107.554 53.5208C107.639 53.1819 107.566 52.8276 107.352 52.5357C107.137 52.2438 106.799 52.0383 106.412 51.9644L106.026 51.8908C105.834 51.8542 105.636 51.851 105.443 51.8814C105.25 51.9118 105.065 51.9752 104.9 52.068C104.735 52.1608 104.592 52.2812 104.48 52.4222C104.368 52.5632 104.289 52.7222 104.247 52.89L104.015 53.8245C103.93 54.1634 104.003 54.5177 104.217 54.8096C104.431 55.1015 104.769 55.307 105.157 55.3809L105.543 55.4545C105.734 55.4911 105.932 55.4943 106.126 55.4639C106.319 55.4335 106.503 55.3701 106.668 55.2773C106.834 55.1845 106.976 55.0641 107.088 54.9231C107.2 54.7821 107.279 54.6231 107.321 54.4553L107.554 53.5208ZM114.153 54.7616C113.925 54.693 113.722 54.5706 113.568 54.4077C113.414 54.2448 113.315 54.0479 113.281 53.8387C113.247 53.6294 113.279 53.416 113.375 53.222C113.471 53.028 113.626 52.8609 113.824 52.7393C114.596 52.2707 115.27 52.3687 115.845 53.0331C115.873 53.0643 115.912 53.0863 115.955 53.0956C115.999 53.1048 116.045 53.1007 116.086 53.0839C116.127 53.0671 116.16 53.0386 116.179 53.0032C116.199 52.9678 116.204 52.9275 116.194 52.8891C116.027 52.2515 115.536 51.9289 114.719 51.9212C111.618 51.8866 112.698 56.9797 115.957 55.1072C116.221 54.9574 116.333 54.7327 116.293 54.4332C116.287 54.3899 116.266 54.349 116.234 54.3157C116.201 54.2825 116.158 54.2584 116.111 54.2466C116.063 54.2348 116.013 54.2359 115.967 54.2496C115.921 54.2634 115.881 54.2892 115.852 54.3237C115.413 54.823 114.847 54.969 114.153 54.7616ZM118.637 54.0587L117.676 52.3072C117.654 52.2649 117.616 52.2342 117.564 52.215C117.502 52.192 117.441 52.167 117.379 52.1401C117.325 52.1172 117.263 52.11 117.203 52.1194C117.143 52.1288 117.089 52.1545 117.046 52.1927C117.004 52.2309 116.977 52.2798 116.968 52.3324C116.959 52.385 116.97 52.4386 116.998 52.4858L118.354 54.8537C118.389 54.9159 118.41 54.9837 118.414 55.053C118.419 55.1223 118.407 55.1918 118.38 55.257L117.748 56.7262C117.732 56.7646 117.734 56.8067 117.753 56.8433C117.771 56.88 117.805 56.9082 117.847 56.9221C117.904 56.9413 117.961 56.9605 118.018 56.9797C118.128 57.0181 118.207 56.9912 118.255 56.899C119.08 55.4011 119.789 53.8589 120.382 52.2726C120.413 52.1996 120.415 52.1401 120.388 52.094C120.349 52.0095 120.257 51.9519 120.112 51.9212C120.054 51.9101 119.994 51.9181 119.943 51.9436C119.892 51.9692 119.854 52.0105 119.835 52.0595L119.144 54.0241C119.127 54.0701 119.094 54.1108 119.051 54.1409C119.007 54.171 118.955 54.189 118.9 54.1928C118.845 54.1965 118.791 54.1857 118.744 54.1618C118.697 54.1379 118.66 54.1019 118.637 54.0587ZM121.811 55.0496C121.811 54.9549 121.768 54.864 121.691 54.797C121.615 54.7301 121.511 54.6924 121.402 54.6924C121.294 54.6924 121.19 54.7301 121.114 54.797C121.037 54.864 120.994 54.9549 120.994 55.0496C120.994 55.1444 121.037 55.2352 121.114 55.3022C121.19 55.3692 121.294 55.4068 121.402 55.4068C121.511 55.4068 121.615 55.3692 121.691 55.3022C121.768 55.2352 121.811 55.1444 121.811 55.0496Z" fill="#F6F9FD"/>
<path d="M70.6238 43.2272L70.637 14.1609C70.637 14.1072 70.6489 14.054 70.6721 14.0044C70.6952 13.9547 70.7292 13.9097 70.772 13.8717C70.8148 13.8337 70.8656 13.8036 70.9215 13.783C70.9774 13.7624 71.0374 13.7519 71.0979 13.7519L76.1152 13.7461C76.2235 13.7461 76.3273 13.7837 76.4038 13.8507C76.4804 13.9177 76.5234 14.0086 76.5234 14.1033C76.5893 27.3814 76.5936 37.7155 76.5366 45.1054C76.5168 47.3754 74.9234 47.9919 72.5135 47.9919C68.4181 47.9957 64.3314 47.9881 60.2535 47.9689C58.3133 47.9573 57.3322 47.0528 57.3102 45.2552C57.2005 34.877 57.1632 24.4988 57.1983 14.1206C57.1983 13.8863 57.3322 13.7691 57.6 13.7691L62.5646 13.7576C62.626 13.7576 62.6867 13.7681 62.7435 13.7883C62.8002 13.8086 62.8517 13.8383 62.8951 13.8757C62.9385 13.9132 62.973 13.9577 62.9965 14.0066C63.02 14.0555 63.0321 14.108 63.0321 14.1609L63.0452 43.2445C63.0452 43.4442 63.1572 43.5441 63.381 43.5441L70.3012 43.5153C70.5163 43.5114 70.6238 43.4154 70.6238 43.2272Z" fill="#AAAAAA"/>
<path d="M89.8167 27.8446C89.8308 27.8846 89.8592 27.9197 89.8977 27.9446C89.9362 27.9695 89.9828 27.9829 90.0307 27.9829C90.0786 27.9829 90.1252 27.9695 90.1637 27.9446C90.2023 27.9197 90.2306 27.8846 90.2447 27.8446L94.4455 14.0863C94.507 13.8827 94.6584 13.779 94.8998 13.7752L100.22 13.7464C100.536 13.7464 100.648 13.8789 100.556 14.1439C98.4488 20.2357 96.254 26.2832 93.9715 32.2866C93.4842 33.5656 93.0233 35.2192 93.0035 36.7517C92.964 40.4159 92.9619 44.0591 92.997 47.6811C92.997 47.7605 92.9616 47.8367 92.8986 47.8929C92.8356 47.9491 92.7502 47.9807 92.6612 47.9807L87.4134 47.9979C87.1983 47.9979 87.0908 47.9039 87.0908 47.7156C87.0864 44.0168 87.0886 40.3334 87.0974 36.6653C87.104 35.8529 86.9064 34.5739 86.6035 33.7846C84.1015 27.3049 81.7355 20.7599 79.5056 14.1497C79.4891 14.1014 79.4858 14.0504 79.496 14.0007C79.5061 13.9511 79.5294 13.9043 79.564 13.8639C79.5985 13.8236 79.6434 13.7909 79.695 13.7685C79.7467 13.7461 79.8035 13.7346 79.8612 13.7349L85.076 13.7522C85.2059 13.7521 85.332 13.7894 85.4345 13.8583C85.537 13.9271 85.6101 14.0235 85.6422 14.1324L89.8167 27.8446Z" fill="#AAAAAA"/>
<path d="M109.136 18.4763L109.163 23.7768C109.165 23.943 109.204 24.107 109.279 24.2593C109.354 24.4115 109.462 24.5491 109.597 24.6641C113.188 27.6792 116.785 30.6848 120.389 33.6807C122.792 35.6741 121.982 43.2619 121.778 45.6817C121.627 47.5369 120.099 47.9402 118.157 47.969C114.373 48.0228 110.591 48.0112 106.812 47.9344C105.561 47.9114 104.668 47.6387 104.132 47.1163C102.657 45.6759 103.191 39.0561 103.27 36.9993C103.273 36.9004 103.32 36.8066 103.401 36.7378C103.483 36.669 103.591 36.6305 103.704 36.6305L108.484 36.6017C108.573 36.601 108.661 36.6158 108.743 36.6452C108.826 36.6747 108.9 36.7183 108.964 36.7735C109.027 36.8287 109.077 36.8943 109.111 36.9667C109.145 37.0391 109.163 37.1167 109.163 37.1952L109.11 43.2677C109.11 43.3578 109.151 43.4443 109.224 43.508C109.297 43.5718 109.395 43.6076 109.498 43.6076L115.536 43.6364C115.593 43.6372 115.649 43.628 115.702 43.6096C115.755 43.5911 115.803 43.5636 115.843 43.5288C115.884 43.4939 115.916 43.4524 115.938 43.4066C115.96 43.3608 115.971 43.3116 115.971 43.2619L116.017 37.7943C116.019 37.558 115.966 37.3237 115.86 37.1057C115.755 36.8877 115.6 36.6908 115.405 36.5268C111.976 33.6576 108.462 30.7078 104.863 27.6773C102.282 25.5053 103.171 19.0237 103.461 16.1718C103.645 14.3281 104.81 13.896 106.812 13.8269C113.212 13.608 117.443 13.6195 119.507 13.8615C120.876 14.0228 121.607 14.791 121.699 16.166C121.87 18.7433 121.932 21.4243 121.884 24.2089C121.88 24.3368 121.82 24.4584 121.715 24.5478C121.61 24.6372 121.47 24.6872 121.324 24.6871L116.498 24.6526C116.359 24.6511 116.227 24.6012 116.129 24.5139C116.032 24.4265 115.977 24.3087 115.977 24.1859L116.004 18.7126C116.005 18.6455 115.99 18.5789 115.962 18.5168C115.933 18.4546 115.89 18.398 115.836 18.3503C115.782 18.3026 115.718 18.2648 115.648 18.2389C115.577 18.2131 115.501 18.1998 115.424 18.1998H109.452C109.242 18.1998 109.136 18.292 109.136 18.4763Z" fill="#AAAAAA"/>
<path d="M46.7155 18.459L40.2036 18.3899C39.9578 18.3899 39.8348 18.4975 39.8348 18.7125L39.8151 43.2849C39.8151 43.3308 39.8255 43.3763 39.8458 43.4186C39.866 43.4609 39.8957 43.4993 39.9331 43.5314C39.9705 43.5636 40.0148 43.589 40.0635 43.606C40.1122 43.623 40.1643 43.6314 40.2167 43.6306L46.676 43.5557C46.7953 43.5542 46.9092 43.5117 46.993 43.4373C47.0768 43.3629 47.1237 43.2626 47.1237 43.1582L47.1106 34.6198C47.1106 34.5398 47.0755 34.463 47.0127 34.4059C46.9499 34.3488 46.8644 34.3159 46.7748 34.3144L43.2521 34.2338C42.958 34.2261 42.811 34.0955 42.811 33.842L42.7978 30.0913C42.7978 30.0037 42.8371 29.9196 42.9073 29.8571C42.9775 29.7945 43.073 29.7587 43.1731 29.7572L52.6612 29.7111C52.7217 29.7103 52.7818 29.7202 52.838 29.74C52.8943 29.7599 52.9456 29.7894 52.989 29.8268C53.0324 29.8643 53.0671 29.9089 53.091 29.9583C53.115 30.0076 53.1278 30.0607 53.1287 30.1144C53.1813 34.6006 53.1748 39.1098 53.1089 43.6422C53.0628 46.4307 53.0957 47.9171 49.2834 48.0381C44.3715 48.1956 40.2826 48.186 37.0167 48.0093C33.4217 47.8134 34.0801 45.6586 34.0538 43.3944C33.9528 34.591 33.9484 25.7876 34.0406 16.9841C34.0669 14.9561 34.8176 13.9421 37.2077 13.9075C41.0749 13.8538 44.2705 13.8384 46.7945 13.8614C50.3632 13.896 53.0826 13.4351 53.1484 17.1627C53.1923 19.475 53.1813 21.7815 53.1155 24.0822C53.1121 24.179 53.0652 24.2707 52.9852 24.3375C52.9051 24.4044 52.7982 24.4409 52.6875 24.4394L47.4003 24.3645C47.3158 24.363 47.2354 24.332 47.1763 24.2781C47.1172 24.2242 47.0842 24.1518 47.0842 24.0764L47.1698 18.8681C47.1707 18.8151 47.1596 18.7625 47.1373 18.7133C47.1149 18.6641 47.0817 18.6192 47.0395 18.5812C46.9973 18.5432 46.947 18.5129 46.8914 18.4919C46.8358 18.471 46.776 18.4598 46.7155 18.459Z" fill="#AAAAAA"/>
<path d="M75.2925 51.0744C75.2793 51.0623 75.2696 51.0475 75.2643 51.0314C75.2591 51.0152 75.2583 50.9982 75.2622 50.9818C75.2661 50.9654 75.2745 50.95 75.2867 50.937C75.2988 50.9241 75.3144 50.9139 75.332 50.9073L75.8522 50.7229C75.9084 50.7036 75.9704 50.7013 76.0283 50.7164C76.0861 50.7315 76.1365 50.7632 76.1714 50.8063C76.2063 50.8494 76.2237 50.9016 76.2207 50.9543C76.2177 51.0071 76.1946 51.0575 76.1551 51.0974L75.9378 51.3164C75.8193 51.4393 75.6964 51.4431 75.5691 51.3279L75.2925 51.0744Z" fill="#AAAAAA"/>
<path d="M82.482 50.769C82.5117 50.769 82.5402 50.7794 82.5612 50.7977C82.5822 50.8161 82.594 50.841 82.594 50.867L82.5808 55.1247C82.5808 55.1888 82.5551 55.2504 82.5094 55.2957C82.4637 55.3411 82.4018 55.3666 82.3372 55.3666H82.1792C82.1472 55.3667 82.1155 55.3604 82.0859 55.3483C82.0563 55.3361 82.0295 55.3183 82.0069 55.2958C81.9842 55.2733 81.9663 55.2467 81.9541 55.2173C81.9418 55.1879 81.9355 55.1565 81.9355 55.1247L81.9487 50.867C81.9487 50.841 81.9605 50.8161 81.9815 50.7977C82.0025 50.7794 82.031 50.769 82.0606 50.769H82.482Z" fill="#AAAAAA"/>
<path d="M73.2896 52.3649C71.1431 52.1344 70.1752 54.1567 72.2427 54.9172C72.3999 54.975 72.5718 54.9952 72.7408 54.9757C72.9099 54.9562 73.0699 54.8977 73.2046 54.8062C73.3393 54.7148 73.4438 54.5936 73.5073 54.4551C73.5708 54.3167 73.5911 54.166 73.5661 54.0184L73.2896 52.3649C73.452 51.7311 73.6825 51.2836 73.981 51.0224C74.2092 50.8189 74.3255 50.8592 74.3299 51.1434L74.3826 54.7501C74.387 54.9383 74.2926 55.0727 74.0995 55.1534C70.4781 56.6398 69.2007 52.6472 71.9266 51.8751C72.5192 51.7061 72.9735 51.8694 73.2896 52.3649Z" fill="#AAAAAA"/>
<path d="M91.4744 50.9074L91.3163 50.9072C91.16 50.9069 91.033 51.0177 91.0327 51.1545L91.0247 55.1759C91.0244 55.3128 91.151 55.4239 91.3073 55.4241L91.4653 55.4243C91.6217 55.4246 91.7487 55.3139 91.749 55.177L91.757 51.1556C91.7573 51.0188 91.6307 50.9077 91.4744 50.9074Z" fill="#AAAAAA"/>
<path d="M85.1422 52.2038C84.5167 53.2927 84.3389 54.0878 85.2475 55.1248C85.3748 55.2746 85.3375 55.3764 85.1356 55.4302C84.6176 55.58 84.2774 55.4052 84.115 54.9059C83.777 53.9034 83.687 52.8107 83.845 51.6277C83.8524 51.5704 83.8761 51.5157 83.9138 51.4685C83.9515 51.4213 84.0021 51.3831 84.0609 51.3573C84.1198 51.3315 84.1851 51.3191 84.2509 51.321C84.3167 51.3229 84.3809 51.3392 84.4376 51.3684L84.9512 51.6277C85.219 51.7659 85.2826 51.958 85.1422 52.2038Z" fill="#AAAAAA"/>
<path d="M75.4042 53.6231C75.4123 54.6381 75.5839 55.4599 75.7876 55.4587C75.9912 55.4575 76.1497 54.6336 76.1416 53.6186C76.1335 52.6036 75.9619 51.7818 75.7582 51.783C75.5546 51.7843 75.3961 52.6081 75.4042 53.6231Z" fill="#AAAAAA"/>
<path d="M111.328 55.1478C111.098 54.2951 111.691 53.3099 110.9 52.5897C110.772 52.4741 110.607 52.3947 110.426 52.3615C110.246 52.3284 110.058 52.343 109.887 52.4036C109.716 52.4642 109.57 52.568 109.466 52.7017C109.363 52.8354 109.308 52.993 109.307 53.1544L109.314 55.0268C109.314 55.2073 109.21 55.311 109.004 55.3379C108.934 55.3495 108.866 55.3475 108.8 55.3322C108.664 55.3014 108.596 55.2246 108.596 55.1017L108.576 52.4284C108.576 52.2825 108.651 52.1788 108.8 52.1173C109.722 51.7332 110.602 51.739 111.44 52.1346C111.572 52.1966 111.683 52.2868 111.763 52.3966C111.844 52.5064 111.891 52.6324 111.901 52.7626L112.066 55.0499C112.069 55.1305 112.039 55.2095 111.98 55.2717C111.921 55.334 111.838 55.375 111.747 55.3872C111.656 55.3993 111.563 55.3816 111.486 55.3374C111.408 55.2933 111.352 55.2258 111.328 55.1478Z" fill="#AAAAAA"/>
<path d="M79.5978 55.2686L78.5641 55.4703C78.4676 55.4894 78.3672 55.4867 78.2727 55.4625C78.1782 55.4383 78.0926 55.3934 78.0242 55.332C75.9435 53.448 77.8069 50.9245 80.6645 52.2612C80.8664 52.3534 80.963 52.4993 80.9542 52.6991C80.8752 54.969 81.9616 57.4004 77.8266 56.9279C77.7364 56.9185 77.6504 56.889 77.5768 56.8423C77.5032 56.7955 77.4445 56.7331 77.4063 56.661C77.368 56.5888 77.3515 56.5093 77.3582 56.43C77.3649 56.3507 77.3947 56.2742 77.4447 56.2077C77.4886 56.1501 77.5216 56.0964 77.5435 56.0464C77.5527 56.0248 77.5681 56.0057 77.5883 55.9909C77.6085 55.9761 77.6328 55.9662 77.6587 55.9621C77.6847 55.958 77.7114 55.9599 77.7362 55.9677C77.761 55.9754 77.7831 55.9886 77.8003 56.0061C78.3929 56.5746 79.0162 56.7474 79.6703 56.5246C80.2629 56.3211 80.3901 55.96 80.0522 55.4415C79.9468 55.2878 79.7954 55.2302 79.5978 55.2686ZM79.1601 54.9318C79.4807 54.9136 79.7782 54.7599 79.987 54.5045C80.1958 54.2491 80.2989 53.9129 80.2735 53.5698C80.261 53.3999 80.2173 53.2334 80.1449 53.0799C80.0725 52.9264 79.973 52.7888 79.8518 52.6751C79.7307 52.5613 79.5903 52.4735 79.4388 52.4168C79.2874 52.3601 79.1277 52.3356 78.9689 52.3446C78.6482 52.3627 78.3508 52.5164 78.142 52.7718C77.9332 53.0272 77.8301 53.3635 77.8555 53.7066C77.868 53.8764 77.9117 54.0429 77.9841 54.1964C78.0564 54.3499 78.156 54.4875 78.2772 54.6013C78.3983 54.715 78.5387 54.8028 78.6901 54.8595C78.8416 54.9162 79.0013 54.9408 79.1601 54.9318Z" fill="#AAAAAA"/>
<path d="M89.9856 54.2899C89.9812 54.4472 89.9415 54.6023 89.8686 54.7461C89.7957 54.89 89.6912 55.0199 89.561 55.1285C89.4307 55.237 89.2773 55.322 89.1095 55.3787C88.9417 55.4353 88.7628 55.4625 88.583 55.4587L87.4903 55.4353C87.1272 55.4275 86.7825 55.2938 86.532 55.0637C86.2816 54.8335 86.1458 54.5257 86.1547 54.208L86.1866 53.0676C86.191 52.9102 86.2307 52.7552 86.3036 52.6113C86.3765 52.4674 86.481 52.3375 86.6112 52.229C86.7415 52.1205 86.8949 52.0354 87.0627 51.9788C87.2305 51.9221 87.4094 51.895 87.5892 51.8988L88.6819 51.9222C89.045 51.93 89.3897 52.0636 89.6402 52.2938C89.8906 52.524 90.0264 52.8318 90.0175 53.1495L89.9856 54.2899ZM88.0552 54.9057C88.2168 54.903 88.3762 54.8669 88.5241 54.7996C88.6721 54.7322 88.8057 54.6349 88.9174 54.5131C89.0291 54.3914 89.1166 54.2476 89.175 54.09C89.2335 53.9324 89.2616 53.7641 89.2579 53.5947C89.2542 53.4252 89.2187 53.258 89.1534 53.1025C89.0881 52.9469 88.9943 52.8062 88.8773 52.6883C88.7604 52.5704 88.6226 52.4777 88.4718 52.4153C88.321 52.353 88.1602 52.3223 87.9985 52.325C87.8369 52.3277 87.6775 52.3638 87.5296 52.4312C87.3816 52.4985 87.248 52.5958 87.1363 52.7176C87.0246 52.8393 86.9371 52.9831 86.8786 53.1407C86.8202 53.2983 86.792 53.4666 86.7958 53.636C86.7995 53.8055 86.835 53.9727 86.9003 54.1283C86.9656 54.2838 87.0594 54.4245 87.1764 54.5424C87.2933 54.6603 87.4311 54.7531 87.5819 54.8154C87.7327 54.8777 87.8935 54.9084 88.0552 54.9057Z" fill="#AAAAAA"/>
<path d="M98.3494 54.265C98.3412 54.5827 98.189 54.8846 97.9264 55.1041C97.6638 55.3237 97.3123 55.443 96.9491 55.4358L95.7643 55.4123C95.4011 55.4051 95.0562 55.2719 94.8052 55.0422C94.5543 54.8124 94.4179 54.5048 94.4261 54.1871L94.4536 53.1272C94.4618 52.8095 94.614 52.5076 94.8766 52.288C95.1392 52.0684 95.4908 51.9491 95.8539 51.9564L97.0387 51.9799C97.4019 51.9871 97.7469 52.1202 97.9978 52.35C98.2488 52.5798 98.3851 52.8874 98.3769 53.2051L98.3494 54.265ZM97.7513 53.6557C97.7513 53.3272 97.6022 53.0122 97.3367 52.7799C97.0712 52.5476 96.7111 52.417 96.3357 52.417C95.9602 52.417 95.6001 52.5476 95.3347 52.7799C95.0692 53.0122 94.92 53.3272 94.92 53.6557C94.92 53.9843 95.0692 54.2993 95.3347 54.5316C95.6001 54.7639 95.9602 54.8944 96.3357 54.8944C96.7111 54.8944 97.0712 54.7639 97.3367 54.5316C97.6022 54.2993 97.7513 53.9843 97.7513 53.6557Z" fill="#AAAAAA"/>
<path d="M101.484 55.257L100.786 55.4241C100.527 55.4817 100.301 55.4318 100.108 55.2743C98.8438 54.2411 98.8262 53.1733 100.055 52.071C100.147 51.9888 100.26 51.9267 100.384 51.8897C100.509 51.8526 100.642 51.8417 100.773 51.8578L102.702 52.1055C102.926 52.1324 103.04 52.2476 103.045 52.4512C103.051 53.5171 103.321 55.6546 102.702 56.4381C102.064 57.2389 99.9105 57.4003 99.4364 56.1961C99.4198 56.1482 99.4225 56.0967 99.444 56.0503C99.4655 56.0039 99.5046 55.9654 99.5546 55.9411C99.6047 55.9169 99.6627 55.9084 99.7191 55.917C99.7755 55.9257 99.8267 55.951 99.8644 55.9887C100.422 56.5802 101.111 56.7396 101.932 56.4669C102.107 56.4105 102.25 56.2973 102.332 56.1509C102.413 56.0045 102.426 55.8361 102.369 55.6806C102.311 55.525 102.187 55.3943 102.022 55.3154C101.858 55.2366 101.665 55.2156 101.484 55.257ZM100.959 54.8648C101.116 54.8785 101.276 54.8597 101.429 54.8093C101.581 54.7589 101.724 54.678 101.849 54.5711C101.973 54.4642 102.078 54.3336 102.155 54.1865C102.233 54.0394 102.282 53.8789 102.301 53.714C102.32 53.5491 102.308 53.3831 102.265 53.2255C102.222 53.0679 102.149 52.9218 102.051 52.7955C101.953 52.6692 101.832 52.5652 101.693 52.4894C101.555 52.4136 101.403 52.3675 101.245 52.3537C101.088 52.34 100.928 52.3588 100.776 52.4092C100.623 52.4596 100.48 52.5405 100.356 52.6474C100.231 52.7543 100.127 52.8849 100.049 53.032C99.9717 53.1791 99.922 53.3396 99.9032 53.5045C99.8844 53.6694 99.8968 53.8354 99.9397 53.993C99.9825 54.1506 100.055 54.2967 100.153 54.423C100.251 54.5493 100.373 54.6533 100.511 54.7291C100.649 54.8049 100.802 54.851 100.959 54.8648Z" fill="#AAAAAA"/>
<path d="M107.321 54.4554C107.28 54.6232 107.2 54.7822 107.088 54.9232C106.976 55.0642 106.834 55.1846 106.669 55.2774C106.503 55.3702 106.319 55.4336 106.126 55.464C105.933 55.4944 105.734 55.4912 105.543 55.4546L105.157 55.381C104.769 55.3071 104.432 55.1016 104.217 54.8097C104.003 54.5178 103.93 54.1635 104.015 53.8246L104.248 52.8901C104.289 52.7223 104.369 52.5633 104.481 52.4223C104.593 52.2813 104.735 52.1609 104.9 52.0681C105.066 51.9753 105.25 51.9119 105.443 51.8815C105.636 51.8511 105.835 51.8543 106.026 51.8909L106.412 51.9645C106.8 52.0384 107.138 52.2439 107.352 52.5358C107.566 52.8277 107.639 53.182 107.554 53.5209L107.321 54.4554ZM105.686 53.6382L106.41 53.4711C106.518 53.4465 106.61 53.3869 106.669 53.3043C106.728 53.2218 106.748 53.1228 106.726 53.0275C106.625 52.5704 106.327 52.338 105.831 52.3303C105.55 52.3265 105.343 52.4321 105.212 52.6472C104.909 53.1312 104.85 53.6977 105.034 54.3468C105.214 54.9729 105.719 55.1035 106.548 54.7386C106.684 54.6845 106.794 54.5838 106.855 54.4585C106.916 54.3333 106.923 54.1938 106.874 54.0708C106.825 53.9478 106.724 53.8513 106.594 53.8026C106.464 53.7539 106.315 53.7569 106.18 53.811C105.964 53.8917 105.789 53.8667 105.653 53.7361C105.645 53.7277 105.64 53.7178 105.638 53.7074C105.636 53.697 105.636 53.6864 105.639 53.6766C105.643 53.6669 105.649 53.6582 105.657 53.6515C105.665 53.6448 105.675 53.6402 105.686 53.6382Z" fill="#AAAAAA"/>
<path d="M114.153 54.7614C114.846 54.9689 115.413 54.8229 115.851 54.3236C115.88 54.289 115.921 54.2632 115.967 54.2495C116.013 54.2358 116.063 54.2347 116.11 54.2465C116.158 54.2583 116.201 54.2824 116.233 54.3156C116.266 54.3489 116.286 54.3898 116.293 54.433C116.332 54.7326 116.22 54.9573 115.957 55.1071C112.698 56.9796 111.618 51.8865 114.719 51.9211C115.535 51.9288 116.027 52.2514 116.194 52.889C116.204 52.9274 116.199 52.9676 116.179 53.0031C116.159 53.0385 116.126 53.0669 116.086 53.0838C116.045 53.1006 115.999 53.1047 115.955 53.0955C115.911 53.0862 115.872 53.0642 115.845 53.033C115.27 52.3685 114.596 52.2706 113.824 52.7392C113.626 52.8608 113.471 53.0279 113.375 53.2219C113.279 53.4159 113.246 53.6293 113.28 53.8385C113.314 54.0478 113.414 54.2447 113.568 54.4076C113.722 54.5705 113.924 54.6929 114.153 54.7614Z" fill="#AAAAAA"/>
<path d="M119.144 54.0243L119.835 52.0597C119.854 52.0107 119.892 51.9694 119.943 51.9438C119.994 51.9183 120.054 51.9103 120.112 51.9214C120.257 51.9521 120.349 52.0097 120.388 52.0942C120.415 52.1403 120.413 52.1999 120.382 52.2728C119.789 53.8591 119.08 55.4013 118.255 56.8992C118.207 56.9914 118.128 57.0183 118.018 56.9799C117.961 56.9607 117.904 56.9415 117.847 56.9223C117.805 56.9085 117.771 56.8802 117.752 56.8435C117.734 56.8069 117.732 56.7648 117.748 56.7264L118.38 55.2572C118.407 55.192 118.419 55.1226 118.414 55.0532C118.41 54.9839 118.389 54.9161 118.354 54.8539L116.998 52.486C116.969 52.4388 116.959 52.3852 116.968 52.3326C116.977 52.28 117.004 52.2311 117.046 52.1929C117.088 52.1547 117.143 52.129 117.203 52.1196C117.263 52.1102 117.325 52.1174 117.379 52.1403C117.441 52.1672 117.502 52.1922 117.564 52.2152C117.616 52.2344 117.654 52.2652 117.676 52.3074L118.637 54.0589C118.66 54.1021 118.697 54.1381 118.744 54.162C118.791 54.1859 118.845 54.1967 118.9 54.193C118.955 54.1892 119.007 54.1712 119.051 54.1411C119.094 54.111 119.127 54.0703 119.144 54.0243Z" fill="#AAAAAA"/>
<path d="M73.2907 52.3649L73.5672 54.0184C73.5922 54.166 73.5719 54.3167 73.5084 54.4551C73.4449 54.5936 73.3404 54.7148 73.2057 54.8062C73.071 54.8977 72.9109 54.9562 72.7419 54.9757C72.5729 54.9952 72.4009 54.975 72.2438 54.9172C70.1763 54.1567 71.1442 52.1344 73.2907 52.3649Z" fill="#F6F9FD"/>
<path d="M77.8553 53.7068C77.9081 54.4212 78.4922 54.9698 79.1599 54.932C79.8277 54.8942 80.3261 54.2844 80.2733 53.57C80.2205 52.8555 79.6364 52.307 78.9687 52.3448C78.301 52.3826 77.8025 52.9924 77.8553 53.7068Z" fill="#F6F9FD"/>
<path d="M86.7947 53.6359C86.8104 54.3485 87.3742 54.9169 88.0541 54.9055C88.734 54.8941 89.2725 54.3071 89.2568 53.5945C89.2412 52.8819 88.6774 52.3135 87.9975 52.3249C87.3176 52.3363 86.7791 52.9233 86.7947 53.6359Z" fill="#F6F9FD"/>
<path d="M96.3356 54.8944C97.1174 54.8944 97.7512 54.3398 97.7512 53.6557C97.7512 52.9716 97.1174 52.417 96.3356 52.417C95.5537 52.417 94.9199 52.9716 94.9199 53.6557C94.9199 54.3398 95.5537 54.8944 96.3356 54.8944Z" fill="#F6F9FD"/>
<path d="M99.9041 53.5046C99.825 54.198 100.298 54.807 100.96 54.8648C101.622 54.9226 102.223 54.4074 102.302 53.714C102.381 53.0206 101.909 52.4116 101.246 52.3538C100.584 52.2959 99.9832 52.8112 99.9041 53.5046Z" fill="#F6F9FD"/>
<path d="M105.653 53.736C105.789 53.8666 105.965 53.8915 106.18 53.8109C106.315 53.7568 106.464 53.7537 106.595 53.8025C106.725 53.8512 106.825 53.9476 106.874 54.0706C106.923 54.1937 106.916 54.3331 106.855 54.4584C106.794 54.5836 106.684 54.6843 106.549 54.7385C105.719 55.1033 105.214 54.9727 105.034 54.3467C104.85 53.6976 104.909 53.131 105.212 52.6471C105.344 52.432 105.55 52.3263 105.831 52.3302C106.327 52.3379 106.626 52.5702 106.727 53.0273C106.749 53.1226 106.728 53.2217 106.669 53.3042C106.611 53.3867 106.518 53.4464 106.41 53.4709L105.686 53.638C105.675 53.64 105.665 53.6446 105.657 53.6513C105.649 53.658 105.643 53.6667 105.64 53.6765C105.636 53.6862 105.636 53.6968 105.638 53.7072C105.641 53.7176 105.646 53.7275 105.653 53.736Z" fill="#F6F9FD"/>
<path d="M121.402 55.4068C121.628 55.4068 121.811 55.2469 121.811 55.0496C121.811 54.8523 121.628 54.6924 121.402 54.6924C121.177 54.6924 120.994 54.8523 120.994 55.0496C120.994 55.2469 121.177 55.4068 121.402 55.4068Z" fill="#AAAAAA"/>
</g>
<defs>
<clipPath id="clip0_1558_4885">
<rect width="160" height="65" fill="white"/>
</clipPath>
</defs>
</svg>
